<?xml version="1.0" encoding="UTF-8"?>
<svg id="Layer_2" data-name="Layer 2" xmlns="http://www.w3.org/2000/svg" viewBox="0 0 144.34 77.75">
  <defs>
    <style>
      .cls-1 {
        fill: #e9ba39;
      }
    </style>
  </defs>
  <g id="Layer_1-2" data-name="Layer 1">
    <g>
      <rect class="cls-1" x=".33" y="45.93" width="14.53" height="15.28" rx="3.72" ry="3.72"/>
      <rect class="cls-1" x="16.62" y="45.93" width="14.53" height="15.28" rx="3.72" ry="3.72"/>
      <rect class="cls-1" x=".33" y="62.71" width="14.53" height="15.04" rx="3.72" ry="3.72"/>
      <rect class="cls-1" x="16.62" y="62.71" width="14.53" height="15.04" rx="3.72" ry="3.72"/>
      <path class="cls-1" d="M46.22,75.37v-25.93h5.24v10.21h10.26v-10.21h5.24v25.93h-5.24v-11.34h-10.26v11.34h-5.24Z"/>
      <path class="cls-1" d="M87.15,75.37v-25.93h19.23v4.39h-13.99v5.75h13.02v4.37h-13.02v7.06h14.49v4.37h-19.72Z"/>
      <path class="cls-1" d="M124.48,75.37v-25.93h8.4c3.18,0,5.26.13,6.23.39,1.49.39,2.73,1.24,3.73,2.54,1,1.3,1.5,2.99,1.5,5.05,0,1.59-.29,2.93-.87,4.02-.58,1.08-1.31,1.94-2.2,2.56-.89.62-1.8,1.03-2.72,1.23-1.25.25-3.06.37-5.43.37h-3.41v9.78h-5.24ZM129.72,53.83v7.36h2.87c2.06,0,3.44-.14,4.14-.41.7-.27,1.24-.7,1.64-1.27.39-.58.59-1.25.59-2.02,0-.94-.28-1.72-.83-2.34-.55-.61-1.26-1-2.11-1.15-.62-.12-1.88-.18-3.77-.18h-2.53Z"/>
      <g>
        <path class="cls-1" d="M22.21,9.68h7.87v7.63l2.67-1.7v-7.26c0-.74-.6-1.33-1.33-1.33h-10.54c-.74,0-1.33.6-1.33,1.33v15.66l2.67-1.7v-12.63Z"/>
        <path class="cls-1" d="M112.33,38.53c.23.15.48.22.73.22.44,0,.86-.21,1.12-.61.4-.62.23-1.44-.39-1.85l-42.37-27.61-2.48,1.57,43.39,28.27Z"/>
        <path class="cls-1" d="M.62,36.03c-.62.4-.81,1.22-.41,1.84.4.62,1.22.81,1.84.41l17.49-11.12v-3.16L.62,36.03Z"/>
        <polygon class="cls-1" points="30.08 17.31 22.21 22.31 22.21 25.47 30.08 20.47 30.08 17.31"/>
        <path class="cls-1" d="M57.69,2.92l8.8,5.73,2.48-1.57L58.43.22c-.44-.29-1-.29-1.44,0l-24.24,15.41v3.16L57.69,2.92Z"/>
        <polygon class="cls-1" points="30.08 20.47 32.74 18.78 32.74 15.61 30.08 17.31 30.08 20.47"/>
        <polygon class="cls-1" points="22.21 22.31 19.54 24.01 19.54 27.17 22.21 25.47 22.21 22.31"/>
        <path class="cls-1" d="M136.59,36.29L81.22.22c-.44-.29-1-.29-1.44,0l-10.81,6.87,2.46,1.6,9.06-5.76,54.64,35.6c.23.15.48.22.73.22.44,0,.86-.21,1.12-.61.4-.62.23-1.44-.39-1.85Z"/>
        <polygon class="cls-1" points="66.49 8.66 68.95 10.26 71.42 8.68 68.96 7.08 66.49 8.66"/>
      </g>
    </g>
  </g>
</svg>