<?xml version="1.0" encoding="UTF-8"?>
<svg id="Layer_2" data-name="Layer 2" xmlns="http://www.w3.org/2000/svg" viewBox="0 0 191.02 60.82">
  <defs>
    <style>
      .cls-1 {
        fill: #0b4120;
      }

      .cls-2 {
        fill: #59585a;
      }

      .cls-3 {
        fill: #231f20;
      }

      .cls-4 {
        fill: #095299;
      }

      .cls-5 {
        fill: #992520;
      }

      .cls-6 {
        fill: #76632a;
      }

      .cls-7 {
        fill: #f5d82b;
      }

      .cls-8 {
        fill: #84702f;
      }

      .cls-9 {
        fill: #fff;
      }

      .cls-10 {
        fill: #007640;
      }

      .cls-11 {
        fill: #818285;
      }
    </style>
  </defs>
  <g id="Layer_1-2" data-name="Layer 1">
    <g>
      <path class="cls-3" d="M69.26,30.3V10h1.25l14.47,18.47h-.67V10h1.48v20.3h-1.22l-14.5-18.47h.67v18.47h-1.48Z"/>
      <path class="cls-3" d="M89.47,30.3l9.34-20.3h1.48l9.34,20.3h-1.59l-8.82-19.37h.64l-8.79,19.37h-1.59ZM92.89,24.59l.49-1.25h12.15l.49,1.25h-13.14Z"/>
      <path class="cls-3" d="M113.31,30.3V10h1.48v20.3h-1.48Z"/>
      <path class="cls-3" d="M121.86,30.3V10h7.28c2.55,0,4.55.6,6,1.8,1.45,1.2,2.17,2.88,2.17,5.05,0,1.41-.33,2.62-.99,3.64-.66,1.01-1.6,1.8-2.81,2.35s-2.68.83-4.38.83h-6.47l.67-.7v7.34h-1.48ZM123.34,23.05l-.67-.7h6.47c2.18,0,3.84-.48,4.97-1.45,1.13-.97,1.7-2.32,1.7-4.06s-.57-3.12-1.7-4.07c-1.13-.96-2.79-1.44-4.97-1.44h-6.47l.67-.72v12.44ZM135.95,30.3l-5.28-7.37h1.68l5.28,7.37h-1.68Z"/>
      <path class="cls-3" d="M151.35,30.44c-1.51,0-2.9-.26-4.19-.77-1.29-.51-2.41-1.24-3.36-2.17s-1.7-2.03-2.22-3.28-.78-2.6-.78-4.07.26-2.83.78-4.07,1.26-2.34,2.22-3.28,2.08-1.66,3.36-2.17c1.29-.51,2.68-.77,4.19-.77s2.9.26,4.19.77c1.29.51,2.4,1.23,3.35,2.16.95.93,1.69,2.02,2.22,3.26.53,1.25.8,2.61.8,4.1s-.27,2.86-.8,4.1-1.27,2.33-2.22,3.26c-.95.93-2.06,1.65-3.35,2.16-1.29.51-2.68.77-4.19.77ZM151.35,29.08c1.29,0,2.49-.22,3.6-.67,1.1-.44,2.06-1.07,2.87-1.88.81-.81,1.44-1.76,1.9-2.84.45-1.08.68-2.26.68-3.54s-.23-2.48-.68-3.55c-.45-1.07-1.09-2.02-1.9-2.83-.81-.81-1.77-1.44-2.87-1.89-1.1-.44-2.3-.67-3.6-.67s-2.49.22-3.6.67c-1.1.45-2.06,1.07-2.89,1.89-.82.81-1.46,1.75-1.91,2.83-.45,1.07-.68,2.26-.68,3.55s.23,2.46.68,3.54c.45,1.08,1.09,2.03,1.91,2.84.82.81,1.78,1.44,2.89,1.88,1.1.45,2.3.67,3.6.67Z"/>
      <path class="cls-3" d="M167.04,30.3V10h8.47c2.18,0,3.9.45,5.13,1.33,1.24.89,1.86,2.17,1.86,3.86,0,1.1-.26,2.03-.78,2.78s-1.24,1.32-2.16,1.7c-.92.38-1.95.57-3.09.57l.52-.58c1.39,0,2.58.2,3.57.61s1.73,1,2.25,1.77c.51.77.77,1.74.77,2.9,0,1.7-.62,3.02-1.86,3.96s-3.11,1.41-5.63,1.41h-9.05ZM168.52,29.02h7.57c1.95,0,3.44-.33,4.47-1,1.02-.67,1.54-1.73,1.54-3.2s-.51-2.51-1.54-3.18c-1.02-.67-2.51-1-4.47-1h-7.74v-1.28h7.1c1.76,0,3.12-.34,4.09-1.01s1.45-1.69,1.45-3.04-.48-2.34-1.45-3.02-2.33-1.01-4.09-1.01h-6.93v17.75Z"/>
      <path class="cls-3" d="M188.84,30.3V10h1.48v20.3h-1.48Z"/>
    </g>
    <g>
      <path class="cls-3" d="M72.92,45.54c-.84,0-1.62-.14-2.33-.43-.72-.29-1.34-.69-1.86-1.2-.53-.52-.94-1.12-1.23-1.81s-.44-1.45-.44-2.28.15-1.59.44-2.28c.29-.69.7-1.3,1.23-1.81.53-.52,1.15-.92,1.86-1.2.71-.28,1.48-.43,2.32-.43s1.54.13,2.23.39,1.29.65,1.78,1.18l-.52.53c-.48-.47-1.02-.81-1.6-1.02-.59-.21-1.21-.31-1.86-.31-.72,0-1.39.12-2.01.37-.62.25-1.16.6-1.61,1.05-.46.45-.81.98-1.06,1.58-.25.6-.38,1.26-.38,1.97s.13,1.37.38,1.97.61,1.13,1.06,1.58c.46.45.99.8,1.61,1.05.62.25,1.29.37,2.01.37.66,0,1.28-.1,1.86-.31.59-.21,1.12-.56,1.6-1.04l.52.53c-.49.53-1.09.92-1.78,1.19s-1.44.4-2.23.4Z"/>
      <path class="cls-3" d="M81.15,45.46v-11.29h.82v11.29h-.82Z"/>
      <path class="cls-3" d="M89.68,45.46v-10.55h-4.06v-.74h8.95v.74h-4.07v10.55h-.82Z"/>
      <path class="cls-3" d="M100.83,45.46v-4.1l.19.53-4.74-7.73h.9l4.31,7.02h-.45l4.31-7.02h.85l-4.74,7.73.19-.53v4.1h-.82Z"/>
      <path class="cls-3" d="M120.39,45.54c-.84,0-1.62-.14-2.33-.43-.72-.29-1.34-.69-1.86-1.2-.53-.52-.94-1.12-1.23-1.81s-.44-1.45-.44-2.28.15-1.59.44-2.28c.29-.69.7-1.3,1.23-1.81.53-.52,1.15-.92,1.86-1.2.71-.28,1.48-.43,2.32-.43s1.54.13,2.23.39,1.29.65,1.78,1.18l-.52.53c-.48-.47-1.02-.81-1.6-1.02-.59-.21-1.21-.31-1.86-.31-.72,0-1.39.12-2.01.37-.62.25-1.16.6-1.61,1.05-.46.45-.81.98-1.06,1.58-.25.6-.38,1.26-.38,1.97s.13,1.37.38,1.97.61,1.13,1.06,1.58c.46.45.99.8,1.61,1.05.62.25,1.29.37,2.01.37.66,0,1.28-.1,1.86-.31.59-.21,1.12-.56,1.6-1.04l.52.53c-.49.53-1.09.92-1.78,1.19s-1.44.4-2.23.4Z"/>
      <path class="cls-3" d="M132.85,45.54c-.84,0-1.62-.14-2.33-.43-.72-.29-1.34-.69-1.87-1.21-.53-.52-.94-1.13-1.23-1.82-.29-.69-.44-1.45-.44-2.27s.15-1.57.44-2.27c.29-.69.7-1.3,1.23-1.82.53-.52,1.16-.92,1.87-1.21.71-.28,1.49-.43,2.33-.43s1.62.14,2.33.43c.72.29,1.34.69,1.86,1.2.53.52.94,1.12,1.23,1.81.3.69.44,1.46.44,2.28s-.15,1.59-.44,2.28-.71,1.3-1.23,1.81c-.53.52-1.15.92-1.86,1.2s-1.49.43-2.33.43ZM132.85,44.78c.72,0,1.39-.12,2-.37.61-.25,1.15-.6,1.6-1.05.45-.45.8-.98,1.06-1.58.25-.6.38-1.26.38-1.97s-.13-1.38-.38-1.98c-.25-.6-.6-1.12-1.06-1.57-.45-.45-.98-.8-1.6-1.05s-1.28-.37-2-.37-1.39.12-2,.37c-.61.25-1.15.6-1.6,1.05-.46.45-.81.98-1.06,1.57s-.38,1.26-.38,1.98.13,1.37.38,1.97.61,1.13,1.06,1.58c.46.45.99.8,1.6,1.05.61.25,1.28.37,2,.37Z"/>
      <path class="cls-3" d="M147.61,45.54c-1.4,0-2.5-.41-3.31-1.23s-1.21-2.03-1.21-3.65v-6.5h.82v6.47c0,1.41.32,2.45.97,3.13.65.68,1.56,1.02,2.74,1.02s2.08-.34,2.73-1.02c.65-.68.97-1.72.97-3.13v-6.47h.82v6.5c0,1.61-.4,2.83-1.21,3.65s-1.91,1.23-3.32,1.23Z"/>
      <path class="cls-3" d="M157.59,45.46v-11.29h.69l8.05,10.28h-.37v-10.28h.82v11.29h-.68l-8.07-10.28h.37v10.28h-.82Z"/>
      <path class="cls-3" d="M174.5,45.46v-10.55h-4.06v-.74h8.95v.74h-4.07v10.55h-.82Z"/>
      <path class="cls-3" d="M185.64,45.46v-4.1l.19.53-4.74-7.73h.9l4.31,7.02h-.45l4.31-7.02h.85l-4.74,7.73.19-.53v4.1h-.82Z"/>
    </g>
    <g>
      <path class="cls-10" d="M74.72,56.74v-6.56h.96v5.78h3.57v.77h-4.52Z"/>
      <path class="cls-10" d="M83.86,55.21l.92.1c-.15.49-.41.86-.81,1.13-.39.27-.89.4-1.5.4-.77,0-1.38-.21-1.83-.64-.45-.43-.67-1.03-.67-1.8s.23-1.42.68-1.86c.45-.44,1.04-.66,1.77-.66s1.27.22,1.72.65c.44.43.67,1.04.67,1.82,0,.05,0,.12,0,.21h-3.91c.03.52.2.92.49,1.2.29.28.66.42,1.1.42.33,0,.6-.08.83-.23s.41-.4.55-.74ZM80.94,53.91h2.93c-.04-.4-.15-.7-.34-.9-.28-.31-.65-.47-1.1-.47-.41,0-.75.12-1.03.37-.28.25-.43.58-.46.99Z"/>
      <path class="cls-10" d="M87.84,56.02l.13.71c-.25.05-.47.07-.67.07-.32,0-.57-.05-.75-.14-.18-.09-.3-.21-.38-.36-.07-.15-.11-.47-.11-.95v-2.73h-.65v-.63h.65v-1.18l.88-.48v1.66h.89v.63h-.89v2.78c0,.23.02.38.05.44s.08.12.15.16c.07.04.17.06.3.06.1,0,.23-.01.39-.03Z"/>
      <path class="cls-10" d="M88.35,55.32l.88-.12c.05.32.19.56.41.73s.54.25.95.25.71-.08.91-.23c.2-.15.3-.33.3-.53,0-.18-.09-.33-.26-.43-.12-.07-.42-.16-.91-.27-.65-.15-1.1-.28-1.36-.39-.25-.11-.44-.26-.57-.45-.13-.19-.19-.41-.19-.64,0-.21.05-.41.16-.59s.25-.33.44-.45c.14-.09.33-.17.57-.24.24-.06.49-.1.77-.1.41,0,.77.05,1.08.16.31.11.54.25.69.44.15.18.25.43.31.74l-.87.11c-.04-.24-.15-.43-.34-.57-.19-.14-.46-.21-.8-.21-.41,0-.7.06-.87.18-.17.12-.26.27-.26.43,0,.1.04.2.11.28.07.09.19.16.34.21.09.03.35.1.79.21.63.15,1.07.28,1.32.37s.44.24.59.42.21.41.21.69-.09.52-.26.76c-.17.24-.42.42-.75.55-.33.13-.69.19-1.11.19-.68,0-1.2-.13-1.56-.38-.36-.26-.58-.64-.68-1.14Z"/>
      <path class="cls-10" d="M96.66,56.74v-6.56h1.44l1.71,4.64c.16.43.27.76.35.97.08-.24.21-.59.39-1.05l1.73-4.56h1.29v6.56h-.92v-5.49l-2.1,5.49h-.86l-2.09-5.58v5.58h-.92Z"/>
      <path class="cls-10" d="M108.42,56.15c-.33.25-.65.43-.95.54-.3.1-.63.16-.98.16-.58,0-1.02-.13-1.33-.38s-.46-.58-.46-.98c0-.23.06-.45.18-.64.12-.19.27-.35.46-.46s.4-.2.64-.26c.17-.04.44-.08.79-.12.72-.08,1.25-.17,1.58-.28,0-.11,0-.18,0-.21,0-.33-.08-.56-.25-.69-.23-.18-.56-.27-1.01-.27-.42,0-.73.07-.93.2s-.35.37-.44.7l-.87-.11c.08-.34.21-.61.39-.82.18-.21.44-.37.79-.48.34-.11.74-.17,1.19-.17s.81.05,1.09.14c.28.1.49.22.62.36s.22.33.28.55c.03.14.04.38.04.74v1.07c0,.75.02,1.22.06,1.42.04.2.11.39.22.57h-.93c-.09-.17-.15-.36-.18-.59ZM108.35,54.35c-.32.12-.81.22-1.45.3-.37.05-.62.1-.78.16-.15.06-.27.15-.35.26-.08.12-.12.24-.12.38,0,.21.09.39.27.54.18.14.44.21.79.21s.65-.07.91-.2c.27-.14.46-.32.59-.56.1-.18.14-.45.14-.81v-.29Z"/>
      <path class="cls-10" d="M110.63,56.74v-6.56h.89v3.74l2.1-1.93h1.15l-2.01,1.76,2.21,2.99h-1.1l-1.73-2.43-.63.55v1.88h-.89Z"/>
      <path class="cls-10" d="M119.27,55.21l.92.1c-.15.49-.41.86-.81,1.13-.39.27-.89.4-1.5.4-.77,0-1.38-.21-1.83-.64-.45-.43-.67-1.03-.67-1.8s.23-1.42.68-1.86c.45-.44,1.04-.66,1.77-.66s1.27.22,1.72.65c.44.43.67,1.04.67,1.82,0,.05,0,.12,0,.21h-3.91c.03.52.2.92.49,1.2.29.28.66.42,1.1.42.33,0,.6-.08.83-.23s.41-.4.55-.74ZM116.36,53.91h2.93c-.04-.4-.15-.7-.34-.9-.28-.31-.65-.47-1.1-.47-.41,0-.75.12-1.03.37-.28.25-.43.58-.46.99Z"/>
      <path class="cls-10" d="M124.22,56.74v-6.56h.98l3.8,5.15v-5.15h.92v6.56h-.98l-3.8-5.15v5.15h-.92Z"/>
      <path class="cls-10" d="M134.85,56.15c-.33.25-.65.43-.95.54-.3.1-.63.16-.98.16-.58,0-1.02-.13-1.33-.38s-.46-.58-.46-.98c0-.23.06-.45.18-.64.12-.19.27-.35.46-.46s.4-.2.64-.26c.17-.04.44-.08.79-.12.72-.08,1.25-.17,1.58-.28,0-.11,0-.18,0-.21,0-.33-.08-.56-.25-.69-.23-.18-.56-.27-1.01-.27-.42,0-.73.07-.93.2s-.35.37-.44.7l-.87-.11c.08-.34.21-.61.39-.82.18-.21.44-.37.79-.48.34-.11.74-.17,1.19-.17s.81.05,1.09.14c.28.1.49.22.62.36s.22.33.28.55c.03.14.04.38.04.74v1.07c0,.75.02,1.22.06,1.42.04.2.11.39.22.57h-.93c-.09-.17-.15-.36-.18-.59ZM134.77,54.35c-.32.12-.81.22-1.45.3-.37.05-.62.1-.78.16-.15.06-.27.15-.35.26-.08.12-.12.24-.12.38,0,.21.09.39.27.54.18.14.44.21.79.21s.65-.07.91-.2c.27-.14.46-.32.59-.56.1-.18.14-.45.14-.81v-.29Z"/>
      <path class="cls-10" d="M137.06,51.11v-.92h.89v.92h-.89ZM137.06,56.74v-4.75h.89v4.75h-.89Z"/>
      <path class="cls-10" d="M139.29,56.74v-4.75h.8v.72c.2-.34.39-.56.57-.67.17-.11.36-.16.57-.16.3,0,.6.09.91.26l-.31.75c-.22-.12-.44-.17-.65-.17-.19,0-.37.05-.52.16s-.27.25-.33.44c-.1.29-.15.6-.15.94v2.49h-.89Z"/>
      <path class="cls-10" d="M142.34,54.36c0-.88.27-1.53.81-1.95.45-.35,1-.53,1.65-.53.72,0,1.31.21,1.77.64s.69,1.02.69,1.77c0,.61-.1,1.09-.3,1.44-.2.35-.5.62-.88.82-.39.19-.81.29-1.27.29-.73,0-1.33-.21-1.78-.64-.45-.43-.68-1.04-.68-1.84ZM143.25,54.36c0,.61.15,1.06.44,1.37.29.3.66.45,1.11.45s.81-.15,1.1-.46c.29-.3.44-.77.44-1.39,0-.59-.15-1.03-.44-1.33-.29-.3-.66-.45-1.1-.45s-.81.15-1.11.45c-.29.3-.44.75-.44,1.36Z"/>
      <path class="cls-10" d="M149.11,56.74h-.83v-6.56h.89v2.34c.38-.43.85-.64,1.44-.64.32,0,.63.06.92.18.29.12.52.28.71.5s.33.47.44.77c.1.3.16.62.16.97,0,.81-.22,1.44-.67,1.89-.44.44-.98.67-1.6.67s-1.1-.23-1.46-.7v.59ZM149.1,54.33c0,.57.09.98.26,1.23.28.41.66.62,1.14.62.39,0,.72-.15,1.01-.46s.42-.76.42-1.37-.14-1.08-.41-1.37c-.27-.29-.6-.44-.99-.44s-.72.15-1.01.46-.42.75-.42,1.33Z"/>
      <path class="cls-10" d="M153.92,51.11v-.92h.89v.92h-.89ZM153.92,56.74v-4.75h.89v4.75h-.89Z"/>
      <path class="cls-10" d="M160.35,56.74l-1.92-6.56h.98l1.1,4.3c.12.45.22.9.31,1.34.18-.7.29-1.1.33-1.21l1.38-4.43h1.16l1.04,3.32c.26.82.45,1.6.56,2.32.09-.41.21-.89.36-1.43l1.14-4.21h.96l-1.99,6.56h-.92l-1.53-5c-.13-.42-.2-.67-.23-.77-.08.3-.15.56-.21.77l-1.54,5h-.98Z"/>
      <path class="cls-10" d="M168.01,54.36c0-.88.27-1.53.81-1.95.45-.35,1-.53,1.65-.53.72,0,1.31.21,1.77.64s.69,1.02.69,1.77c0,.61-.1,1.09-.3,1.44-.2.35-.5.62-.88.82-.39.19-.81.29-1.27.29-.73,0-1.33-.21-1.78-.64-.45-.43-.68-1.04-.68-1.84ZM168.92,54.36c0,.61.15,1.06.44,1.37.29.3.66.45,1.11.45s.81-.15,1.1-.46c.29-.3.44-.77.44-1.39,0-.59-.15-1.03-.44-1.33-.29-.3-.66-.45-1.1-.45s-.81.15-1.11.45c-.29.3-.44.75-.44,1.36Z"/>
      <path class="cls-10" d="M173.95,56.74v-4.75h.8v.72c.2-.34.39-.56.57-.67.17-.11.36-.16.57-.16.3,0,.6.09.91.26l-.31.75c-.22-.12-.44-.17-.65-.17-.19,0-.37.05-.52.16s-.27.25-.33.44c-.1.29-.15.6-.15.94v2.49h-.89Z"/>
      <path class="cls-10" d="M177.34,56.74v-6.56h.89v3.74l2.1-1.93h1.15l-2.01,1.76,2.21,2.99h-1.1l-1.73-2.43-.63.55v1.88h-.89Z"/>
    </g>
    <g>
      <path class="cls-7" d="M30.25,0C13.54,0,0,13.62,0,30.41s13.54,30.41,30.25,30.41,30.25-13.62,30.25-30.41S46.95,0,30.25,0ZM30.32,59.39c-15.97,0-28.91-13.01-28.91-29.06S14.36,1.27,30.32,1.27s28.91,13.01,28.91,29.06-12.94,29.06-28.91,29.06Z"/>
      <path class="cls-1" d="M30.32,1.27C14.36,1.27,1.41,14.29,1.41,30.33s12.94,29.06,28.91,29.06,28.91-13.01,28.91-29.06S46.29,1.27,30.32,1.27ZM49.87,47.88c.12.23.08.51-.09.7-.18.19-.45.26-.69.16-.05-.02-.25-.07-.61-.06.68.92.66,1.78.66,1.83,0,.25-.16.47-.4.56-.07.03-.15.04-.23.04-.16,0-.33-.07-.45-.19-.87-.89-1.86-.98-3.27-.94-.73.02-1.42.19-2.14.37-.41.1-.83.19-1.26.27-3.29,1.81-7.06,2.85-11.07,2.85s-7.81-1.04-11.11-2.87c-.56.02-1.03.03-1.35,0-.63-.04-1.03-.25-1.28-.46l-1.75.57c-.46.14-.93.21-1.4.21-1.26,0-2.14-.52-2.17-.54-.23-.14-.35-.42-.28-.68.07-.26.3-.46.57-.47.4-.02.75-.17,1.01-.32l-1.48-.97c-.23-.15-.34-.44-.25-.71.09-.27.33-.46.62-.43.82.04,1.59-.13,2.34-.38-4.01-4.16-6.48-9.82-6.48-16.06,0-12.76,10.31-23.11,23.02-23.11s23.02,10.35,23.02,23.11c0,5.99-2.27,11.45-6,15.56,1.78.57,2.49,1.88,2.52,1.95Z"/>
      <path class="cls-9" d="M37.42,31.39c-.08.36-.17.68-.25.94.14-.2.21-.15.24-.58,0-.14.01-.26.01-.36Z"/>
      <path class="cls-9" d="M43.18,44.53c.15.07.27.14.38.21-.11-.09-.24-.16-.36-.23h-.02Z"/>
      <path class="cls-9" d="M15.99,40.45l.25.2h.01c0-.15,0-.28,0-.42l-.26.22Z"/>
      <path class="cls-9" d="M32.09,39.1s-.08-.37-.23-.56c-.26.13-.5.24-.69.32.3.04.66.11.92.24Z"/>
      <path class="cls-9" d="M37.32,25.97c0-.19-.02-.39-.03-.58-.55-.05-2.76-.35-6.03-2.14,1.17.65,3.58,1.85,6.01,2.15,0,0,.02.21.05.57Z"/>
      <path class="cls-9" d="M23.29,25.38s0,0,0,.01c.12-.02.23-.05.34-.07-.11.02-.23.04-.34.05Z"/>
      <path class="cls-9" d="M23.91,32.15c.03.07.05.14.07.22,0,0,0-.01.01-.02-.03-.07-.06-.13-.09-.2Z"/>
      <path class="cls-9" d="M15.68,40s.28-.08.57-.04c0-.16,0-.33,0-.49-.19.06-.52.2-.56.53Z"/>
      <path class="cls-9" d="M28.53,20.4c0-.14.02-.27.05-.4,0,.01-.01.03-.02.04-.11.11-.33.03-.39-.11s-.22-.36-.22-.36l-.53.42-.25-.03s-.14.42-.39.64c-.25.22-.58.5-.58.5l.19.14s.03-.28.5-.08c.47.19.69.75.58.92-.11.17-.44.58-.53.69-.08.11-.14.25-.14.25,0,0,.14.14.22.14s.22,0,.28-.14c.06-.14.3.03.33.11.03.08-.08.25-.08.25,0,0-.3.44-.42.36-.11-.08-.44-.28-.61-.33-.17-.06-.28-.25-.28-.25,0,0,.03-.14.17-.33.14-.19.3-.3.08-.42-.22-.11-.42-.19-.42-.19,0,0-.03.47-.19.67-.17.19-.5.67-.56.75-.06.08-.06.25-.06.25v.33s.28-.17.39-.11c.08.04.1.18.11.27,2.61-.83,4.36-2.08,4.38-2.1l.12-.08c-.97-.02-1.74-.8-1.74-1.77Z"/>
      <polygon class="cls-9" points="19.91 46.73 19.91 46.73 19.91 46.73 19.91 46.73"/>
      <path class="cls-9" d="M23.48,32.39c.04.06.08.14.13.22-.17-.44-.31-.88-.42-1.32,0,.13,0,.28.02.46.03.47.11.36.28.64Z"/>
      <path class="cls-9" d="M40.26,50.77c-1.31,0-1.82-.71-1.91-1.14v-.13s-.01-1.17-.01-1.17c-.93.03-2.6.2-3.98.42-2.1.33-8.98,1.25-10.34,1.43-1.66.22-3.49.38-4.8.43,3.29,1.83,7.08,2.87,11.11,2.87s7.79-1.03,11.07-2.85c-.25.04-.49.09-.75.12-.14.01-.27.02-.38.02Z"/>
      <path class="cls-9" d="M44.34,45.77s.05,0,.07,0c-.04,0-.07,0-.07,0h0Z"/>
      <path class="cls-9" d="M41.17,44.02c.47.05.86.13,1.2.23l.26.02c-.46-.15-.95-.23-1.46-.25Z"/>
      <path class="cls-9" d="M30.32,7.26c-12.71,0-23.02,10.35-23.02,23.11,0,6.24,2.47,11.9,6.48,16.06.02,0,.04-.01.06-.02-1.49-1.5-3.08-4.14-3.08-4.14.53-.4,1.39-.74,2.45-1.02-.08-.08-.17-.14-.27-.15l.64.06s0,0,0,0c0,0-.32-.51-1.1-.54,0,0,.79-.28,1.33.14,0,0-.42-.76-1.1-.85,0,0,.96,0,1.52.28,0,0-.11-.57-.34-.65,0,0,.34-.11.65.4,0,0-.14-.42.4-.65,0,0-.06.45-.03.65,0,0,.46-.52,1.32-.51-.02-.85-.03-1.58-.03-1.63,0-.14-.17-.31-.17-.5s.14-.61.14-.61l.08-4.02.56-.36-.19,4.3s.14.33.17.58c.03.25-.14.67-.14.67l.02,2.73c.17-.02.34-.05.5-.07l.03-.07.04.06c.32-.04.65-.08.98-.12-.12-.77-.73-1.04-.73-1.04.86-.1,1.56.83,1.56.83l.48-.76-.09.85s0,0,.01,0c.51-.65,1.55-.62,1.55-.62-.33.05-.51.39-.58.54.41-.03.82-.07,1.23-.09.14-.04.39-.08.67-.04.13,0,.26-.02.39-.02-.18-.23-.51-.55-.93-.6,0,0,.96,0,1.52.28,0,0-.11-.56-.34-.65,0,0,.34-.11.65.39,0,0-.14-.42.4-.65,0,0-.06.45-.03.65,0,0,.51-.59,1.47-.51,0,0-.65.08-.71.56,0,0,.48-.14.82.03l-.45.37c.75-.03,1.45-.05,2.08-.07-.16-.7-.71-.95-.71-.95.86-.09,1.56.83,1.56.83l.48-.76-.1.86s0,0,0,0c.51-.66,1.56-.63,1.56-.63-.41.06-.61.61-.61.61l.7-.06s-.08.05-.12.07c.33,0,.52,0,.52,0,.23,0,.45,0,.68,0-.18-.12-.44-.24-.81-.25,0,0,.79-.28,1.33.14,0,0-.27-.48-.72-.72-.26.09-.43.14-.46.14h-.05s-.05,0-.05,0c-3.65-.76-5.97-4.75-6.07-4.92-.16-.29-.31-.59-.44-.88-.11-.04-.28-.11-.49-.17-.33-.11-.28-.06-.36-.03-.08.03-3,1.64-3.33,1.83-.33.19-1.31.83-1.58,1-.28.17-.33.11-.61-.08-.28-.19.11-.31.11-.56s-.5-2.83-.5-2.83c0,0-.03-.13-.06-.3-.41.26-.82.48-1.02.61-.33.22-1.39,1.03-1.83,1.28-.45.25-.72.11-.72.11,0,0-.64.72-.94.83-.3.11-.42-.25-.42-.25,0,0-.67.94-.94,1.06-.28.11-.81-2.66-.61-4.5.19-1.83.64-2.78,1.22-3.72.58-.94,2.03-2.19,2.94-2.75.92-.55,2.39-1.42,2.39-1.42h.03c.4-.25,1.3-.83,1.58-1.22.36-.5.36-1.5.06-2.05-.31-.56-1.28-2.55-1.28-2.55,0-.02,0-.03,0-.04l-.67.34s-.05-.35-.05-.43-.86.25-.86.25l.56-.58-.71.08.48-.43-.81-.2.86-.15-1.06-.45,1.14-.02-.78-.56.91.23-.33-.76.73.45-.45-1.03.83.76-.1-.81.55.53-.35-1.11.68.73-.05-.78.48.73.43-.45-.1,2.25c.57.03.93.11,1.07.42.08.18.05.37,0,.49.11.09.34.25.72.3.56.08.61-.02.61.28,0,0-1.41.02-1.67.07h0s0,0,0,0h0s-.2.13-.2.13l-.33.08s0,0,0,0l.21-.03c-.2.15-.03.56.03.66.05.1.15.28-.03.35-.01,0-.03,0-.04,0,.22.51.54,1.06.7,1.32.31.5.86.94.95,1.44.08.5.22,1.53.33,2.31.11.78.06,2.05-.14,2.69-.19.64-.36,2.22-.44,2.36-.07.12-.27-.51-.32-.68-.07.14-.16.32-.26.51-.22.44-1.61,2.22-2.17,2.75-.08.08-.17.15-.26.22.14,1.05.37,2.79.42,3.06.08.39.39.31.39.31l3.78-2.06s.47-.16.64-.41c.17-.25.11-1.28.14-1.61.02-.19.06-.27.11-.27-.73-3.3-.1-6.11-.09-6.14l.43.1s-.02.07-.04.18c.54-.08,1.05-.19,1.54-.32,0-.07-.01-.17-.01-.24,0-.14-.17-.47-.17-.47,0,0-.19-.42-.03-.5.17-.08.42-.47.42-.64s-.14-.36-.19-.56c-.06-.19-.11-.56-.11-.56,0,0-.89.03-1.19-.53-.3-.56-.33-1-.25-1.19.08-.19.42-.39.64-.64.22-.25.28-.56.14-.81-.14-.25-.61-.39-.75-.25-.14.14-.25.47.06.56,0,0,.25-.39.39-.25.14.14.25.75-.22.75s-.83-.47-.61-1.08c.22-.61,1.19-.31,1.3-.06.11.25.47.94-.08,1.39-.56.44-.61.58-.44,1.03.17.44.39.61.75.67.36.06.58-.11.58-.11,0,0,.22-.5.33-.67.11-.17.06-.47-.08-.64l-.42-.06.25-.42-.44.03.25-.42-.08-.53-.33-.17.22-.28s.14-.47.19-.61l.06-.14-.14-.31.39.11.11-.33.33.36.44.14s.44,0,.53.03c.08.03.06.28.03.36s-.06.28-.06.28l-.25.08s0,.19.03.33c.03.14.33.19.33.19,0,0,.25-.22.36-.5.11-.28.33-.39.64-.28s.44.39.36.56c-.08.17-.39.03-.39.03,0,0-.19-.14-.28.08-.08.22-.03.39-.03.39l.28-.14-.17.42.08.22s.33-.28.53-.25c.19.03.25.25.39.39.07.07.09.2.08.32.27-.64.9-1.1,1.64-1.1.98,0,1.78.8,1.78,1.78s-.8,1.78-1.78,1.78c0,0-.02,0-.02,0l.12.07c1.78,1.08,3.3,1.73,4.47,2.12,0-.08.03-.23.11-.27.11-.05.39.11.39.11v-.33s0-.17-.05-.25c-.06-.08-.39-.56-.56-.75-.17-.2-.19-.67-.19-.67,0,0-.19.08-.42.19-.22.11-.06.22.08.42.14.19.17.33.17.33,0,0-.11.19-.28.25-.17.06-.5.25-.61.33-.11.08-.42-.36-.42-.36,0,0-.11-.17-.08-.25.03-.08.28-.25.33-.11.05.14.19.14.28.14s.22-.14.22-.14c0,0-.06-.14-.14-.25-.08-.11-.42-.53-.53-.69-.11-.17.11-.72.58-.92.47-.19.5.08.5.08l.19-.14s-.33-.28-.58-.5c-.25-.22-.39-.64-.39-.64l-.25.03-.53-.42s-.17.22-.22.36-.28.22-.39.11c-.11-.11-.17-.5-.03-.64.14-.14.19-.36.39-.39.19-.03.53.25.53.25l.08-.22-.17-.42.28.14s.06-.17-.03-.39c-.08-.22-.28-.08-.28-.08,0,0-.3.14-.39-.03-.08-.17.06-.44.36-.56.31-.11.53,0,.64.28.11.28.36.5.36.5,0,0,.31-.06.33-.19.03-.14.03-.33.03-.33l-.25-.08s-.03-.19-.06-.28-.06-.33.03-.36c.08-.03.53-.03.53-.03l.44-.14.33-.36.11.33.39-.11-.14.31.06.14c.06.14.19.61.19.61l.22.28-.33.17-.08.53.25.42-.44-.03.25.42-.42.06c-.14.17-.19.47-.08.64.11.17.33.67.33.67,0,0,.22.17.58.11.36-.06.58-.22.75-.67.17-.44.11-.58-.44-1.03-.55-.44-.19-1.14-.08-1.39.11-.25,1.08-.56,1.31.06.22.61-.14,1.08-.61,1.08s-.36-.61-.22-.75c.14-.14.39.25.39.25.31-.08.19-.42.06-.56-.14-.14-.61,0-.75.25-.14.25-.08.56.14.81.22.25.56.44.64.64.08.19.06.64-.25,1.19-.31.56-1.19.53-1.19.53,0,0-.06.36-.11.56-.06.19-.19.39-.19.56s.25.56.42.64c.17.08-.03.5-.03.5,0,0-.17.33-.17.47,0,.08,0,.18-.02.26.74.2,1.27.28,1.52.31,0-.06,0-.12-.01-.19l.44-.04c.21,2.74.08,4.7-.16,6.07.05,0,.1.06.12.27.03.33-.03,1.36.14,1.61.17.25.64.41.64.41l3.78,2.06s.31.08.39-.31c.06-.27.29-2.01.42-3.06-.09-.07-.18-.14-.26-.22-.55-.53-1.94-2.3-2.16-2.75-.1-.2-.19-.37-.26-.51-.05.17-.25.8-.32.68-.08-.14-.25-1.72-.44-2.36-.19-.64-.25-1.91-.14-2.69.11-.78.25-1.81.33-2.31.08-.5.64-.94.94-1.44.16-.26.48-.82.7-1.32-.01,0-.03,0-.04,0-.18-.08-.08-.25-.03-.35.05-.1.23-.5.03-.66l.21.03s0,0,0,0l-.33-.08-.2-.13h0c-.25-.05-1.67-.08-1.67-.08,0-.3.05-.2.61-.28.38-.05.61-.2.72-.3-.04-.13-.08-.31,0-.49.14-.3.5-.39,1.07-.42h0l-.1-2.25.43.45.48-.73-.05.78.68-.73-.35,1.11.56-.53-.1.81.83-.76-.46,1.03.73-.45-.33.76.91-.23-.78.56,1.14.02-1.06.45.86.15-.81.2.48.43-.71-.08.56.58s-.86-.33-.86-.25-.05.43-.05.43l-.67-.34s0,.03,0,.04c0,0-.97,2-1.28,2.55-.31.55-.31,1.55.06,2.05.28.39,1.19.97,1.59,1.22h.02s1.47.87,2.39,1.42c.92.56,2.36,1.8,2.94,2.75.58.94,1.03,1.89,1.22,3.72.19,1.83-.33,4.61-.61,4.5-.28-.11-.94-1.06-.94-1.06,0,0-.11.36-.42.25-.31-.11-.94-.83-.94-.83,0,0-.28.14-.72-.11-.44-.25-1.5-1.05-1.83-1.28-.2-.13-.61-.35-1.02-.61-.03.18-.06.3-.06.3,0,0-.5,2.58-.5,2.83s.39.36.11.56c-.28.19-.33.25-.61.08-.28-.17-1.25-.81-1.58-1-.33-.19-3.25-1.8-3.33-1.83-.08-.03-.03-.08-.36.03-.16.05-.31.11-.42.15-.1.19-.17.28-.18.3-1.42,2.79-3.31,4.21-4.62,4.91.12.04.27.14.41.37,0,0-.14-.42.39-.65,0,0-.06.45-.03.65,0,0,.51-.59,1.47-.51,0,0-.65.09-.71.56,0,0,.48-.14.82.03l-.51.42.25.2.2-.2.28.42.39-.2.09-.23.23.31v.18c.4.01.8.03,1.19.05-.19-.22-.48-.47-.86-.52,0,0,.96,0,1.52.28,0,0-.11-.57-.34-.65,0,0,.34-.11.65.4,0,0-.14-.42.39-.65,0,0-.06.45-.03.65,0,0,.51-.59,1.47-.51,0,0-.65.08-.71.56,0,0,.48-.14.82.03l-.51.42.17.13s.09,0,.14.01l.14-.14.11.16c.19.02.39.03.57.05l.08-.21.17.23c.13.01.25.02.37.04-.18-.58-.65-.8-.65-.8.82-.09,1.49.78,1.49.78l.46-.72-.09.81c.49-.63,1.49-.6,1.49-.6-.4.06-.58.57-.58.57l.67-.06c-.18.07-.29.17-.38.29.3.04.6.08.88.13l.02-2.73s-.17-.42-.14-.67c.03-.25.17-.58.17-.58l-.19-4.3.56.36.08,4.02s.14.42.14.61-.17.36-.17.5c0,.08-.03,1.59-.05,2.85.19.03.37.06.55.09-.05-.17-.15-.39-.28-.44,0,0,.34-.11.65.39,0,0-.14-.42.39-.65,0,0-.06.45-.03.65,0,0,.51-.59,1.47-.51,0,0-.65.08-.71.56,0,0,.48-.14.82.03l-.41.35c.12.03.24.06.35.08h0s0,0,0,0c.25.06.47.12.68.18l.07-.19.2.27c1.33.4,1.83.71,1.83.71-.76,1.42-2.43,3.42-2.67,3.7.02,0,.05.01.07.02,3.73-4.11,6-9.57,6-15.56,0-12.76-10.31-23.11-23.02-23.11Z"/>
      <path class="cls-9" d="M20.36,46.68s-.08,0-.12.01c.04,0,.08,0,.12-.01Z"/>
      <path class="cls-9" d="M49.32,48.16c-.67-.27-2.2.07-2.2.07,1.43,1,1.4,2.26,1.4,2.26-1.06-1.1-2.26-1.16-3.73-1.13-.6.01-1.17.12-1.73.25-.54.36-1.09.7-1.66,1.01.43-.08.86-.17,1.26-.27.73-.19,1.41-.36,2.14-.37,1.4-.03,2.4.05,3.27.94.12.12.28.19.45.19.08,0,.15-.01.23-.04.23-.09.39-.31.4-.56,0-.05.01-.91-.66-1.83.36-.02.56.04.61.06.24.09.52.03.69-.16.17-.19.21-.47.09-.7-.04-.07-.74-1.38-2.52-1.95-.16.17-.32.34-.48.51,1.78.45,2.45,1.73,2.45,1.73Z"/>
      <path class="cls-9" d="M17.91,49.99c-.63-.04-.9-.27-1.02-.42,0,.01,0,.03,0,.04l-.22.04c0-.05-.02-.11-.04-.17l-2,.65c-1.73.53-3.06-.27-3.06-.27,1.23-.07,2.03-1,2.03-1l-2.2-1.43c1.01.04,1.96-.2,2.85-.51-.16-.16-.32-.32-.48-.49-.75.25-1.53.42-2.34.38-.29-.03-.53.16-.62.43-.09.27.02.56.25.71l1.48.97c-.27.16-.61.3-1.01.32-.27.01-.5.21-.57.47-.07.27.05.54.28.68.04.02.91.54,2.17.54.47,0,.94-.07,1.4-.21l1.75-.57c.25.22.64.42,1.28.46.32.02.79.02,1.35,0-.35-.19-.69-.4-1.03-.61-.1,0-.2,0-.28,0Z"/>
      <path class="cls-9" d="M47.25,45.94c-1.64-.28-2.59-.21-2.83-.18-.02,0-.05,0-.07,0h0s0,0,0,0c-.18-.44-.45-.77-.78-1.02-.11-.07-.24-.14-.38-.21l-.43.23s-.23-.51-.54-.54h.15c-.34-.08-.73-.17-1.2-.22-.55-.03-1.11,0-1.62.04-.44.04-1.22.12-2.19.24l-.05.05-.14-.02c-.14.02-.29.03-.43.05l-.27.17-.12-.12c-1.29.16-2.77.35-4.2.55l-.04.03s-1.47.22-2.84.41l-.02-.02c-.66.1-1.26.2-1.75.29-2.52.45-5.92.86-7.12,1-.04,0-.08,0-.12.01-.2.02-.32.04-.32.04,0,0,0,0,0,0h0c.02-.94-.44-1.5-1.02-1.68-.58-.18-1.66.08-2.54.41-.87.32-2.48.98-2.48.98,0,0-.02-.02-.03-.03-.02,0-.04.01-.06.02.16.16.32.33.48.49,1.13-.4,2.16-.93,3.11-1.19,1.62-.45,1.85.29,1.86.35.02-.06.02-.1.02-.1l.22.03s-.04.25-.21.48l.05.68c.1-.01.19-.02.29-.03l.02.22c-.1.01-.2.02-.29.03h0c1.27.01,10.62-1.52,10.62-1.52,0,0,8.93-1.46,11.12-1.23,2.2.23,2.63,1.1,2.63,1.1v.14s.21.07.21.07c0,0-.08.23-.18.57v.02c1.29-.33,2.31-.3,3.11-.1.16-.17.32-.33.48-.51-.02,0-.04-.01-.07-.02-.02.02-.03.04-.03.04Z"/>
      <path class="cls-9" d="M40.59,50.13c-1.47.13-1.63-.63-1.63-.63v-.16s-.01.03-.01.05h-.22c0-.2.1-.36.23-.49v-1.02c-.26.03-.44.05-.44.05l-.03-.22c-.89,0-2.69.18-4.23.42-1.9.3-7.83,1.1-10.32,1.43-2.3.31-4.64.47-5.75.44.34.21.68.41,1.03.61,1.31-.05,3.14-.21,4.8-.43,1.36-.18,8.24-1.1,10.34-1.43,1.37-.22,3.05-.39,3.98-.42v1.3c.11.42.61,1.14,1.93,1.14.12,0,.25,0,.38-.02.26-.02.5-.07.75-.12.57-.31,1.12-.65,1.66-1.01-.81.19-1.6.43-2.47.51Z"/>
      <path class="cls-6" d="M16.89,49.57c.11.15.39.38,1.02.42.08,0,.18,0,.28,0-.49-.3-.96-.62-1.42-.96.05.18.09.36.12.53Z"/>
      <path class="cls-6" d="M43.06,49.62c.56-.13,1.13-.24,1.73-.25,1.47-.03,2.66.03,3.73,1.13,0,0,.04-1.27-1.4-2.26,0,0,1.53-.33,2.2-.07,0,0-.67-1.29-2.45-1.73-1.15,1.19-2.42,2.26-3.81,3.19Z"/>
      <path class="cls-6" d="M13.61,48.86s-.8.93-2.03,1c0,0,1.33.8,3.06.27l2-.65c-.04-.21-.1-.43-.17-.65-.78-.59-1.52-1.23-2.21-1.91-.89.32-1.84.56-2.85.51l2.2,1.43Z"/>
      <path class="cls-6" d="M15.94,47.31h.03s-.04-.06-.04-.09c-.03-.22.28-.35.38-.39.48-.2.85-.19,1.37-.16.19,0,.41.02.67.02.64,0,.84-.4.9-.6-.02-.07-.24-.8-1.86-.35-.95.26-1.98.79-3.11,1.19.7.68,1.44,1.32,2.21,1.91-.23-.77-.53-1.51-.54-1.52Z"/>
      <path class="cls-6" d="M41.92,48.73c.55.16.99.13,1.13.01l.05-.1c-.03-.5-.73-.72-1.31-.82-.78-.13-2.14-.02-2.84.05v1.02s.04-.06.07-.08c.7-.5,2.39-.23,2.9-.09Z"/>
      <path class="cls-6" d="M21.58,48.21c-.03-.09-.06-.2-.08-.29h0c-.02.1-.05.21-.07.31l-.12.41.4-.04-.12-.38Z"/>
      <path class="cls-6" d="M24.65,47.74c0-.18-.12-.24-.31-.21-.09.01-.15.03-.18.04v.51l.17-.03c.19-.03.31-.15.31-.31Z"/>
      <path class="cls-6" d="M16.82,47.62c-.11,0-.19,0-.27-.02-.04,0-.17-.03-.29-.08.13.35.35.94.5,1.51.46.34.93.66,1.42.96,1.11.03,3.45-.13,5.75-.44,2.5-.33,8.43-1.13,10.32-1.43,1.54-.24,3.34-.42,4.23-.42h0c.09-.01,2.24-.28,3.34-.1.66.11,1.09.31,1.32.6.14-1.06.55-2.28.57-2.33h0s0-.14,0-.14c0,0-.43-.87-2.63-1.1-2.2-.23-11.12,1.23-11.12,1.23,0,0-9.36,1.53-10.62,1.53h0c-.31.02-.6.05-.86.08-.77.08-1.31.14-1.66.14ZM40.38,45.41l.29.02v.93c0,.31.13.47.32.48.21.02.33-.12.33-.43v-.93l.29.02v.91c0,.49-.25.69-.63.66-.36-.03-.6-.25-.6-.76v-.92ZM39.2,45.43h.91s0,.23,0,.23h-.62v.45h.58s0,.23,0,.23h-.58v.69h-.29s0-1.6,0-1.6ZM38.57,45.46h.29s0,1.59,0,1.59h-.29s0-1.59,0-1.59ZM37,45.57l.33-.02.41.66c.11.17.2.35.27.52h0c-.02-.21-.03-.42-.03-.66v-.56l.27-.02v1.6l-.3.02-.41-.67c-.1-.17-.21-.36-.28-.53h0c.01.21.01.42.01.68v.57l-.26.02v-1.6ZM36.38,45.63l.29-.03v1.6l-.29.03v-1.6ZM34.52,45.82l.38-.04.2.62c.06.18.1.37.14.54h0c.04-.18.1-.38.16-.58l.22-.67.37-.04.09,1.59-.28.03-.03-.65c0-.21-.02-.45-.02-.67h0c-.05.2-.12.42-.19.63l-.23.72-.22.02-.21-.66c-.06-.2-.12-.41-.16-.6h0c0,.21-.02.47-.03.69l-.03.65-.27.03.1-1.61ZM33.37,45.97l.37-.05.51,1.54-.31.04-.14-.44-.5.06-.13.47-.3.04.5-1.67ZM31.5,46.22l.29-.04v.93c0,.31.13.44.32.41.21-.03.33-.19.33-.5v-.93l.29-.04v.91c0,.49-.25.75-.63.8-.36.05-.6-.12-.6-.63v-.92ZM30.3,46.4l.51,1.53-.31.05-.14-.43-.5.07-.13.47-.29.04.5-1.68.36-.05ZM27.84,46.77l.15.7c.04.19.08.39.1.54h0c.03-.17.07-.37.11-.58l.17-.75.3-.05.16.71c.04.18.07.36.09.53h0c.03-.18.06-.37.11-.57l.16-.75.29-.05-.42,1.67-.31.05-.16-.73c-.04-.18-.07-.32-.09-.5h0c-.03.18-.06.34-.1.53l-.18.78-.31.05-.38-1.54.3-.05ZM26.29,47.02l.28-.04v.74h0s.11-.19.11-.19l.41-.63.35-.05-.54.77.57.83-.33.05-.44-.67-.14.19v.56l-.28.04v-1.6ZM25.2,47.19l.28-.04v1.6l-.28.04v-1.6ZM23.88,47.41c.11-.04.27-.07.43-.1.22-.03.38-.02.48.06.09.06.13.17.13.3,0,.21-.14.37-.28.44h0c.11.03.18.13.22.28.05.19.09.37.12.43l-.29.04s-.06-.17-.1-.36c-.04-.2-.12-.26-.28-.24l-.14.02v.66l-.28.04v-1.58ZM22.34,47.6l.29-.04v.93c0,.31.13.44.32.42.21-.03.33-.19.33-.5v-.93l.29-.04v.91c0,.49-.25.74-.63.79-.36.05-.6-.13-.6-.63v-.92ZM21.32,47.7l.37-.04.51,1.55-.31.03-.14-.44-.5.05-.14.47-.3.03.51-1.65ZM19.36,47.84l.29-.02v.64l.67-.04v-.64l.29-.02v1.6l-.29.02v-.71l-.67.04v.71l-.29.02v-1.6ZM19.04,47.9l-.07.24c-.06-.03-.17-.07-.31-.07-.18,0-.26.1-.26.2,0,.12.09.18.3.26.27.1.41.24.41.47,0,.26-.19.48-.6.49-.17,0-.34-.04-.43-.09l.06-.24c.09.05.23.1.38.1.18,0,.29-.09.29-.22,0-.12-.08-.19-.28-.26-.26-.09-.43-.23-.43-.46,0-.26.22-.46.56-.47.17,0,.3.03.38.07Z"/>
      <path class="cls-6" d="M43.32,48.65c0,.11-.04.2-.13.27-.27.21-.86.17-1.33.03-.53-.16-2.12-.37-2.7.05-.12.09-.18.2-.2.34v.16s.17.76,1.63.63c.87-.08,1.66-.32,2.47-.51,1.38-.92,2.66-1.99,3.81-3.19-.8-.2-1.82-.23-3.11.1v-.02c-.17.57-.39,1.45-.43,2.13h0Z"/>
      <path class="cls-6" d="M30.19,46.95c-.03-.09-.06-.2-.08-.29h0c-.02.1-.05.21-.07.31l-.12.41.4-.06-.12-.38Z"/>
      <path class="cls-6" d="M18.34,46.91c-.26,0-.48-.01-.68-.02-.51-.02-.84-.04-1.28.14-.23.1-.24.16-.24.16,0,.04.17.14.45.19.28.05.91-.02,1.86-.13.26-.03.55-.06.86-.09l-.05-.68c-.16.21-.44.42-.93.42Z"/>
      <path class="cls-6" d="M33.62,46.47c-.03-.09-.06-.2-.08-.29h0c-.02.1-.05.21-.07.31l-.12.41.4-.05-.12-.38Z"/>
      <path class="cls-9" d="M19.27,46.49c.17-.23.21-.47.21-.48l-.22-.03s0,.05-.02.1c0,0,0,.01,0,.01l.03.39Z"/>
      <path class="cls-9" d="M19.63,47.36l-.02-.22c-.1.01-.19.02-.29.03l.02.22c.1-.01.19-.02.29-.03Z"/>
      <path class="cls-9" d="M18.34,46.69c-.26,0-.47,0-.67-.02-.52-.03-.89-.04-1.37.16-.1.04-.4.17-.38.39,0,.03.03.05.04.07l.18-.07s.05.13.12.3c.13.05.25.07.29.08.07.01.16.02.27.02.35,0,.89-.06,1.66-.14.26-.03.55-.06.86-.09l-.02-.22c-.31.03-.6.06-.86.09-.95.11-1.58.17-1.86.13-.28-.05-.45-.15-.45-.19,0,0,.01-.06.24-.16.44-.18.77-.17,1.28-.14.2,0,.42.02.68.02.49,0,.77-.21.93-.42l-.03-.39s0,0,0-.01c-.06.2-.25.6-.9.6Z"/>
      <path class="cls-9" d="M16.64,49.48c.01.06.03.12.04.17l.22-.04s0-.03,0-.04c-.06-.08-.08-.14-.08-.14l-.16.05Z"/>
      <path class="cls-9" d="M16.48,48.83c.07.22.12.44.17.65l.16-.05s.02.06.08.14c-.03-.17-.07-.35-.12-.53-.1-.07-.19-.14-.29-.21Z"/>
      <path class="cls-9" d="M16.27,47.53c-.13-.05-.24-.12-.3-.23h-.03s.31.77.54,1.53c.1.07.19.14.29.21-.15-.57-.37-1.17-.5-1.51Z"/>
      <path class="cls-9" d="M16.27,47.53c-.07-.17-.11-.29-.12-.3l-.18.07c.06.11.17.18.3.23Z"/>
      <path class="cls-9" d="M38.49,47.71l.03.22s.18-.02.44-.05v-.15c-.09-.02-.26-.02-.47-.02Z"/>
      <path class="cls-9" d="M38.72,49.37h.22s.01-.02.01-.04v-.44c-.14.13-.23.28-.23.48Z"/>
      <path class="cls-9" d="M41.86,48.95c.47.14,1.07.19,1.33-.03.09-.07.13-.17.13-.27h-.22c0-.15.02-.29.04-.44-.22-.28-.65-.49-1.32-.6-1.11-.18-3.25.09-3.34.1h0c.21,0,.38,0,.47.02v.15c.7-.07,2.06-.18,2.84-.05.58.1,1.28.32,1.31.82l-.05.1c-.14.11-.59.15-1.13-.01-.5-.15-2.2-.42-2.9.09-.03.02-.04.05-.07.08v.44c.02-.13.08-.25.2-.34.59-.42,2.17-.21,2.7-.05Z"/>
      <path class="cls-9" d="M43.93,45.94l-.2-.07.03.64c.1-.34.17-.56.18-.57Z"/>
      <path class="cls-9" d="M43.15,48.21c.1.13.17.27.18.43,0,0,0,0,0,.01h0c.04-.69.26-1.57.43-2.13l-.03-.64h0c-.02.06-.43,1.27-.57,2.33Z"/>
      <path class="cls-9" d="M43.32,48.65s0,0,0-.01c0-.16-.08-.3-.18-.43-.02.15-.03.29-.04.43h.22Z"/>
      <path class="cls-11" d="M18.11,16.26c-.16.09-.27.19-.35.32.08-.1.2-.22.35-.32Z"/>
      <path class="cls-11" d="M17.57,23.93l.72-.28c-.22.33-.19.75-.19.75,0,0,.3-.28.47-.33.17-.06.08.67.08.67,0,0,.58-.42.72-.39.14.03.03.5-.08.83-.11.33,0,.83,0,.83,0,0,.44-.39.58-.47.14-.08.19.22.14.33-.06.11-.64.8-.64.8v.02c0,.07,0,.15,0,.23.17-.08.69-.33.86-.33.19,0-.17.42-.28.69-.11.28-.14.58-.11.67.03.08.19,0,.33-.03.14-.03.25.08.25.08,0,0-.06.12-.15.29.05.17.25.8.32.68.08-.14.25-1.72.44-2.36.19-.64.25-1.91.14-2.69-.11-.78-.25-1.81-.33-2.31-.08-.5-.64-.94-.95-1.44-.16-.26-.48-.82-.7-1.32-.17.05-.39,0-.44-.34-.05-.35.18-.63.18-.63l.1-.02s0,0,0,0l.33-.08.2-.13h0l-.2.13-.33.08s-.45.1-.78-.18c-.29-.24-.53-.77-.59-.9-.13.35-.06.7-.06.7l-.08.04s0,.03,0,.04c0,0,.97,2,1.28,2.55.3.55.3,1.55-.06,2.05-.28.39-1.19.97-1.58,1.22l.83-.19-.42.72Z"/>
      <polygon class="cls-11" points="19.56 17.66 19.56 17.66 19.56 17.66 19.56 17.66"/>
      <path class="cls-11" d="M18.56,16.13s.41.36.46.69c.03-.01.05-.03.09-.03.13,0,.23.08.23.18,0,.06-.04.1-.1.14h0s.18.2.33.56c0,0-.18-.45-.33-.55,0,0,.23-.02.58-.18,0,0,.04.03.09.08.04-.13.08-.31,0-.49-.14-.3-.5-.39-1.07-.42h0c-.1,0-.18.02-.27.03Z"/>
      <path class="cls-8" d="M25.67,24.09c-.11-.05-.39.11-.39.11v-.33s0-.17.06-.25c.06-.08.39-.56.56-.75.17-.2.19-.67.19-.67,0,0,.19.08.42.19.22.11.05.22-.08.42-.14.19-.17.33-.17.33,0,0,.11.19.28.25.17.06.5.25.61.33.11.08.42-.36.42-.36,0,0,.11-.17.08-.25-.03-.08-.28-.25-.33-.11-.05.14-.19.14-.28.14s-.22-.14-.22-.14c0,0,.05-.14.14-.25.08-.11.42-.53.53-.69.11-.17-.11-.72-.58-.92-.47-.19-.5.08-.5.08l-.19-.14s.33-.28.58-.5c.25-.22.39-.64.39-.64l.25.03.53-.42s.17.22.22.36.28.22.39.11c0,0,.01-.03.02-.04.02-.1.05-.19.09-.28,0-.13-.01-.25-.08-.32-.14-.14-.19-.36-.39-.39-.19-.03-.53.25-.53.25l-.08-.22.17-.42-.28.14s-.05-.17.03-.39c.08-.22.28-.08.28-.08,0,0,.31.14.39-.03.08-.17-.06-.44-.36-.56s-.53,0-.64.28c-.11.28-.36.5-.36.5,0,0-.31-.06-.33-.19-.03-.14-.03-.33-.03-.33l.25-.08s.03-.19.06-.28.06-.33-.03-.36c-.08-.03-.53-.03-.53-.03l-.44-.14-.33-.36-.11.33-.39-.11.14.31-.06.14c-.06.14-.19.61-.19.61l-.22.28.33.17.08.53-.25.42.44-.03-.25.42.42.06c.14.17.19.47.08.64-.11.17-.33.67-.33.67,0,0-.22.17-.58.11-.36-.06-.58-.22-.75-.67-.17-.44-.11-.58.44-1.03.56-.44.19-1.14.08-1.39-.11-.25-1.08-.56-1.3.06-.22.61.14,1.08.61,1.08s.36-.61.22-.75c-.14-.14-.39.25-.39.25-.31-.08-.19-.42-.06-.56.14-.14.61,0,.75.25.14.25.08.56-.14.81-.22.25-.55.44-.64.64-.08.19-.05.64.25,1.19.3.56,1.19.53,1.19.53,0,0,.06.36.11.56.06.19.19.39.19.56s-.25.56-.42.64c-.17.08.03.5.03.5,0,0,.17.33.17.47,0,.07,0,.16.01.24.3-.08.59-.16.87-.25,0-.09-.03-.23-.11-.27Z"/>
      <path class="cls-8" d="M35.76,24.37c0-.14.17-.47.17-.47,0,0,.19-.42.03-.5-.17-.08-.42-.47-.42-.64s.14-.36.19-.56c.06-.19.11-.56.11-.56,0,0,.89.03,1.19-.53.3-.56.33-1,.25-1.19-.08-.19-.42-.39-.64-.64-.22-.25-.28-.56-.14-.81.14-.25.61-.39.75-.25.14.14.25.47-.06.56,0,0-.25-.39-.39-.25-.14.14-.25.75.22.75s.83-.47.61-1.08c-.22-.61-1.19-.31-1.31-.06-.11.25-.47.94.08,1.39.56.44.61.58.44,1.03-.17.44-.39.61-.75.67-.36.06-.58-.11-.58-.11,0,0-.22-.5-.33-.67-.11-.17-.06-.47.08-.64l.42-.06-.25-.42.44.03-.25-.42.08-.53.33-.17-.22-.28s-.14-.47-.19-.61l-.06-.14.14-.31-.39.11-.11-.33-.33.36-.44.14s-.44,0-.53.03c-.08.03-.06.28-.03.36s.06.28.06.28l.25.08s0,.19-.03.33c-.03.14-.33.19-.33.19,0,0-.25-.22-.36-.5-.11-.28-.33-.39-.64-.28-.3.11-.44.39-.36.56.08.17.39.03.39.03,0,0,.19-.14.28.08.08.22.03.39.03.39l-.28-.14.17.42-.08.22s-.33-.28-.53-.25c-.19.03-.25.25-.39.39-.14.14-.08.53.03.64.11.11.33.03.39-.11s.22-.36.22-.36l.53.42.25-.03s.14.42.39.64c.25.22.58.5.58.5l-.19.14s-.03-.28-.5-.08c-.47.19-.69.75-.58.92.11.17.44.58.53.69.08.11.14.25.14.25,0,0-.14.14-.22.14s-.22,0-.28-.14c-.06-.14-.31.03-.33.11-.03.08.08.25.08.25,0,0,.3.44.42.36.11-.08.44-.28.61-.33.17-.06.28-.25.28-.25,0,0-.03-.14-.17-.33-.14-.19-.31-.3-.08-.42.22-.11.42-.19.42-.19,0,0,.03.47.19.67.17.19.5.67.56.75.05.08.05.25.05.25v.33s-.28-.17-.39-.11c-.08.04-.1.19-.11.27.32.11.61.19.87.26,0-.08.02-.18.02-.26Z"/>
      <path class="cls-8" d="M28.58,20c-.03.13-.05.26-.05.4,0,.97.78,1.76,1.74,1.77h0s0,0,0,0c0,0,.02,0,.02,0,.98,0,1.78-.79,1.78-1.78s-.8-1.78-1.78-1.78c-.74,0-1.38.45-1.64,1.1,0,.11-.04.21-.09.28Z"/>
      <path class="cls-8" d="M28.67,19.72c-.04.09-.06.18-.09.28.04-.06.08-.17.09-.28Z"/>
      <path class="cls-5" d="M36.49,40.62s-.05-.08-.16-.18c-.08.02-.21.06-.34.14l.5.04Z"/>
      <path class="cls-5" d="M35.7,40.99s.3-.08.6-.03c-.07-.12-.19-.29-.34-.36-.12.09-.23.21-.25.39Z"/>
      <path class="cls-5" d="M40.02,40.14v-.02c-.18-.02-.37-.03-.57-.05l.17.26.39-.2Z"/>
      <polygon class="cls-5" points="28.43 39.8 28.42 39.8 28.42 39.8 28.43 39.8"/>
      <path class="cls-5" d="M39.2,40.06s-.09,0-.14-.01l.08.07.05-.05Z"/>
      <path class="cls-5" d="M19.44,40.27s0,0-.01,0h0s0,0,.01,0Z"/>
      <path class="cls-5" d="M43.4,42.69c.12.04.28.14.43.38,0,0-.04-.14.02-.3-.13-.04-.24-.07-.3-.08-.03,0-.08,0-.14,0Z"/>
      <path class="cls-5" d="M44.19,43.08s.05-.05.14-.13c-.05-.02-.1-.04-.15-.06,0,.07,0,.13,0,.18Z"/>
      <path class="cls-5" d="M44.95,40.96s-.02-.09-.06-.21c-.18-.03-.36-.06-.55-.09,0,.04,0,.08,0,.12.21.04.43.1.61.19Z"/>
      <path class="cls-5" d="M48.11,42.15l-.34-.06-.14.14-.42-.11-.45.28-.45-.59-.06.42-.56-.48-.08.39-.54-.23-.75.41s0,.03,0,.03c0,0,.17.2.31.4.24-.12.59-.23,1.03-.19,0,0-.65.09-.71.57,0,0,.48-.14.82.03l-.51.42.25.2.2-.2.28.42.39-.2.09-.23.23.31-.03.62-.34-.06-.14.14-.42-.11-.45.28-.45-.59-.06.42-.56-.48-.08.39-.54-.23-.42.23c.12.07.25.14.36.23.48.31.66.61.71.71.04.08.06.16.07.25v.06s.03,0,.07,0c.41-.07.8-.1,1.18-.1.65,0,1.2.1,1.69.24.24-.28,1.91-2.28,2.67-3.7,0,0-.5-.31-1.83-.71l.03.04-.03.62Z"/>
      <path class="cls-5" d="M46.96,41.41l.19-.19c-.11-.03-.23-.06-.35-.08l-.09.08.25.2Z"/>
      <path class="cls-5" d="M47.83,41.44v-.03c-.2-.06-.42-.12-.67-.18l.27.41.39-.2Z"/>
      <path class="cls-5" d="M22.7,40.02c-.13,0-.26.02-.39.02.19.02.38.08.55.22,0,0-.06-.11-.17-.24Z"/>
      <path class="cls-5" d="M44.53,41.53s-.07-.12-.19-.27c0,.05,0,.1,0,.15.07.03.13.07.19.12Z"/>
      <polygon class="cls-5" points="13.59 41.16 13.59 41.16 13.59 41.16 13.59 41.16"/>
      <path class="cls-5" d="M35.95,44.38c.1-.01.2-.03.3-.04l-.28-.28-.03.31Z"/>
      <path class="cls-5" d="M17.21,45.13c.4-.11.76-.17,1.07-.17,1.08,0,1.49.63,1.57,1.01l.06.76s0,0,0,0c.1,0,.21-.02.32-.04.04,0,.08,0,.12-.01,2.06-.25,6.42-.93,8.82-1.32l-.34-.21,1.05.07-.96-.67,1.37.26-.32-.64.57.32s.22-.51.54-.6c0,0-.16.54-.06.54.09,0,.66-.36,1.39-.41.08,0,.14,0,.14,0-.05,0-.09,0-.14,0-.21.02-.58.13-.63.56l1.02-.03-.54.33c.5-.07,1.05-.15,1.62-.23-.07-.1-.27-.37-.52-.37h.64s-.33-.4-1.11-.38c0,0,.76-.29,1.31.04,0,0-.45-.62-1.12-.65,0,0,.94-.06,1.51.15,0,0-.14-.47-.37-.52,0,0,.33-.12.66.29,0,0-.16-.35.35-.57,0,0-.03.38,0,.55,0,0,.47-.53,1.41-.52,0,0-.63.11-.66.52,0,0,.46-.15.8-.03l-.48.39.26.15.18-.18.3.34.38-.19.07-.19.24.25v.45c1.45-.15,2.72-.23,3.39-.16,0,0,0,0,.01,0,.51.02,1.01.1,1.46.25l.24.02s-.31-.51-1.1-.54c0,0,.79-.28,1.33.14,0,0-.42-.76-1.1-.85,0,0,.96,0,1.52.28,0,0-.1-.49-.3-.62-.36.03-.84.07-.56-.13.39-.28,1.17-.22,1.22-.36.02-.04.03-.13.04-.22-.07-.07-.16-.12-.26-.13l.26.02c0-.12,0-.24,0-.3-.17-.1-.41-.19-.72-.2,0,0,.34-.12.73-.08v-.42c-.14-.1-.31-.18-.5-.2,0,0,.22,0,.5.03v-.12c-.28-.04-.57-.09-.88-.13-.28.41-.08,1.01-.08,1.01l-.27-.21-.12.39-.46-.54-.43.45-.15-.48-.34.3-.15-.36-.46.3c.15-.48.13-.85.04-1.13-.12-.01-.25-.02-.37-.04l.06.08-.03.62-.34-.06-.14.14-.42-.11-.45.28-.45-.59-.06.42-.56-.48-.08.4-.53-.23-.76.42-.48.4.25.2.2-.2.28.42.4-.2.08-.23.23.31-.03.62-.34-.06-.14.14-.42-.11-.45.28-.45-.59-.06.42-.56-.48-.08.39-.54-.23-.87.48s-.23-.51-.54-.53l.65.05s-.31-.51-1.1-.54c0,0,.79-.28,1.33.14,0,0-.42-.76-1.1-.85,0,0,.96,0,1.52.28,0,0-.11-.56-.34-.65,0,0,.34-.11.65.39,0,0-.14-.42.39-.65,0,0-.06.45-.03.65,0,0,.48-.54,1.37-.51-.17-.15-.46-.32-.92-.34,0,0,.79-.28,1.33.14,0,0-.09-.16-.24-.33-.39-.02-.79-.03-1.2-.05l-.02.44-.34-.06-.14.14-.42-.11-.45.28-.45-.59-.06.42-.56-.48-.08.39-.54-.23-.87.48s-.23-.51-.54-.54l.65.06s-.09-.14-.29-.28c-.23,0-.44,0-.68,0,0,0-.19,0-.52,0-.65.38-.35,1.3-.35,1.3l-.29-.22-.13.42-.48-.57-.45.48-.16-.51-.35.32-.16-.38-.48.32c.14-.45.14-.81.07-1.09-.63.02-1.34.04-2.08.07l-.06.05.25.2.2-.2.28.42.39-.2.08-.23.23.31-.03.62-.34-.06-.14.14-.42-.11-.45.28-.45-.59-.06.42-.56-.48-.08.39-.54-.23-.87.48s-.23-.51-.54-.53l.65.05s-.31-.51-1.1-.54c0,0,.04-.01.1-.03-.41.03-.82.06-1.23.09-.02.04-.03.07-.03.07l.7-.06c-.83.32-.48,1.37-.48,1.37l-.29-.22-.13.41-.48-.57-.45.48-.16-.51-.35.32-.16-.38-.48.32c.12-.4.14-.73.1-1-.33.04-.66.08-.98.12l.18.25-.03.62-.34-.06-.14.14-.24-.06v.12s0,.56.06.69c.06.14.83.08,1.22.36.03.02.04.04.05.05.2.04.4.09.56.17,0,0-.11-.52-.33-.59,0,0,.33-.1.63.36,0,0-.14-.39.39-.59,0,0-.06.41-.03.59,0,0,.5-.54,1.43-.47,0,0-.63.08-.69.52,0,0,.47-.13.8.02l-.5.39.25.18.19-.18.28.39.39-.18.08-.21.22.28-.03.57-.33-.05-.14.13-.41-.1-.44.26-.44-.54-.06.39-.55-.44-.08.36-.52-.21-.85.44s-.22-.47-.52-.49l.63.05s-.3-.46-1.07-.49c0,0,.77-.26,1.29.13,0,0-.22-.37-.6-.6-.21-.02-.42-.04-.5-.03-.19.03-.89.28-1.22.44-.33.17.44-.78.44-.78,0,0,0-.36-.02-.86l-.23.14-.45-.59-.06.42-.56-.48-.08.39-.54-.22-.87.48s-.1-.23-.26-.39c-1.06.28-1.92.62-2.45,1.02,0,0,1.59,2.63,3.08,4.14.53-.18,1.04-.39,1.55-.6.63-.26,1.22-.51,1.81-.67ZM40.02,42.36l.45-.72-.09.8c.48-.63,1.47-.6,1.47-.6-.39.06-.57.57-.57.57l.66-.06c-.78.3-.45,1.28-.45,1.28l-.27-.21-.12.39-.45-.53-.42.45-.15-.48-.33.3-.15-.36-.45.3c.45-1.46-.6-1.9-.6-1.9.81-.09,1.46.77,1.46.77ZM29.35,42.67s-.41-.7-1.07-.77c0,0,.94,0,1.49.26,0,0-.11-.52-.33-.59,0,0,.33-.11.64.36,0,0-.14-.39.39-.6,0,0-.06.42-.03.6,0,0,.5-.54,1.43-.47,0,0-.63.08-.69.52,0,0,.47-.13.8.02l-.5.39.25.18.19-.18.27.39.39-.18.08-.21.22.28-.03.57-.33-.05-.14.13-.41-.1-.44.26-.44-.54-.06.39-.55-.44-.08.36-.52-.21-.85.44s-.22-.46-.52-.49l.63.05s-.3-.46-1.07-.49c0,0,.77-.26,1.29.13ZM25.19,43.56s-.12-.58-.37-.67c0,0,.37-.12.71.41,0,0-.15-.44.43-.67,0,0-.06.47-.03.67,0,0,.55-.61,1.59-.53,0,0-.71.09-.77.59,0,0,.52-.15.89.03l-.55.44.27.2.21-.2.31.44.43-.21.09-.23.24.32-.03.64-.37-.06-.15.15-.46-.12-.49.29-.49-.61-.06.44-.61-.5-.09.41-.58-.23-.95.5s-.24-.52-.58-.55l.7.06s-.34-.53-1.19-.56c0,0,.86-.29,1.44.15,0,0-.46-.79-1.19-.88,0,0,1.04,0,1.65.29ZM21.62,42.74c.42-1.37-.56-1.79-.56-1.79.76-.08,1.38.73,1.38.73l.42-.68-.08.76c.45-.59,1.38-.56,1.38-.56-.37.06-.54.53-.54.53l.62-.06c-.73.28-.42,1.21-.42,1.21l-.25-.2-.11.36-.42-.51-.39.42-.14-.45-.31.28-.14-.34-.42.28Z"/>
      <path class="cls-5" d="M35.31,44.39l-.54-.16-.72.39c.59-.08,1.21-.16,1.83-.24l-.52-.33-.06.34Z"/>
      <path class="cls-5" d="M16.72,40.88l.39-.2.06-.16c-.17.02-.34.04-.5.07v.21s.05.07.05.07Z"/>
      <path class="cls-5" d="M37.77,44.17v.07s-.33-.03-.33-.03l-.08.08c.97-.12,1.75-.2,2.19-.24.52-.04,1.07-.06,1.62-.04,0,0,0,0-.01,0-.67-.07-1.94,0-3.39.16Z"/>
      <path class="cls-5" d="M16.35,45.46c.87-.32,1.96-.58,2.54-.41.58.18,1.04.74,1.02,1.68l-.06-.76c-.08-.38-.49-1.01-1.57-1.01-.32,0-.68.06-1.07.17-.59.16-1.18.41-1.81.67-.51.21-1.02.43-1.55.6,0,0,.02.02.03.03,0,0,1.61-.66,2.48-.98Z"/>
      <path class="cls-5" d="M20.36,46.68c1.2-.14,4.6-.55,7.12-1,.49-.09,1.09-.19,1.75-.29l-.05-.03c-2.39.39-6.76,1.07-8.82,1.32Z"/>
      <path class="cls-5" d="M19.91,46.73s.12-.01.32-.04c-.11.01-.23.03-.32.04,0,0,0,0,0,0Z"/>
      <path class="cls-5" d="M35.95,44.38v.05s-.07-.04-.07-.04c-.62.08-1.24.16-1.83.24l-.12.06s-.02-.02-.03-.04c-.58.08-1.12.16-1.62.23l-.15.09c1.44-.2,2.92-.39,4.2-.55l-.08-.08c-.1.01-.2.02-.3.04Z"/>
      <path class="cls-5" d="M36.72,44.37c.15-.02.29-.04.43-.05l-.28-.05-.16.1Z"/>
      <path class="cls-5" d="M44.28,45.45c-.05-.1-.23-.4-.71-.71.33.25.6.58.78,1.02h0s0-.06,0-.06c0-.09-.03-.17-.07-.25Z"/>
      <path class="cls-5" d="M44.41,45.76c.25-.03,1.19-.1,2.83.18,0,0,.01-.01.03-.04-.48-.15-1.04-.24-1.69-.24-.38,0-.77.03-1.18.1Z"/>
      <path class="cls-7" d="M30.43,38.64c.42-.12,3.69-1.15,5.8-5.31.01-.02.17-.25.37-.77-.16-.16-3.99-4.1-6.08-9.73-.08-.05-.15-.09-.23-.13-.06.04-.15.1-.25.16-1.76,4.96-5.94,9.73-5.94,9.73-.04-.08-.08-.17-.11-.25,0,0,0,.01-.01.02.2.53.44,1.06.73,1.59.02.04,2.3,3.95,5.72,4.69ZM26.66,32.13l.08-.53s.01,0,.02,0c.14-.58.42-1.11.79-1.55,0,0-.02,0-.02,0l.37-.4s.02.01.03.02c.64-.55,1.47-.9,2.39-.9s1.72.34,2.36.88c0,0,.01-.01.01-.01l.16.16s.07.06.1.09l.16.15s-.02.01-.02.01c.12.14.24.29.34.45,0,0,0,0,0,0l.26.47s0,0,0,0c.09.21.16.43.21.65,0,0,.01,0,.02,0l.08.55s-.02,0-.03,0c0,.09.03.17.03.26,0,.07-.02.14-.02.21.01,0,.03,0,.04,0l-.08.38c-.04.25-.1.49-.19.73h.04s-.22.65-.43.82c-.03.03-.08.05-.11.07-.31.41-.7.74-1.16.99-.2.16-.32.18-.56.25,0,0,0,0,0,0-.38.13-.77.22-1.2.22s-.82-.09-1.19-.21c0,0,0,0,0,0-.03-.01-.06-.02-.1-.04-.06-.02-.12-.04-.18-.07-.04-.02-.08-.04-.12-.07-.51-.25-.96-.61-1.3-1.06,0,0-.02-.01-.03-.02-.18-.18-.31-.47-.38-.64-.16-.34-.27-.71-.31-1.11l-.04-.26s.01,0,.02,0c0-.07-.02-.13-.02-.2,0-.1.02-.2.03-.3,0,0-.02,0-.03,0Z"/>
      <path class="cls-6" d="M23.63,25.33c3.38-.67,5.45-1.86,6.16-2.33.06-.14.09-.23.09-.23l.37-.41.26.15c.05.14.11.27.16.4.12.08.33.2.59.34,3.27,1.78,5.48,2.09,6.03,2.14,0-.15-.02-.3-.03-.45-.25-.03-.77-.11-1.52-.31,0,.06-.01.1-.01.1,0,0-.3-.06-.47-.11-.17-.06-.39-.2-.39-.2,0,0,0-.03,0-.06-1.17-.39-2.69-1.04-4.47-2.12l-.12-.07s0,0,0,0l-.12.08s-1.77,1.27-4.38,2.1c0,.04,0,.07,0,.07,0,0-.22.14-.39.2-.17.05-.47.11-.47.11,0,0,0-.05-.01-.12-.49.13-1.01.24-1.54.32-.02.11-.05.26-.07.46.12-.02.23-.04.34-.05Z"/>
      <path class="cls-6" d="M25.4,24.62c.17-.06.39-.2.39-.2,0,0,0-.03,0-.07-.28.09-.57.17-.87.25,0,.07.01.12.01.12,0,0,.31-.06.47-.11Z"/>
      <path class="cls-6" d="M35.26,24.62c.17.05.47.11.47.11,0,0,0-.04.01-.1-.26-.07-.55-.16-.87-.26,0,.03,0,.06,0,.06,0,0,.22.14.39.2Z"/>
      <polygon class="cls-6" points="30.28 22.17 30.29 22.17 30.28 22.17 30.28 22.17"/>
      <path class="cls-6" d="M30.05,22.87c.1-.07.19-.12.25-.16.08.05.15.09.23.13,0,0,0-.01,0-.02,0,0,.05.03.15.09-.05-.13-.11-.26-.16-.4l-.26-.15-.37.41s-.03.09-.09.23c.18-.12.28-.2.28-.2,0,.02-.02.04-.02.06Z"/>
      <path class="cls-6" d="M30.44,38.87c-4.48-.89-6.66-6.29-6.66-6.29.07-.07.14-.15.21-.22-.03-.07-.05-.14-.07-.22-1.18-2.87-.66-6.74-.66-6.74.01,0,.03,0,.04,0,0,0,0,0,0-.01-.03,0-.05,0-.08.01l-.06-.44c.07,0,.14-.02.21-.03.02-.1.03-.17.04-.18l-.43-.1s-.64,2.84.09,6.14c.03,0,.07.02.09.08.03.08.04.23.04.43.11.44.25.88.42,1.32.18.31.4.72.4.72,0,0-.05-.02-.12-.05.13.29.28.59.44.88.1.17,2.42,4.16,6.07,4.92h.05s.05,0,.05,0c.03,0,.2-.05.46-.14-.11-.06-.23-.1-.36-.12-.09.03-.15.05-.15.05Z"/>
      <path class="cls-6" d="M37.43,25.4s-.06,0-.14,0c.01.19.03.39.03.58.08,1.18.17,3.99-.63,6.39.04.04.07.08.07.08-1.49,4.53-5.37,6.11-6.17,6.39.06,0,.29,0,.57.04.2-.08.43-.18.69-.32-.03-.04-.07-.08-.11-.09,0,0,.1-.03.24.02,1.31-.7,3.2-2.12,4.62-4.91.01-.02.08-.11.18-.3-.12.04-.19.07-.19.07,0,0,.36-.67.53-.94.01-.02.03-.04.04-.06.09-.26.17-.58.25-.94,0-.26,0-.43.04-.53.02-.05.05-.07.07-.08.24-1.37.37-3.33.16-6.07l-.44.04c0,.07,0,.12.01.19.11.01.18.02.18.02l-.02.44Z"/>
      <path class="cls-6" d="M36.77,32.43s-.03-.03-.07-.08c-.02.07-.05.15-.07.22,0,0-.01-.01-.01-.02-.2.52-.36.75-.37.77-2.12,4.16-5.38,5.2-5.8,5.31-3.42-.74-5.7-4.65-5.72-4.69-.29-.53-.53-1.06-.73-1.59-.07.07-.14.15-.21.22,0,0,2.18,5.41,6.66,6.29,0,0,.06-.02.15-.05,0,0-.01,0-.02,0,0,0,.02,0,.03,0,.8-.28,4.68-1.85,6.17-6.39Z"/>
      <path class="cls-6" d="M23.21,25.4s.05,0,.08-.01c.03-.2.05-.35.07-.46-.07.01-.14.02-.21.03l.06.44Z"/>
      <path class="cls-6" d="M37.43,25.4l.02-.44s-.07,0-.18-.02c.01.15.02.3.03.45.07,0,.12,0,.14,0Z"/>
      <path d="M18.1,48.3c0,.23.17.37.43.46.2.07.28.14.28.26,0,.13-.1.22-.29.22-.15,0-.29-.04-.38-.1l-.06.24c.09.05.26.1.43.09.41,0,.6-.23.6-.49,0-.23-.13-.37-.41-.47-.21-.08-.3-.14-.3-.26,0-.09.08-.19.26-.2.15,0,.26.04.31.07l.07-.24c-.08-.04-.21-.08-.38-.07-.34,0-.56.21-.56.47Z"/>
      <polygon points="19.65 48.72 20.31 48.68 20.31 49.39 20.6 49.37 20.6 47.77 20.31 47.78 20.31 48.43 19.65 48.46 19.65 47.82 19.36 47.84 19.36 49.44 19.65 49.42 19.65 48.72"/>
      <path d="M21.25,48.86l.5-.05.14.44.31-.03-.51-1.55-.37.04-.51,1.65.3-.03.14-.47ZM21.42,48.22c.03-.1.05-.21.07-.31h0c.02.09.05.2.08.29l.12.38-.4.04.12-.41Z"/>
      <path d="M22.94,49.15c.38-.05.63-.3.63-.79v-.91l-.29.04v.93c0,.31-.12.47-.33.5-.19.02-.32-.1-.32-.42v-.93l-.29.04v.92c0,.5.24.68.6.63Z"/>
      <path d="M24.17,48.29l.14-.02c.16-.02.24.04.28.24.04.19.08.32.1.36l.29-.04c-.03-.06-.07-.24-.12-.43-.04-.15-.11-.25-.22-.28h0c.15-.08.28-.24.28-.45,0-.14-.05-.24-.13-.3-.1-.07-.26-.09-.48-.06-.16.02-.32.06-.43.1v1.58l.28-.04v-.66ZM24.17,47.57s.09-.03.18-.04c.19-.03.31.03.31.21,0,.16-.12.28-.31.31l-.17.03v-.51Z"/>
      <polygon points="25.49 47.15 25.2 47.19 25.2 48.79 25.49 48.75 25.49 47.15"/>
      <polygon points="26.57 48.01 26.71 47.82 27.15 48.49 27.48 48.43 26.91 47.6 27.45 46.84 27.1 46.89 26.69 47.52 26.57 47.71 26.57 47.71 26.57 46.98 26.29 47.02 26.29 48.62 26.57 48.58 26.57 48.01"/>
      <path d="M28.23,48.31l.18-.78c.05-.19.08-.35.1-.52h0c.02.17.05.32.09.49l.16.73.31-.05.42-1.67-.29.05-.16.75c-.04.2-.08.39-.11.57h0c-.02-.17-.06-.34-.09-.53l-.16-.71-.3.05-.17.75c-.04.21-.09.41-.11.58h0c-.03-.15-.06-.35-.1-.54l-.15-.7-.3.05.38,1.54.31-.05Z"/>
      <path d="M29.73,48.09l.13-.47.5-.07.14.43.31-.05-.51-1.53-.36.05-.5,1.68.29-.04ZM30.03,46.97c.03-.1.05-.21.07-.31h0c.02.09.05.19.08.29l.12.38-.4.06.12-.41Z"/>
      <path d="M32.1,47.77c.38-.05.63-.31.63-.8v-.91l-.29.04v.93c0,.31-.12.48-.33.5-.19.03-.32-.1-.32-.41v-.93l-.29.04v.92c0,.5.24.68.6.63Z"/>
      <path d="M33.3,47.13l.5-.06.14.44.31-.04-.51-1.54-.37.05-.5,1.67.3-.04.13-.47ZM33.47,46.49c.03-.1.05-.21.07-.31h0c.02.09.05.2.08.29l.12.38-.4.05.12-.41Z"/>
      <path d="M34.72,46.76c.01-.22.02-.48.03-.69h0c.04.19.1.41.16.6l.21.66.22-.02.23-.72c.07-.21.13-.43.19-.63h0c0,.22,0,.46.02.67l.03.65.28-.03-.09-1.59-.37.04-.22.67c-.06.19-.11.4-.16.58h0c-.04-.17-.09-.36-.14-.54l-.2-.62-.38.04-.1,1.61.27-.03.03-.65Z"/>
      <polygon points="36.67 45.6 36.38 45.63 36.38 47.23 36.67 47.2 36.67 45.6"/>
      <path d="M37.26,46.57c0-.26,0-.48-.01-.68h0c.08.17.18.36.28.53l.41.67.3-.02v-1.6l-.27.02v.56c0,.24,0,.45.03.66h0c-.07-.17-.16-.35-.27-.52l-.41-.66-.33.02v1.6l.26-.02v-.57Z"/>
      <polygon points="38.86 45.44 38.57 45.46 38.57 47.06 38.86 47.05 38.86 45.44"/>
      <polygon points="39.48 46.35 40.06 46.34 40.06 46.1 39.48 46.11 39.48 45.66 40.11 45.65 40.11 45.41 39.2 45.43 39.2 47.03 39.48 47.02 39.48 46.35"/>
      <path d="M40.98,47.08c.38.03.63-.17.63-.66v-.91l-.29-.02v.93c0,.31-.12.45-.33.43-.19-.02-.32-.17-.32-.48v-.93l-.29-.02v.92c0,.5.24.73.6.76Z"/>
      <path class="cls-5" d="M18.83,16.09h0l.1-2.25-.43.45-.48-.73.05.78-.68-.73.35,1.11-.55-.53.1.81-.83-.76.45,1.03-.73-.45.33.76-.91-.23.78.56-1.14.02,1.06.45-.86.15.81.2-.48.43.71-.08-.56.58s.86-.33.86-.25.05.43.05.43l.67-.34c-.14-1.29.76-1.46,1.32-1.43Z"/>
      <path class="cls-5" d="M17.66,16.78s-.01-.03-.01-.03c0,0,.04-.07.12-.17.08-.12.2-.23.35-.32.12-.08.27-.14.44-.14,0,0,0,0,0,0,.09-.01.16-.03.27-.03h0s0,0,0,0c-.56-.02-1.46.14-1.32,1.43l.08-.04s-.06-.35.06-.7Z"/>
      <path class="cls-2" d="M19.56,17.66c.25-.05,1.67-.07,1.67-.07,0-.3-.05-.2-.61-.28-.38-.05-.61-.2-.72-.3-.03.08-.06.15-.06.15l-.28.51Z"/>
      <path class="cls-2" d="M19.81,16.93c-.35.15-.58.18-.58.18.15.1.33.55.33.55,0,0,0,0,0,0,0,0,0,0,0,0l.28-.51s.03-.06.06-.15c-.05-.04-.09-.08-.09-.08Z"/>
      <path class="cls-5" d="M19.2,18.85s.03,0,.04,0c.18-.08.08-.25.03-.35-.05-.1-.23-.5-.03-.66l-.21.03c-.15.12-.03.53.17.98Z"/>
      <path class="cls-5" d="M18.75,18.52c.05.33.27.39.44.34-.2-.45-.32-.86-.17-.98l-.1.02s-.23.28-.18.63Z"/>
      <polygon class="cls-9" points="19.56 17.66 19.56 17.66 19.56 17.66 19.56 17.66"/>
      <path class="cls-9" d="M19.56,17.66h0c-.15-.35-.33-.55-.33-.55h0s-.08.04-.13.04c-.12,0-.23-.08-.23-.18,0-.07.06-.12.14-.15-.05-.33-.43-.66-.46-.69-.18.03-.33.07-.45.14-.16.1-.27.22-.35.32-.04.06-.08.13-.1.2.06.13.31.66.59.9.33.28.78.18.78.18l.33-.08.2-.13h0s0,0,0,0h0Z"/>
      <path class="cls-9" d="M18.55,16.12c-.17,0-.32.07-.44.14.12-.07.27-.11.45-.14,0,0,0,0,0,0Z"/>
      <path class="cls-9" d="M17.64,16.75s0,.01.01.03c.02-.07.06-.13.1-.2-.07.09-.12.17-.12.17Z"/>
      <polygon class="cls-9" points="19.56 17.66 19.56 17.66 19.56 17.66 19.56 17.66"/>
      <path class="cls-2" d="M16.72,30.64c.09,0,.16,0,.16,0h0s0,0,0,0c.01-.17.02-.26.03-.31-.02.03-.05.05-.06.09-.05.11-.09.17-.13.22Z"/>
      <path class="cls-2" d="M13,32.42c-.05,0-.11.01-.16,0,0,0,0,0,0,0h0c-.02.12.1.05.16,0Z"/>
      <path class="cls-2" d="M16.94,30.28s.11-.03.23-.08c.03-.01.06,0,.08,0-.09-.04-.22-.02-.32.08Z"/>
      <path class="cls-2" d="M19.59,28.26c-.22-.03.06-1,.08-1.08.02-.07-.2-.05-.3-.14,0,.12,0,.25,0,.39,0,.67-.44,1.53-.67,1.94-.2.38-1.12,1.06-1.27,1.17.04.21.05.44.05.44,0,0,.04.33.1.8.09-.07.18-.14.26-.22.56-.53,1.94-2.3,2.17-2.75.1-.2.19-.37.26-.51,0-.03-.01-.04-.01-.04,0,0-.44.03-.67,0Z"/>
      <path class="cls-2" d="M16.65,31.14c-.19.19-.58.83-.92,1.11-.33.28-.75.14-.97.36-.22.22-1.03.47-1.19.5-.17.03-.78.42-.86.47-.08.06-.22.14-.44-.06-.22-.19-.42.44-.42.44,0,0-.22,0-.39-.11-.17-.11-.25-.03-.33-.28-.08-.25-.14-.86-.14-.86l.05-.08c-.11.05-.11.09-.22.16-.17.11-.03-.47.03-.78.06-.31.19-1.67.69-2.5.5-.83,1.17-1.44,1.17-1.44,0,0,.31.17.39.22.08.06.22-.05.28-.14.06-.08.39-.17.56-.17s.42.44.5.53c.08.08,0,0,.03-.16.03-.17.14-.58.22-.69.08-.11.36.03.36.14s.25-.11.25-.11l.39.25s.56-.78.75-.91c.19-.14.47.33.47.33,0,0,.17-.22.25-.3.08-.08.17.03.25.06.08.03,0,0,.17-.11.17-.11.22.08.22.08,0,0,.47-.61.56-.69.08-.08.33.28.33.28,0,0,.19-.19.47-.28.14-.04.19.05.21.22.05-.19.12-.39.12-.39l-1.11-1.08-1.42-1.64s.08-.05.19-.12h-.03s-1.47.87-2.39,1.42c-.92.55-2.36,1.8-2.94,2.75-.58.94-1.03,1.89-1.22,3.72-.19,1.83.33,4.61.61,4.5.28-.11.94-1.06.94-1.06,0,0,.11.36.42.25.31-.11.94-.83.94-.83,0,0,.28.14.72-.11.44-.25,1.5-1.05,1.83-1.28.2-.13.61-.35,1.02-.61-.06-.33-.16-.87-.18-1.25-.04.05-.11.12-.23.25ZM14.65,25.26c.97-.56,2.36-1.3,2.36-1.3-.17.83-2.83,2.44-3.53,2.55-.69.11.19-.69,1.17-1.25Z"/>
      <path class="cls-2" d="M17.28,30.21s.08.09.11.17c-.01-.05-.03-.11-.07-.15-.01-.01-.03-.01-.04-.02Z"/>
      <path class="cls-2" d="M18.37,25.15l1.11,1.08s-.07.19-.12.39c0,.02,0,.05,0,.07v-.02s.59-.69.64-.8c.06-.11,0-.42-.14-.33-.14.08-.58.47-.58.47,0,0-.11-.5,0-.83.11-.33.22-.81.08-.83-.14-.03-.72.39-.72.39,0,0,.08-.72-.08-.67-.17.06-.47.33-.47.33,0,0-.03-.42.19-.75l-.72.28.42-.72-.83.19c-.11.07-.19.12-.19.12l1.42,1.64Z"/>
      <path class="cls-2" d="M20.18,27.92c-.14.03-.31.11-.33.03-.03-.08,0-.39.11-.67.11-.28.47-.69.28-.69-.16,0-.69.25-.86.33,0,.04,0,.07,0,.11.11.09.32.07.3.14-.03.08-.31,1.05-.08,1.08.22.03.67,0,.67,0,0,0,0,.02.01.04.09-.17.15-.29.15-.29,0,0-.11-.11-.25-.08Z"/>
      <path class="cls-5" d="M16.72,30.64c-.05.05-.1.08-.18.15-.14.11-.17.03-.33.19-.17.17-.22.22-.61.53-.39.3-.39-.06-.75-.08-.36-.03-.53.25-.81.5-.24.22-.66.51-1.04.5-.06.05-.18.12-.16,0h0c-.42-.11-.14-.58-.31-.5-.17.08-.5.56-1.08.64-.23.03-.35.06-.42.09l-.05.08s.06.61.14.86c.08.25.17.17.33.28.17.11.39.11.39.11,0,0,.19-.64.42-.44.22.19.36.11.44.06.08-.06.69-.44.86-.47.17-.03.97-.28,1.19-.5.22-.22.64-.08.97-.36.33-.28.72-.92.92-1.11.12-.12.19-.2.23-.25,0-.1-.01-.19,0-.25h0s-.07,0-.16,0Z"/>
      <polygon class="cls-9" points="19.32 26.95 19.32 26.95 19.32 26.95 19.32 26.95"/>
      <path class="cls-9" d="M19.32,26.95s.03-.01.06-.03c0-.09,0-.17,0-.23l-.05.26s0,0,0,0Z"/>
      <path class="cls-9" d="M18.7,29.37c.22-.42.67-1.28.67-1.94,0-.14,0-.27,0-.39-.03-.02-.05-.05-.06-.09h0s0,0,0,0h0c-.01-.08.01-.21.05-.33-.02-.17-.08-.26-.21-.22-.28.08-.47.28-.47.28,0,0-.25-.36-.33-.28-.08.08-.56.69-.56.69,0,0-.05-.19-.22-.08-.17.11-.08.14-.17.11-.08-.03-.17-.14-.25-.06-.08.08-.25.3-.25.3,0,0-.28-.47-.47-.33-.19.14-.75.91-.75.91l-.39-.25s-.25.22-.25.11-.28-.25-.36-.14c-.08.11-.19.53-.22.69-.03.16.06.25-.03.16-.08-.08-.33-.53-.5-.53s-.5.08-.56.17c-.06.08-.19.2-.28.14-.08-.05-.39-.22-.39-.22,0,0-.67.61-1.17,1.44-.5.83-.64,2.19-.69,2.5-.06.3-.19.89-.03.78.1-.07.1-.11.22-.16l.34-.53c.03-.11.31.36.31.36,0,0,.86-.8,1.03-.94.17-.14.17.72.14.89,0,0,0,0,0,0,.05.01.1,0,.16,0,.02-.02.04-.03.04-.03,0,0,1.61-1.14,1.8-1.22.19-.08.61.42.61.42,0,0,.64-.67.86-.83.13-.09.28-.12.4-.12.04-.04.08-.1.13-.22.02-.04.04-.06.06-.09,0-.03.02-.04.04-.05.1-.1.23-.12.32-.08,0,0,.01,0,.02,0,.01,0,.03,0,.04.02.04.04.06.09.07.15.02.05.03.1.05.16.16-.11,1.07-.79,1.27-1.17Z"/>
      <path class="cls-9" d="M19.32,26.95s.03.06.06.09c0-.04,0-.08,0-.11-.03.02-.06.03-.06.03h0Z"/>
      <path class="cls-9" d="M19.32,26.95l.05-.26s0-.05,0-.07c-.03.13-.06.26-.05.33Z"/>
      <path class="cls-9" d="M12.54,31.92c.17-.08-.11.39.31.5.03-.17.03-1.02-.14-.89-.17.14-1.03.94-1.03.94,0,0-.28-.47-.31-.36l-.34.53c.07-.03.19-.06.42-.09.58-.08.92-.55,1.08-.64Z"/>
      <path class="cls-9" d="M14.04,31.92c.28-.25.44-.53.81-.5.36.03.36.39.75.08.39-.31.44-.36.61-.53.17-.17.19-.08.33-.19.08-.06.13-.09.18-.15-.12,0-.27.02-.4.12-.22.17-.86.83-.86.83,0,0-.42-.5-.61-.42-.19.08-1.8,1.22-1.8,1.22,0,0-.02.01-.04.03.38,0,.79-.28,1.04-.5Z"/>
      <path class="cls-2" d="M23.48,32.39c-.17-.28-.25-.17-.28-.64-.01-.19-.01-.33-.02-.46-.04-.17-.09-.34-.13-.51-.05,0-.09.08-.11.27-.03.33.03,1.36-.14,1.61-.17.25-.64.41-.64.41l-3.78,2.06s-.31.08-.39-.31c-.06-.27-.29-2.01-.42-3.06-.17.13-.34.25-.52.37.03.18.06.3.06.3,0,0,.5,2.58.5,2.83s-.39.36-.11.56c.28.19.33.25.61.08.28-.17,1.25-.81,1.58-1,.33-.19,3.25-1.8,3.33-1.83.08-.03.03-.08.36.03.2.07.38.13.49.17-.1-.23-.19-.45-.28-.68-.05-.08-.09-.16-.13-.22Z"/>
      <path class="cls-2" d="M23.61,32.61c.09.23.18.45.28.68.07.03.12.05.12.05,0,0-.22-.41-.4-.72Z"/>
      <path class="cls-2" d="M23.15,30.87c-.02-.06-.06-.08-.09-.08.04.17.08.34.13.51,0-.2,0-.34-.04-.43Z"/>
      <path class="cls-2" d="M17.48,30.98s0-.23-.05-.44c-.01.01-.03.02-.03.02,0,0,0-.09-.01-.19-.03-.08-.06-.14-.11-.17,0,0-.01,0-.02,0-.03-.01-.05-.01-.08,0-.13.05-.19.05-.23.08-.01.01-.02.04-.04.05-.02.05-.02.14-.03.31h0s.06.19.06.19c0,0-.02.03-.05.06.03.38.12.91.18,1.25.18-.11.36-.24.52-.37-.06-.47-.1-.8-.1-.8Z"/>
      <path class="cls-2" d="M16.93,30.84l-.06-.19c0,.07,0,.16,0,.25.02-.03.05-.06.05-.06Z"/>
      <path class="cls-2" d="M16.91,30.33s.02-.04.04-.05c-.02.01-.03.03-.04.05Z"/>
      <path class="cls-2" d="M17.26,30.2s.01,0,.02,0c0,0-.01,0-.02,0Z"/>
      <path class="cls-2" d="M17.4,30.56s.02-.01.03-.02c-.01-.06-.03-.11-.05-.16.02.09.01.19.01.19Z"/>
      <path class="cls-11" d="M13.49,26.51c.69-.11,3.36-1.72,3.53-2.55,0,0-1.39.75-2.36,1.3-.97.56-1.86,1.36-1.17,1.25Z"/>
      <path class="cls-1" d="M16.26,40.64h-.01s-.25-.18-.25-.18l.26-.22c0-.09,0-.18,0-.28-.28-.04-.57.04-.57.04.04-.33.36-.47.56-.53,0-.01,0-.02,0-.04-.86-.01-1.32.51-1.32.51-.03-.2.03-.65.03-.65-.54.23-.4.65-.4.65-.31-.51-.65-.4-.65-.4.23.08.34.65.34.65-.56-.28-1.52-.28-1.52-.28.68.08,1.1.85,1.1.85-.54-.42-1.33-.14-1.33-.14.78.03,1.09.53,1.1.54.8-.2,1.7-.37,2.67-.51,0,0,0,0,0-.01Z"/>
      <path class="cls-1" d="M12.94,41.1c.1,0,.19.07.27.15.12-.03.25-.06.37-.09l-.64-.06Z"/>
      <path class="cls-1" d="M17.2,40.45l-.03.07s.05,0,.07,0l-.04-.06Z"/>
      <path class="cls-1" d="M16.72,40.88l-.05-.07v.6s.25.06.25.06l.14-.14.34.06.03-.62-.18-.25s-.05,0-.07,0l-.06.16-.39.2Z"/>
      <path class="cls-1" d="M13.48,41.64l.87-.48.54.22.08-.39.56.48.06-.42.45.59.23-.14c0-.25-.01-.54-.02-.85-.96.14-1.86.31-2.67.51,0,0,0,0,0,0h0c-.12.03-.25.06-.37.09.16.16.26.39.26.39Z"/>
      <path class="cls-1" d="M25.55,39.52c-.34-.17-.82-.03-.82-.03.06-.48.71-.56.71-.56-.96-.08-1.47.51-1.47.51-.03-.2.03-.65.03-.65-.54.23-.4.65-.4.65-.31-.51-.65-.39-.65-.39.23.09.34.65.34.65-.56-.28-1.52-.28-1.52-.28.43.05.75.37.93.6.83-.05,1.64-.09,2.4-.12l.45-.37Z"/>
      <path class="cls-1" d="M21.65,40.09c.22-.02.45-.03.67-.04-.28-.04-.53,0-.67.04Z"/>
      <path class="cls-1" d="M22.64,40.65l-.65-.05c.31.03.54.53.54.53l.87-.48.54.23.08-.39.56.48.06-.42.45.59.45-.28.42.11.14-.14.34.06.03-.62-.23-.31-.08.23-.39.2-.28-.42-.2.2-.25-.2.06-.05c-.76.03-1.57.07-2.4.12.11.14.17.24.17.24-.17-.13-.36-.19-.55-.22-.22.01-.44.03-.67.04-.06.02-.1.03-.1.03.79.03,1.1.54,1.1.54Z"/>
      <path class="cls-1" d="M35.28,39.66l-.23-.31-.09.23-.39.2-.28-.42-.2.2-.25-.2.51-.42c-.34-.17-.82-.03-.82-.03.06-.48.71-.56.71-.56-.96-.08-1.47.51-1.47.51-.03-.2.03-.65.03-.65-.53.23-.39.65-.39.65-.14-.23-.29-.33-.41-.37-.04.02-.09.05-.13.07.15.18.23.56.23.56-.27-.13-.62-.2-.92-.24-.08.03-.16.06-.22.09.45.24.72.72.72.72-.54-.42-1.33-.14-1.33-.14.37.01.63.13.81.25,1.48,0,2.85.03,4.12.07v-.18Z"/>
      <path class="cls-1" d="M31.44,40.06l-.65-.06c.31.03.54.54.54.54l.87-.48.54.23.08-.39.56.48.06-.42.45.59.45-.28.42.11.14-.14.34.06.02-.44c-1.27-.04-2.64-.07-4.12-.07.2.14.29.28.29.28Z"/>
      <path class="cls-1" d="M31.75,38.45s.08.05.11.09c.04-.02.09-.05.13-.07-.14-.05-.24-.02-.24-.02Z"/>
      <path class="cls-1" d="M30.6,38.82s0,0-.01,0c.13.02.25.06.36.12.07-.02.14-.05.22-.09-.29-.03-.51-.04-.57-.04Z"/>
      <path class="cls-1" d="M30.59,38.82s0,0,.01,0c-.01,0-.03,0-.03,0,0,0,.01,0,.02,0Z"/>
      <path class="cls-1" d="M38.89,39.92l.51-.42c-.34-.17-.82-.03-.82-.03.06-.48.71-.56.71-.56-.96-.08-1.47.51-1.47.51-.03-.2.03-.65.03-.65-.54.23-.39.65-.39.65-.31-.51-.65-.4-.65-.4.23.08.34.65.34.65-.56-.28-1.52-.28-1.52-.28.37.05.67.3.86.52.92.04,1.78.09,2.59.15l-.17-.13Z"/>
      <path class="cls-1" d="M39.34,39.92l-.14.14c.09,0,.17.01.25.02l-.11-.16Z"/>
      <path class="cls-1" d="M40.1,39.92l-.08.21c.08,0,.17.02.25.02l-.17-.23Z"/>
      <path class="cls-1" d="M35.39,40.09c.46.02.75.19.92.34.03,0,.06,0,.1,0,0,0-.03,0-.08.02.11.1.16.18.16.18l-.5-.04s-.02.01-.03.02c.15.07.27.23.34.36.08.01.15.03.22.06l-.03.02.76-.42.53.23.08-.4.56.48.06-.42.45.59.45-.28.42.11.14-.14.34.06.03-.62-.06-.08c-.08,0-.16-.02-.25-.02v.02s-.4.2-.4.2l-.17-.26c-.08,0-.17-.01-.25-.02l-.05.05-.08-.07c-.8-.06-1.67-.11-2.59-.15.16.18.24.33.24.33-.54-.42-1.33-.14-1.33-.14Z"/>
      <path class="cls-1" d="M47.21,40.79c-.34-.17-.82-.03-.82-.03.06-.48.71-.56.71-.56-.96-.09-1.47.51-1.47.51-.03-.2.03-.65.03-.65-.53.23-.39.65-.39.65-.31-.51-.65-.39-.65-.39.13.05.23.27.28.44.72.13,1.35.26,1.9.39l.41-.35Z"/>
      <path class="cls-1" d="M47.92,41.22l-.07.19c.09.03.18.05.27.08l-.2-.27Z"/>
      <path class="cls-1" d="M47.15,41.22h0s0,0,.01.01h0Z"/>
      <path class="cls-1" d="M43.66,41.87c.09,0,.18.06.26.13,0-.04,0-.07,0-.11l-.26-.02Z"/>
      <path class="cls-1" d="M43.43,40.68c.19.02.36.1.5.2v-.17c-.29-.03-.5-.03-.5-.03Z"/>
      <path class="cls-1" d="M43.93,41.3c-.39-.04-.73.08-.73.08.32.01.55.1.72.2,0-.03,0-.06,0-.06v-.22Z"/>
      <path class="cls-1" d="M44.35,40.77c0,.17,0,.33,0,.48.12.15.19.27.19.27-.06-.05-.13-.09-.19-.12,0,.49-.02.84-.02.92l.75-.41.54.23.08-.39.56.48.06-.42.45.59.45-.28.42.11.14-.14.34.06.03-.62-.03-.04c-.09-.03-.18-.05-.27-.08v.03s-.41.2-.41.2l-.27-.41s0,0-.01,0l-.19.19-.25-.2.09-.08c-.55-.13-1.17-.26-1.9-.39.04.12.06.21.06.21-.18-.09-.39-.15-.61-.19Z"/>
      <path class="cls-1" d="M36.3,40.96c-.29-.05-.6.03-.6.03.02-.18.13-.31.25-.39-.04-.02-.07-.03-.11-.03h.15c.13-.07.26-.11.34-.13,0,0-.01-.01-.02-.02-.89-.04-1.37.51-1.37.51-.03-.2.03-.65.03-.65-.53.23-.39.65-.39.65-.31-.51-.65-.39-.65-.39.23.08.34.65.34.65-.56-.28-1.52-.28-1.52-.28.68.08,1.1.85,1.1.85-.54-.42-1.33-.14-1.33-.14.79.03,1.1.54,1.1.54l-.65-.05c.31.03.54.53.54.53l.87-.48.54.23.08-.39.56.48.06-.42.45.59.45-.28.42.11.14-.14.34.06.03-.62-.23-.31-.08.23-.4.2-.28-.42-.2.2-.25-.2.48-.4-.11.06s-.03-.06-.08-.15Z"/>
      <path class="cls-1" d="M36.3,40.96c.05.08.08.15.08.15l.11-.06.03-.02c-.07-.03-.14-.05-.22-.06Z"/>
      <path class="cls-1" d="M35.96,40.6s.02-.01.03-.02h-.15s.08,0,.11.02Z"/>
      <path class="cls-1" d="M36.41,40.43s-.06,0-.1,0c0,0,.01.01.02.02.05-.01.08-.02.08-.02Z"/>
      <path class="cls-1" d="M24.73,44.14c-.58-.44-1.44-.15-1.44-.15.86.03,1.19.56,1.19.56l-.7-.06c.34.03.58.55.58.55l.95-.5.58.23.09-.41.61.5.06-.44.49.61.49-.29.46.12.15-.15.37.06.03-.64-.24-.32-.09.23-.43.21-.31-.44-.21.2-.27-.2.55-.44c-.37-.18-.89-.03-.89-.03.06-.5.77-.59.77-.59-1.04-.09-1.59.53-1.59.53-.03-.21.03-.67.03-.67-.58.23-.43.67-.43.67-.34-.53-.71-.41-.71-.41.25.09.37.67.37.67-.61-.29-1.65-.29-1.65-.29.73.09,1.19.88,1.19.88Z"/>
      <path class="cls-1" d="M29.13,43.03l-.63-.05c.3.03.52.49.52.49l.85-.44.52.21.08-.36.55.44.06-.39.44.54.44-.26.41.1.14-.13.33.05.03-.57-.22-.28-.08.21-.39.18-.27-.39-.19.18-.25-.18.5-.39c-.33-.15-.8-.02-.8-.02.06-.44.69-.52.69-.52-.94-.08-1.43.47-1.43.47-.03-.18.03-.6.03-.6-.52.21-.39.6-.39.6-.3-.47-.64-.36-.64-.36.22.08.33.59.33.59-.55-.26-1.49-.26-1.49-.26.66.08,1.07.77,1.07.77-.52-.39-1.29-.13-1.29-.13.77.03,1.07.49,1.07.49Z"/>
      <path class="cls-1" d="M37.3,44.34l.05-.05c-.06,0-.13.02-.19.02l.14.02Z"/>
      <path class="cls-1" d="M36.45,44.54l.27-.17c-.13.02-.26.03-.39.05l.12.12Z"/>
      <path class="cls-1" d="M34.77,44.23l.54.16.06-.34.52.33s.04,0,.07,0l.03-.31.28.28c.51-.06,1.02-.12,1.51-.17v-.45s-.24-.25-.24-.25l-.07.19-.38.19-.3-.34-.18.18-.26-.15.48-.39c-.34-.12-.8.03-.8.03.03-.41.66-.52.66-.52-.94-.01-1.41.52-1.41.52-.04-.16,0-.55,0-.55-.52.22-.35.57-.35.57-.33-.41-.66-.29-.66-.29.23.06.37.52.37.52-.57-.2-1.51-.15-1.51-.15.67.03,1.12.65,1.12.65-.55-.33-1.31-.04-1.31-.04.78-.03,1.11.38,1.11.38h-.64c.25,0,.46.27.52.37.05,0,.1-.01.15-.02l.72-.39Z"/>
      <path class="cls-1" d="M35.95,44.42v-.05s-.04,0-.06,0l.06.04Z"/>
      <path class="cls-1" d="M37.77,44.24v-.07c-.49.05-1,.11-1.51.17l.08.08c.13-.02.26-.03.39-.05l.16-.1.28.05c.06,0,.13-.02.19-.02l.08-.08.34.03Z"/>
      <path class="cls-1" d="M34.05,44.62s-.1.01-.15.02c.01.02.03.04.03.04l.12-.06Z"/>
      <path class="cls-1" d="M19.53,39.42l-.48.76s-.7-.92-1.56-.83c0,0,.61.27.73,1.04.4-.05.8-.09,1.21-.13l.09-.85Z"/>
      <path class="cls-1" d="M20.99,39.64s-1.03-.03-1.55.62c.32-.03.65-.06.97-.09.07-.15.25-.49.58-.54Z"/>
      <path class="cls-1" d="M18.13,41.39l.48-.32.16.38.35-.32.16.51.45-.48.48.57.13-.41.29.22s-.35-1.05.48-1.37l-.7.06s.01-.03.03-.07c-.32.03-.65.06-.97.09,0,0,0,0-.01.01h0c-.41.03-.81.07-1.21.11.04.27.03.6-.1,1Z"/>
      <path class="cls-1" d="M30.08,39.71l-.7.06s.19-.54.61-.61c0,0-1.05-.03-1.56.63.66-.01,1.17-.02,1.53-.02.04-.02.07-.05.12-.07Z"/>
      <path class="cls-1" d="M28.52,38.94l-.48.76s-.7-.92-1.56-.83c0,0,.55.25.71.95.45-.01.86-.02,1.24-.03l.1-.86Z"/>
      <path class="cls-1" d="M27.11,40.92l.48-.32.16.38.35-.32.16.51.45-.48.48.57.13-.42.29.22s-.3-.92.35-1.3c-.36,0-.87,0-1.53.02,0,0,0,0,0,0h0c-.37,0-.79.01-1.24.02.06.29.07.64-.07,1.09Z"/>
      <path class="cls-1" d="M43.44,40.17l-.67.06s.18-.51.58-.57c0,0-1.01-.03-1.49.6l.09-.81-.46.72s-.67-.87-1.49-.78c0,0,.47.21.65.8.88.08,1.68.18,2.42.28.08-.12.2-.23.38-.29Z"/>
      <path class="cls-1" d="M40.6,41.32l.46-.3.15.36.34-.3.15.48.43-.45.46.54.12-.39.27.21s-.2-.6.08-1.01c-.73-.1-1.54-.19-2.42-.28.09.28.11.65-.04,1.13Z"/>
      <path class="cls-1" d="M39.16,43.49l.45-.3.15.36.33-.3.15.48.42-.45.45.53.12-.39.27.21s-.33-.98.45-1.28l-.66.06s.18-.51.57-.57c0,0-.99-.03-1.47.6l.09-.8-.45.72s-.66-.86-1.46-.77c0,0,1.05.44.6,1.9Z"/>
      <path class="cls-1" d="M22.19,42.8l.31-.28.14.45.39-.42.42.51.11-.36.25.2s-.31-.93.42-1.21l-.62.06s.17-.48.54-.53c0,0-.93-.03-1.38.56l.08-.76-.42.68s-.62-.81-1.38-.73c0,0,.99.42.56,1.79l.42-.28.14.34Z"/>
      <path class="cls-1" d="M29.25,45.41c1.37-.19,2.84-.41,2.84-.41l.04-.03c-1.03.14-2.02.29-2.9.42l.02.02Z"/>
      <path class="cls-1" d="M32.28,44.88l.54-.33-1.02.03c.05-.44.42-.54.63-.56-.73.04-1.3.41-1.39.41-.1,0,.06-.54.06-.54-.32.1-.54.6-.54.6l-.57-.32.32.64-1.37-.26.96.67-1.05-.07.34.21c.25-.04.49-.08.69-.11.11-.02,1.08-.18,2.42-.38Z"/>
      <path class="cls-1" d="M32.43,44.02s.09,0,.14,0c0,0-.06,0-.14,0Z"/>
      <path class="cls-1" d="M29.86,45.25c-.2.03-.44.07-.69.11l.05.03c.88-.14,1.88-.28,2.9-.42l.15-.09c-1.34.2-2.31.36-2.42.38Z"/>
      <path class="cls-2" d="M16.24,39.47c0,.16,0,.32,0,.49.09.01.17.03.25.07l-.25.21c0,.14,0,.27,0,.4l.18-.18.1.15s.09-.01.13-.02l-.02-2.73s.17-.42.14-.67c-.03-.25-.17-.58-.17-.58l.19-4.3-.56.36-.08,4.02s-.14.42-.14.61.17.36.17.5c0,.05.01.78.03,1.63.05,0,.1,0,.15,0,0,0-.06,0-.15.03Z"/>
      <path class="cls-2" d="M16.27,41.5c0,.51.02.86.02.86,0,0-.78.94-.44.78.33-.17,1.03-.42,1.22-.44.08-.01.29.01.5.03-.14-.09-.3-.15-.48-.18,0,0,.46,0,.92.09-.01-.02-.02-.03-.05-.05-.39-.28-1.17-.22-1.22-.36-.06-.14-.06-.69-.06-.69v-.12s-.18-.05-.18-.05l-.22.14Z"/>
      <path class="cls-2" d="M16.67,40.8v-.21s-.09.01-.13.02l.13.2Z"/>
      <path class="cls-2" d="M16.24,39.96c0,.09,0,.18,0,.28l.25-.21c-.08-.04-.17-.06-.25-.07Z"/>
      <path class="cls-2" d="M16.44,40.45l-.18.18s0,0,0,.01c.09-.01.19-.03.29-.04l-.1-.15Z"/>
      <path class="cls-2" d="M16.38,39.44c-.05,0-.1,0-.15,0,0,.01,0,.02,0,.04.09-.02.15-.03.15-.03Z"/>
      <path class="cls-2" d="M16.54,40.61c-.1.01-.19.03-.29.04,0,.31.01.59.02.85l.22-.14.18.05v-.6s-.13-.2-.13-.2Z"/>
      <path d="M19.23,17.1c.06-.03.1-.08.1-.14,0-.1-.1-.18-.23-.18-.03,0-.06.02-.09.03,0,.01.01.02.01.04l.2.25Z"/>
      <path d="M18.88,16.96c0,.1.1.18.23.18.05,0,.09-.02.13-.04l-.2-.25s0-.02-.01-.04c-.08.03-.14.08-.14.15Z"/>
      <path class="cls-11" d="M40.43,27.92c.14.03.3.11.33.03.03-.08,0-.39-.11-.67-.11-.28-.47-.69-.28-.69.16,0,.68.25.86.33,0-.09,0-.17,0-.23h0s-.58-.71-.64-.82c-.06-.11,0-.42.14-.33.14.08.58.47.58.47,0,0,.11-.5,0-.83-.11-.33-.22-.81-.08-.83.14-.03.72.39.72.39,0,0-.08-.72.08-.67.17.06.47.33.47.33,0,0,.03-.42-.19-.75l.72.28-.42-.72.84.19c-.4-.24-1.3-.83-1.59-1.22-.36-.5-.36-1.5-.06-2.05.3-.56,1.28-2.55,1.28-2.55,0-.02,0-.03,0-.04l-.08-.04s.06-.35-.06-.7c-.06.13-.31.66-.59.9-.33.28-.78.18-.78.18l-.33-.08-.2-.13c.15-.35.33-.56.33-.56h0c-.06-.03-.1-.08-.1-.14,0-.1.1-.18.23-.18.03,0,.06.02.09.03.05-.33.43-.67.46-.69-.09-.01-.16-.03-.27-.03h0s0,0,0,0c-.57.03-.93.11-1.07.42-.08.18-.05.37,0,.49.05-.04.09-.08.09-.08.35.15.58.18.58.18-.15.1-.33.56-.33.56,0,0,0,0,0,0h0s.2.13.2.13l.33.08s0,0,0,0l.1.02s.23.28.18.63c-.05.33-.27.39-.44.34-.22.51-.54,1.06-.7,1.32-.31.5-.86.94-.94,1.44-.08.5-.22,1.53-.33,2.31-.11.78-.06,2.05.14,2.69.19.64.36,2.22.44,2.36.07.12.27-.51.32-.68-.09-.17-.15-.29-.15-.29,0,0,.11-.11.25-.08Z"/>
      <path class="cls-11" d="M42.85,16.58c-.08-.13-.2-.23-.36-.32.16.1.28.22.36.32Z"/>
      <path class="cls-5" d="M43.1,17.52l.67.34s.05-.35.05-.43.86.25.86.25l-.56-.58.71.08-.48-.43.81-.2-.86-.15,1.06-.45-1.14-.02.78-.56-.91.23.33-.76-.73.45.46-1.03-.83.76.1-.81-.56.53.35-1.11-.68.73.05-.78-.48.73-.43-.45.1,2.25c.56-.02,1.46.14,1.32,1.43Z"/>
      <path class="cls-5" d="M42.05,16.13s0,0,0,0c.17,0,.31.07.44.14.16.09.28.2.36.32.07.09.11.17.11.17,0,0,0,.01-.01.03.13.35.06.7.06.7l.08.04c.14-1.29-.76-1.46-1.32-1.43h0c.1,0,.18.02.27.03Z"/>
      <path class="cls-2" d="M40.71,17c-.11.09-.34.25-.72.3-.55.08-.61-.02-.61.28,0,0,1.41.02,1.67.07l-.28-.51s-.03-.06-.06-.15Z"/>
      <path class="cls-2" d="M41.37,17.1s-.23-.02-.58-.18c0,0-.04.03-.09.08.03.08.06.15.06.15l.28.51s0,0,0,0c0,0,.18-.45.33-.56Z"/>
      <path class="cls-5" d="M41.58,17.87l-.21-.03c.2.15.02.56-.03.66-.05.1-.15.28.03.35.01,0,.03,0,.04,0,.2-.45.32-.86.17-.98Z"/>
      <path class="cls-5" d="M41.85,18.52c.05-.35-.18-.63-.18-.63l-.1-.02c.15.12.03.53-.17.98.17.05.39,0,.44-.34Z"/>
      <path class="cls-9" d="M42.49,16.26c-.12-.07-.27-.11-.45-.14-.03.02-.41.36-.46.69.08.03.14.08.14.15,0,.1-.1.18-.23.18-.05,0-.09-.02-.12-.04h0s-.18.2-.33.56l.2.13.33.08s.45.1.78-.18c.29-.24.53-.77.59-.9-.02-.07-.06-.13-.1-.2-.08-.1-.2-.23-.36-.32Z"/>
      <path class="cls-9" d="M42.06,16.12s0,0,0,0c.18.03.33.07.45.14-.12-.08-.27-.14-.44-.14Z"/>
      <path class="cls-9" d="M42.85,16.58c.04.06.08.13.1.2,0-.02.01-.03.01-.03,0,0-.04-.07-.11-.17Z"/>
      <path class="cls-2" d="M47.76,32.42c-.05.01-.1,0-.16,0,.06.05.18.12.16,0Z"/>
      <path class="cls-2" d="M43.35,30.2s.05-.01.08,0c.13.05.19.05.23.08-.1-.1-.23-.12-.32-.08Z"/>
      <path class="cls-2" d="M42.24,25.15l-1.11,1.08s.07.19.12.39c.02-.17.08-.26.21-.22.28.08.47.28.47.28,0,0,.25-.36.33-.28.08.08.56.69.56.69,0,0,.05-.19.22-.08.17.11.08.14.17.11.08-.03.17-.14.25-.06.08.08.25.3.25.3,0,0,.28-.47.47-.33.19.14.75.91.75.91l.39-.25s.25.22.25.11.28-.25.36-.14c.08.11.19.53.22.69.03.16-.06.25.03.16.08-.08.33-.53.5-.53s.5.08.56.17c.06.08.19.2.28.14.08-.05.39-.22.39-.22,0,0,.67.61,1.17,1.44.5.83.64,2.19.69,2.5.06.3.19.89.03.78-.1-.07-.1-.11-.21-.16l.05.08s-.06.61-.14.86c-.08.25-.17.17-.33.28-.17.11-.39.11-.39.11,0,0-.19-.64-.42-.44-.22.19-.36.11-.44.06-.08-.06-.69-.44-.86-.47-.17-.03-.97-.28-1.19-.5-.22-.22-.64-.08-.97-.36-.33-.28-.72-.92-.92-1.11-.12-.12-.19-.2-.23-.25-.03.38-.12.91-.18,1.25.41.26.82.48,1.02.61.33.22,1.39,1.03,1.83,1.28.44.25.72.11.72.11,0,0,.64.72.94.83.3.11.42-.25.42-.25,0,0,.67.94.94,1.06.28.11.8-2.66.61-4.5-.19-1.83-.64-2.78-1.22-3.72-.58-.94-2.03-2.19-2.94-2.75-.92-.55-2.39-1.42-2.39-1.42h-.02c.11.06.19.11.19.11l-1.42,1.64ZM45.96,25.26c.97.56,1.86,1.36,1.17,1.25-.69-.11-3.36-1.72-3.53-2.55,0,0,1.39.75,2.36,1.3Z"/>
      <path class="cls-2" d="M43.89,30.64s-.08-.1-.13-.22c-.02-.04-.04-.06-.06-.09.02.05.02.14.03.31h0s0,0,0,0c0,0,.07,0,.16,0Z"/>
      <path class="cls-2" d="M43.18,30.54c-.16-.12-1.07-.79-1.27-1.17-.22-.42-.67-1.28-.67-1.94,0-.14,0-.27,0-.39-.11.09-.32.07-.3.14.03.08.31,1.05.08,1.08-.22.03-.67,0-.67,0,0,0,0,.02-.01.04.07.14.16.32.26.51.22.44,1.61,2.22,2.16,2.75.08.08.17.15.26.22.06-.47.1-.8.1-.8,0,0,0-.23.05-.44Z"/>
      <path class="cls-2" d="M43.22,30.38c.03-.08.06-.14.11-.17-.01,0-.03,0-.04.02-.04.04-.06.09-.07.15Z"/>
      <path class="cls-2" d="M43.04,23.93l-.72-.28c.22.33.19.75.19.75,0,0-.3-.28-.47-.33-.17-.06-.08.67-.08.67,0,0-.58-.42-.72-.39-.14.03-.03.5.08.83.11.33,0,.83,0,.83,0,0-.44-.39-.58-.47-.14-.08-.19.22-.14.33.06.11.64.8.64.8h0s0-.03,0-.06c-.05-.19-.12-.39-.12-.39l1.11-1.08,1.42-1.64s-.08-.05-.19-.12l-.84-.19.42.72Z"/>
      <path class="cls-2" d="M41.02,28.26c.22-.03-.06-1-.08-1.08-.02-.07.2-.05.3-.14,0-.04,0-.08,0-.12-.17-.08-.7-.33-.86-.33-.19,0,.17.42.28.69.11.28.14.58.11.67-.03.08-.19,0-.33-.03-.14-.03-.25.08-.25.08,0,0,.06.12.15.29,0-.03.01-.04.01-.04,0,0,.44.03.67,0Z"/>
      <path class="cls-5" d="M44.87,32.25c.33.28.75.14.97.36.22.22,1.03.47,1.19.5.17.03.78.42.86.47.08.06.22.14.44-.06.22-.19.42.44.42.44,0,0,.22,0,.39-.11.17-.11.25-.03.33-.28.08-.25.14-.86.14-.86l-.05-.08c-.07-.03-.19-.06-.42-.09-.58-.08-.92-.55-1.08-.64-.17-.08.11.39-.3.5h0c.02.12-.1.05-.16,0-.38,0-.79-.28-1.04-.5-.28-.25-.44-.53-.8-.5-.36.03-.36.39-.75.08-.39-.31-.44-.36-.61-.53-.17-.17-.19-.08-.33-.19-.08-.06-.13-.09-.18-.15-.09,0-.16,0-.16,0h0c0,.07,0,.16,0,.26.04.05.11.12.23.25.19.19.58.83.92,1.11Z"/>
      <polygon class="cls-9" points="41.29 26.95 41.29 26.95 41.29 26.95 41.29 26.95"/>
      <path class="cls-9" d="M41.29,26.95l-.05-.26c0,.07,0,.15,0,.23.03.02.06.03.06.03,0,0,0,0,0,0Z"/>
      <path class="cls-9" d="M43.89,30.64c.12,0,.27.02.4.12.22.17.86.83.86.83,0,0,.42-.5.61-.42.19.08,1.8,1.22,1.8,1.22,0,0,.02.01.04.03.05,0,.11.01.16,0h0c-.03-.17-.03-1.02.14-.89.17.14,1.03.94,1.03.94,0,0,.28-.47.31-.36l.34.53c.11.05.11.09.21.16.17.11.03-.47-.03-.78-.06-.31-.19-1.67-.69-2.5-.5-.83-1.17-1.44-1.17-1.44,0,0-.31.17-.39.22-.08.06-.22-.05-.28-.14-.05-.08-.39-.17-.56-.17s-.42.44-.5.53c-.08.08,0,0-.03-.16-.03-.17-.14-.58-.22-.69-.08-.11-.36.03-.36.14s-.25-.11-.25-.11l-.39.25s-.56-.78-.75-.91c-.19-.14-.47.33-.47.33,0,0-.17-.22-.25-.3-.08-.08-.17.03-.25.06-.08.03,0,0-.17-.11-.17-.11-.22.08-.22.08,0,0-.47-.61-.56-.69-.08-.08-.33.28-.33.28,0,0-.19-.19-.47-.28-.14-.04-.19.05-.21.22.03.13.06.26.05.33h0s0,0,0,0c0,0,0,0,0,0,0,.04-.03.06-.06.09,0,.12,0,.25,0,.39,0,.67.44,1.53.67,1.94.2.38,1.11,1.06,1.27,1.17.01-.06.03-.11.05-.16.01-.05.03-.11.07-.15.01-.01.03-.01.04-.02,0,0,.01,0,.02,0,.09-.04.21-.02.32.08.02.01.03.03.04.06.02.03.04.05.06.09.05.11.09.17.13.22Z"/>
      <path class="cls-9" d="M41.29,26.95s-.03-.01-.06-.03c0,.04,0,.08,0,.12.03-.02.05-.05.06-.09,0,0,0,0,0,0Z"/>
      <path class="cls-9" d="M41.25,26.62s0,.05,0,.07l.05.26c.01-.08-.01-.21-.05-.33Z"/>
      <path class="cls-9" d="M45.76,31.17c-.19-.08-.61.42-.61.42,0,0-.64-.67-.86-.83-.13-.09-.28-.12-.4-.12.05.05.1.08.18.15.14.11.17.03.33.19.17.17.22.22.61.53.39.3.39-.06.75-.08.36-.03.53.25.8.5.24.22.66.51,1.04.5-.02-.02-.04-.03-.04-.03,0,0-1.61-1.14-1.8-1.22Z"/>
      <path class="cls-9" d="M48.93,32.48s-.86-.8-1.03-.94c-.17-.14-.17.72-.14.89h0s0,0,0,0c.42-.11.14-.58.3-.5.17.08.5.56,1.08.64.23.03.35.06.42.09l-.34-.53c-.03-.11-.31.36-.31.36Z"/>
      <path class="cls-2" d="M37.41,31.75c-.02.43-.1.38-.24.58-.14.43-.27.73-.38.93.11-.04.26-.09.42-.15.33-.11.28-.06.36-.03.08.03,3,1.64,3.33,1.83.33.19,1.31.83,1.58,1,.28.17.33.11.61-.08.28-.19-.11-.31-.11-.56s.5-2.83.5-2.83c0,0,.03-.13.06-.3-.18-.11-.36-.24-.52-.37-.14,1.05-.37,2.79-.42,3.06-.08.39-.39.31-.39.31l-3.78-2.06s-.47-.16-.64-.41c-.17-.25-.11-1.28-.14-1.61-.02-.21-.07-.28-.12-.27-.04.21-.08.42-.12.6,0,.11,0,.22-.01.36Z"/>
      <path class="cls-2" d="M37.46,30.87c-.04.1-.04.27-.04.53.04-.19.08-.39.12-.6-.03,0-.05.03-.07.08Z"/>
      <path class="cls-2" d="M37.13,32.39c-.17.28-.53.94-.53.94,0,0,.07-.03.19-.07.1-.2.24-.5.38-.93-.01.02-.03.04-.04.06Z"/>
      <path class="cls-2" d="M43.73,30.9s-.05-.06-.05-.06l.06-.19h0c0-.17-.02-.26-.03-.31-.01-.02-.02-.04-.04-.06-.04-.03-.11-.03-.23-.08-.03-.01-.06,0-.08,0,0,0-.01,0-.02,0-.05.03-.08.09-.11.17-.02.09-.01.19-.01.19,0,0-.02-.01-.03-.02-.04.21-.05.44-.05.44,0,0-.04.33-.1.8.17.13.34.25.52.37.06-.33.16-.87.18-1.25Z"/>
      <path class="cls-2" d="M43.68,30.84s.02.03.05.06c0-.1.01-.19,0-.25l-.06.19Z"/>
      <path class="cls-2" d="M43.66,30.28s.03.04.04.06c0-.03-.02-.04-.04-.06Z"/>
      <path class="cls-2" d="M43.33,30.21s.01,0,.02,0c0,0-.01,0-.02,0Z"/>
      <path class="cls-2" d="M43.21,30.56s0-.09.01-.19c-.02.05-.03.1-.05.16.02.01.03.02.03.02Z"/>
      <path class="cls-11" d="M47.12,26.51c.69.11-.19-.69-1.17-1.25-.97-.55-2.36-1.3-2.36-1.3.17.83,2.83,2.44,3.53,2.55Z"/>
      <path class="cls-2" d="M44.4,37.81c0-.14.17-.31.17-.5s-.14-.61-.14-.61l-.08-4.02-.56-.36.19,4.3s-.14.33-.17.58c-.03.25.14.67.14.67l-.02,2.73c.14.02.28.04.41.07.02-1.26.05-2.77.05-2.85Z"/>
      <path class="cls-2" d="M43.93,41.58c0,.07,0,.18,0,.3l.39.03s-.11-.18-.38-.34Z"/>
      <path class="cls-2" d="M43.4,42.69c.06,0,.12,0,.14,0,.06,0,.17.04.3.08.05-.12.15-.25.38-.35,0,0-.03.26-.04.47.05.02.1.04.15.06.07-.06.17-.12.3-.19-.15-.2-.31-.4-.31-.4,0,0,0-.02,0-.03l-.13.07s-.11-.24-.28-.4c0,.09-.02.18-.04.22-.06.14-.83.08-1.22.36-.28.2.2.16.56.13-.01,0-.02-.02-.04-.03,0,0,.09-.03.22.01Z"/>
      <path class="cls-2" d="M44.34,41.26c-.1-.12-.24-.26-.4-.37v.42c.13.01.27.04.4.11,0-.05,0-.1,0-.15Z"/>
      <path class="cls-2" d="M44.35,40.77s0-.08,0-.12c-.13-.02-.27-.04-.41-.07v.12c.13.01.27.03.41.06Z"/>
      <path class="cls-2" d="M44.34,41.26c0-.15,0-.31,0-.48-.14-.03-.28-.05-.41-.06v.17c.17.11.3.25.4.37Z"/>
      <path class="cls-2" d="M44.19,42.4l.13-.07c0-.08,0-.43.02-.92-.13-.06-.27-.09-.41-.11v.22s0,.02,0,.06c.26.15.38.34.38.34l-.39-.03s0,.07,0,.11c.17.16.28.4.28.4Z"/>
      <path d="M41.59,16.81s-.05-.03-.09-.03c-.13,0-.23.08-.23.18,0,.06.04.11.1.14l.2-.25s0-.02.01-.04Z"/>
      <path d="M41.73,16.96c0-.07-.06-.12-.14-.15,0,.01-.01.02-.01.04l-.2.25s.08.04.12.04c.12,0,.23-.08.23-.18Z"/>
      <path class="cls-9" d="M26.67,32.63c.08.02.78.2,1.05.34.29.15.58.31.92.22.33-.08,1.11-.57,1.65-.54.54.03,1.51.64,1.97.54.45-.09,1.12-.54,1.71-.55,0-.07.02-.14.02-.21,0-.09-.02-.17-.03-.26-.08.02-.46.1-.86.23-.44.14-.56.24-.93.25-.64.02-1.37-.47-1.96-.48-.39,0-.94.53-1.71.5-.75-.03-1.41-.52-1.83-.54,0,.1-.03.2-.03.3,0,.07.02.13.02.2Z"/>
      <path class="cls-9" d="M32.21,34.9c-.64.04-1.17-.58-1.78-.58-.79,0-1.15.56-1.92.57-.39,0-.85-.02-1.09-.23.34.45.79.81,1.3,1.06-.07-.04-.14-.08-.22-.14.35-.13,1.21-.6,1.94-.56.74.04,1.29.54,1.72.54-.03.03-.06.04-.08.07.45-.25.85-.58,1.16-.99-.29.18-.71.28-1.03.31v-.05Z"/>
      <path class="cls-9" d="M28.64,32.14c.33-.08,1.11-.57,1.65-.54.54.03,1.51.64,1.97.54.45-.1,1.04-.53,1.63-.52-.05-.23-.12-.44-.21-.65-.05.03-.86.52-1.48.56-.64.04-1.17-.58-1.78-.58-.79,0-1.15.56-1.92.57-.76.01-1.58-.47-1.58-.47l.26-.51s.65.43,1.29.46c.64.03.94-.54,1.78-.56.83-.01,1.4.58,1.97.56.56-.03,1.17-.48,1.19-.5-.1-.16-.22-.31-.34-.45-.05.03-.47.29-.96.31-.53.01-1.28-.58-1.82-.55-.54.03-1.33.57-1.78.57-.41,0-.9-.26-.98-.31-.38.44-.66.96-.79,1.55.08.02.7.17.97.32.29.15.58.31.92.22Z"/>
      <path class="cls-9" d="M28.71,29.84c.35-.12,1-.54,1.74-.5.74.04,1.19.53,1.62.53.39,0,.58-.19.61-.22-.64-.54-1.46-.88-2.36-.88s-1.74.35-2.39.9c.08.05.46.29.77.17Z"/>
      <path class="cls-9" d="M33.11,33.46c-.44.14-.56.24-.93.25-.64.01-1.37-.47-1.96-.48-.39,0-.94.53-1.71.5-.76-.03-1.35-.49-1.76-.49l-.06-.35c.05.39.15.76.31,1.11-.03-.09-.05-.15-.05-.15,0,0,.89.49,1.53.51.64.03.94-.54,1.78-.55.83-.01,1.4.58,1.97.55.49-.02,1.23-.45,1.44-.57.01-.03.02-.05.02-.05l.05.02c.09-.23.15-.47.19-.73l-.05.23s-.33.07-.78.21Z"/>
      <path class="cls-9" d="M29.13,35.89c.38.13.77.21,1.19.21s.82-.09,1.2-.22c-.41-.17-.86-.42-1.21-.4-.34.02-.78.24-1.18.4Z"/>
      <path class="cls-9" d="M32.86,29.79l.1.09s-.06-.06-.1-.09Z"/>
      <path class="cls-9" d="M29.03,35.86c-.06-.02-.12-.04-.18-.07.06.03.12.04.18.07Z"/>
      <path class="cls-4" d="M27.94,29.67s-.03-.02-.03-.02l-.37.4s0,0,.02,0c.12-.14.25-.27.39-.39Z"/>
      <path class="cls-4" d="M33.11,30.03l-.16-.15c.05.05.09.11.13.16,0,0,.02-.01.02-.01Z"/>
      <path class="cls-4" d="M32.7,29.63s0,0-.01.01c.06.05.12.09.18.15l-.16-.16Z"/>
      <path class="cls-4" d="M30.31,29.8c.54-.03,1.29.57,1.82.55.49-.01.91-.27.96-.31-.05-.05-.09-.11-.13-.16l-.1-.09c-.06-.05-.12-.1-.18-.15-.03.03-.22.22-.61.22-.43,0-.89-.49-1.62-.53-.74-.04-1.39.38-1.74.5-.31.11-.69-.12-.77-.17-.14.12-.27.25-.39.39.08.04.58.31.98.31.44,0,1.24-.54,1.78-.57Z"/>
      <path class="cls-4" d="M31.52,35.89c.24-.07.36-.09.56-.25-.18.1-.37.18-.56.25,0,0,0,0,0,0Z"/>
      <path class="cls-4" d="M28.85,35.79s-.08-.05-.12-.07c.04.02.08.05.12.07Z"/>
      <path class="cls-4" d="M29.13,35.89s0,0,0,0c-.03-.01-.07-.02-.1-.03.03.01.06.02.1.04Z"/>
      <path class="cls-4" d="M30.45,35.03c-.74-.04-1.6.43-1.94.56.08.06.15.1.22.14.04.02.08.05.12.07.06.03.12.05.18.07.03.01.07.02.1.03.39-.16.83-.39,1.18-.4.35-.02.8.23,1.21.4.2-.07.38-.15.56-.25.03-.02.05-.04.08-.07-.43,0-.99-.5-1.72-.54Z"/>
      <path class="cls-4" d="M33.7,30.96l-.26-.47s0,0,0,0c.1.15.19.31.26.48,0,0,0,0,0,0Z"/>
      <path class="cls-4" d="M30.27,30.44c-.83.01-1.14.58-1.78.56-.64-.03-1.29-.46-1.29-.46l-.26.51s.82.49,1.58.47c.76-.01,1.12-.57,1.92-.57.61,0,1.14.62,1.78.58.62-.04,1.43-.54,1.48-.56-.07-.17-.16-.32-.26-.48-.02.01-.63.47-1.19.5-.57.03-1.14-.57-1.97-.56Z"/>
      <path class="cls-4" d="M27.39,34.64s.02.01.03.02c-.16-.21-.3-.43-.41-.66.07.18.19.47.38.64Z"/>
      <path class="cls-4" d="M30.43,34.32c.61,0,1.14.62,1.78.58v-.04c.34-.02.82-.14,1.09-.35.16-.13.33-.57.38-.72-.21.12-.95.55-1.44.57-.57.03-1.14-.57-1.97-.55-.83.01-1.14.58-1.78.55-.64-.03-1.53-.51-1.53-.51,0,0,.02.06.05.15.11.24.25.46.41.66.25.21.71.24,1.09.23.76-.01,1.12-.57,1.92-.57Z"/>
      <path class="cls-4" d="M26.74,31.6l-.08.53s.02,0,.03,0c.01-.18.03-.36.07-.53,0,0-.02,0-.02,0Z"/>
      <path class="cls-4" d="M34,32.17l-.08-.55s-.01,0-.02,0c.04.18.06.37.07.56,0,0,.03,0,.03,0Z"/>
      <path class="cls-4" d="M30.23,32.17c.58.01,1.32.5,1.96.48.38,0,.49-.11.93-.25.4-.12.78-.21.86-.23-.01-.19-.03-.38-.07-.56-.59,0-1.18.43-1.63.52-.46.1-1.43-.51-1.97-.54-.54-.03-1.32.46-1.65.54-.33.08-.63-.07-.92-.22-.27-.14-.89-.3-.97-.32-.04.17-.06.35-.07.53.42.02,1.09.51,1.83.54.76.03,1.32-.51,1.71-.5Z"/>
      <path class="cls-4" d="M26.66,32.63l.04.26c-.01-.09-.02-.17-.03-.26,0,0-.02,0-.02,0Z"/>
      <path class="cls-4" d="M34.02,32.64s-.03,0-.04,0c0,.13-.02.25-.04.38l.08-.38Z"/>
      <path class="cls-4" d="M30.3,32.66c-.54-.03-1.32.46-1.65.54-.33.08-.63-.07-.92-.22-.27-.14-.97-.32-1.05-.34,0,.09.02.17.03.26l.06.35c.42,0,1,.46,1.76.49.76.03,1.32-.51,1.71-.5.58.01,1.32.5,1.96.48.38,0,.49-.11.93-.25.44-.14.78-.21.78-.21l.05-.23c.02-.12.03-.25.04-.38-.59,0-1.26.45-1.71.55-.46.1-1.43-.51-1.97-.54Z"/>
      <path d="M33.33,34.54s0,0,0,0c-.03.04-.06.07-.09.1.04-.02.08-.04.11-.07.21-.17.42-.78.43-.81h-.04s-.03.08-.05.13c-.07.2-.21.57-.37.65Z"/>
      <path d="M33.68,33.79s.06-.04.06-.04c0,0-.02.06-.04.14.02-.04.03-.09.05-.14l-.05-.02s0,.02-.02.05Z"/>
      <path d="M32.21,34.9h0v.05c.32-.02.74-.13,1.03-.31.03-.04.06-.07.09-.1-.3.15-.74.34-1.11.36Z"/>
      <path d="M33.33,34.54c.16-.08.3-.45.37-.65-.1.23-.23.45-.37.65,0,0,0,0,0,0Z"/>
      <path d="M32.21,34.86v.04h0c.37-.02.81-.21,1.11-.36.14-.2.27-.42.37-.65.03-.08.04-.14.04-.14,0,0-.02.01-.06.04-.05.15-.22.59-.38.72-.27.21-.75.33-1.09.35Z"/>
      <path class="cls-1" d="M36.69,32.35c.36-1.05.78-3.02.64-6.38-.03-.35-.05-.57-.05-.57-2.43-.3-4.84-1.5-6.01-2.15-.19-.1-.39-.22-.58-.33,2.07,5.17,5.47,8.86,6.01,9.43Z"/>
      <path class="cls-1" d="M30.68,22.92s-.1-.06-.15-.09c2.09,5.62,5.92,9.57,6.08,9.73.03-.07.05-.14.08-.22-.54-.57-3.94-4.26-6.01-9.43Z"/>
      <path class="cls-1" d="M31.26,23.25c-.26-.14-.46-.26-.59-.34,0,0,0,0,0,.01.2.11.39.23.58.33Z"/>
      <path class="cls-1" d="M30.53,22.84c.05.03.1.06.15.09,0,0,0,0,0-.01-.1-.06-.15-.09-.15-.09,0,0,0,.01,0,.02Z"/>
      <path class="cls-1" d="M36.69,32.35s0,0,0,0c.8-2.39.71-5.21.63-6.39.15,3.35-.28,5.33-.64,6.38Z"/>
      <path class="cls-1" d="M36.61,32.56s.01.02.01.02c.03-.07.05-.15.07-.22,0,0,0,0,0,0-.03.08-.05.15-.08.22Z"/>
      <path class="cls-1" d="M29.78,23.04c-1.05.64-3.3,1.83-6.15,2.29-.11.02-.23.05-.34.07-.17,1.2-.37,3.92.62,6.75.03.07.06.13.09.2,3.21-3.27,5.3-8.12,5.78-9.31Z"/>
      <path class="cls-1" d="M24,32.35c.04.08.07.17.11.25,0,0,4.18-4.77,5.94-9.73-.08.05-.17.11-.27.17-.48,1.19-2.57,6.04-5.78,9.31Z"/>
      <path class="cls-1" d="M29.79,23c-.71.47-2.78,1.67-6.16,2.33,2.85-.47,5.1-1.65,6.15-2.29,0-.02,0-.02.02-.04Z"/>
      <path class="cls-1" d="M30.05,22.87s.02-.04.02-.06c0,0-.1.07-.28.2,0,.02,0,.02-.02.04.1-.06.19-.12.27-.17Z"/>
      <path class="cls-1" d="M23.29,25.4s-.03,0-.04,0c0,0-.52,3.87.66,6.74-.99-2.83-.79-5.55-.62-6.75Z"/>
      <path class="cls-1" d="M42.63,44.27l-.26-.02c.31.09.59.18.81.29h.02c-.18-.11-.37-.2-.58-.26Z"/>
      <path class="cls-1" d="M42.22,44.23c.31.03.54.54.54.54l.43-.23c-.22-.11-.5-.2-.81-.29h-.15Z"/>
      <path class="cls-1" d="M43.63,44.29l.54.23.08-.39.56.48.06-.42.45.59.45-.28.42.11.14-.14.34.06.03-.62-.23-.31-.09.23-.39.2-.28-.42-.2.2-.25-.2.51-.42c-.34-.17-.82-.03-.82-.03.06-.48.71-.57.71-.57-.44-.04-.78.07-1.03.19.17.23.31.47.13.38-.11-.06-.27-.12-.43-.19-.09.07-.14.13-.14.13,0-.05,0-.11,0-.18-.12-.04-.24-.09-.34-.12-.06.16-.02.3-.02.3-.15-.25-.31-.35-.43-.38-.05,0-.11,0-.18.01.2.13.3.62.3.62-.56-.28-1.52-.28-1.52-.28.68.08,1.1.85,1.1.85-.54-.42-1.33-.14-1.33-.14.79.03,1.1.54,1.1.54l-.24-.02c.2.07.39.15.58.25l.42-.23Z"/>
      <path class="cls-1" d="M43.18,42.68s.03.02.04.03c.07,0,.13-.01.18-.01-.13-.04-.22-.01-.22-.01Z"/>
      <path class="cls-1" d="M44.22,42.43c-.23.1-.33.23-.38.35.1.03.22.07.34.12,0-.21.04-.47.04-.47Z"/>
      <path class="cls-1" d="M44.76,43.14c.18.09.04-.14-.13-.38-.13.06-.23.13-.3.19.16.06.32.13.43.19Z"/>
      <path class="cls-1" d="M17.56,42.72c.37.23.6.6.6.6-.52-.39-1.29-.13-1.29-.13.77.03,1.07.49,1.07.49l-.63-.05c.3.03.52.49.52.49l.85-.44.52.21.08-.36.55.44.06-.39.44.54.44-.26.41.1.14-.13.33.05.03-.57-.22-.28-.08.21-.39.18-.28-.39-.19.18-.25-.18.5-.39c-.33-.15-.8-.02-.8-.02.06-.44.69-.52.69-.52-.94-.08-1.43.47-1.43.47-.03-.18.03-.59.03-.59-.52.21-.39.59-.39.59-.3-.47-.63-.36-.63-.36.22.08.33.59.33.59-.17-.08-.37-.13-.56-.17.09.11-.17.11-.44.09Z"/>
      <path class="cls-1" d="M17.56,42.72c.28.02.53.02.44-.09-.46-.09-.92-.09-.92-.09.18.02.34.09.48.18Z"/>
    </g>
  </g>
</svg>