<svg xmlns="http://www.w3.org/2000/svg" width="512" height="512" viewBox="0 0 512 512" fill="none">
  <rect width="512" height="512" rx="116" fill="#050510"/>
  <rect x="42" y="42" width="428" height="428" rx="96" fill="url(#bg)"/>
  <path d="M154.667 294.667C154.667 229.133 207.8 176 273.333 176H336V229.333H273.333C237.245 229.333 208 258.578 208 294.667C208 330.755 237.245 360 273.333 360C307.415 360 335.405 333.896 338.408 300.589H272V252H394.667V273.333C394.667 349.917 332.584 412 256 412C179.416 412 117.333 349.917 117.333 273.333C117.333 196.749 179.416 134.667 256 134.667C301.221 134.667 341.381 156.328 366.693 189.81L324.147 221.971C309.355 202.678 285.305 190.667 258.4 190.667C200.989 190.667 154.667 236.989 154.667 294.4V294.667Z" fill="white"/>
  <circle cx="352" cy="165.333" r="42.667" fill="#10B981"/>
  <defs>
    <linearGradient id="bg" x1="74" y1="69.333" x2="437.333" y2="458.667" gradientUnits="userSpaceOnUse">
      <stop stop-color="#4F7CFF"/>
      <stop offset="0.52" stop-color="#10B981"/>
      <stop offset="1" stop-color="#22C55E"/>
    </linearGradient>
  </defs>
</svg>
