<?xml version="1.0" encoding="UTF-8"?>
<svg id="Layer_2" data-name="Layer 2" xmlns="http://www.w3.org/2000/svg" viewBox="0 0 33.04 32.13">
  <defs>
    <style>
      .cls-1 {
        fill: #67c18c;
      }
    </style>
  </defs>
  <g id="Layer_1-2" data-name="Layer 1">
    <path class="cls-1" d="M32.6,10.57c-.4-.63-1.03-1.07-1.76-1.24h-.07s0,0,0,0c-.87-.18-1.76.07-2.42.67h-.01c-.07-.06-.14-.12-.21-.17-.41-.26-.85-.45-1.32-.55-.05,0-.1-.02-.15-.03-.05,0-.09-.02-.15-.03-.68-.11-1.38-.03-2.03.22-.92.35-1.68,1.01-2.13,1.86-.21-.19-.41-.39-.6-.61l.19-.08c.61-.21,1.17-.57,1.62-1.04.73-.76,1.13-1.76,1.13-2.8,0-.08,0-.16-.01-.24-.02-.36-.09-.71-.2-1.04-.05-.17-.13-.35-.23-.53-.01-.02-.02-.04-.03-.06.58-.53.91-1.28.91-2.07,0-1.55-1.26-2.81-2.81-2.81s-2.81,1.26-2.81,2.81v.04c-.13.04-.25.07-.35.11-.21.08-.42.18-.65.31-1.24.74-1.98,2.05-1.98,3.49,0,.49.09.97.26,1.43-.01,0-.03,0-.04,0-.19,0-.38,0-.58,0,.17-.46.26-.94.26-1.42,0-1.42-.73-2.72-1.96-3.48-.21-.13-.42-.23-.63-.31-.25-.1-.5-.17-.76-.22C13.05,1.24,11.8,0,10.26,0s-2.81,1.26-2.81,2.81c0,.91.44,1.76,1.18,2.28-.04.09-.08.17-.11.26-.17.46-.25.94-.25,1.4,0,.09,0,.18.01.26v.04c.05.69.28,1.36.66,1.93.55.83,1.38,1.43,2.32,1.69-.11.16-.3.43-.59.77-.46-.82-1.21-1.46-2.1-1.81-.64-.24-1.34-.31-2.04-.22-.1.01-.19.03-.29.05-.46.1-.91.29-1.32.55-.08.05-.16.11-.23.17-.68-.61-1.6-.85-2.49-.65-.73.16-1.36.6-1.76,1.24-.4.63-.53,1.39-.37,2.12.16.73.6,1.36,1.24,1.76.63.4,1.37.53,2.07.38.11.26.23.49.37.7.13.18.27.36.44.54,1,1.03,2.43,1.46,3.82,1.15.3-.07.61-.18.9-.32.05-.02.1-.05.14-.07l.12-.07c.05-.03.11-.06.16-.09.03.11.06.22.08.34.02.09.04.17.05.25-.48-.07-.96-.05-1.45.06-1.4.31-2.51,1.32-2.97,2.69-.08.25-.14.48-.17.7-.02.12-.03.24-.03.37h-.04c-.73.17-1.36.61-1.76,1.24-.4.63-.53,1.39-.37,2.12.34,1.51,1.84,2.47,3.36,2.13.77-.17,1.43-.66,1.82-1.34.02,0,.05.02.07.02.19.05.38.08.57.1.36.03.72.02,1.07-.03h.08c.06-.02.11-.03.16-.04,1.03-.23,1.91-.84,2.49-1.71.36-.53.59-1.15.66-1.79.05-.21.08-.4.11-.57.21.08.53.22.92.43-.73.66-1.2,1.58-1.32,2.57-.08.68.03,1.38.29,2.02.04.09.08.18.12.27.22.43.51.81.87,1.14.07.06.14.12.22.18-.42.81-.43,1.76-.02,2.57.49.97,1.48,1.54,2.51,1.54.43,0,.86-.1,1.27-.31,1.37-.7,1.93-2.38,1.25-3.74.21-.16.4-.34.58-.54.15-.17.29-.37.41-.57.75-1.23.82-2.72.17-3.99-.21-.41-.48-.77-.8-1.07.16-.09.32-.17.48-.25,0,.03,0,.05.01.08.07.64.3,1.27.67,1.8.59.88,1.47,1.49,2.49,1.71.06.01.11.02.17.03h.08c.34.07.7.08,1.07.04.2-.02.39-.05.57-.1.02,0,.05-.01.07-.02.4.69,1.06,1.17,1.82,1.34,1.52.34,3.02-.62,3.36-2.13.34-1.51-.62-3.02-2.12-3.36-.01,0-.03,0-.04,0,0-.12-.02-.24-.04-.37-.03-.22-.09-.45-.17-.7-.46-1.37-1.57-2.37-2.97-2.69-.48-.11-.96-.13-1.45-.06.02-.08.03-.17.05-.25.03-.12.05-.23.08-.35.4.26.85.45,1.34.56,1.39.31,2.82-.12,3.82-1.15.19-.2.33-.37.44-.55.15-.22.27-.45.37-.69,1.5.31,2.97-.65,3.31-2.14.16-.73.03-1.49-.37-2.12ZM32.32,12.56l-.03.14c-.32,1.07-1.42,1.73-2.55,1.48-.12-.03-.24-.07-.37-.12-.95-.41-1.48-1.44-1.26-2.45.06-.29.19-.57.37-.81.08-.11.17-.21.25-.29.41-.38.94-.59,1.48-.59.15,0,.31.02.46.05,1.16.26,1.89,1.41,1.63,2.58ZM26.08,12.49c.42.09.68.51.58.92-.1.42-.5.68-.92.59-.38-.09-.63-.44-.6-.83l.02-.11s0-.02.01-.03c0-.02.01-.03.02-.05.07-.11.14-.23.21-.32.19-.17.44-.24.69-.18ZM24.66,13.95c.19.35.53.61.93.7.37.08.76.01,1.08-.19.32-.2.54-.52.62-.89.17-.77-.32-1.54-1.08-1.71-.14-.03-.29-.04-.47-.02-.3.04-.59.16-.8.35-.18.16-.32.37-.39.59-.53.87-.96,1.85-1.3,2.93-.05.14-.09.29-.13.44-.07.24-.13.48-.18.72-.04.17-.07.33-.1.49-.79.1-1.56.26-2.3.47.06-.51.14-.99.24-1.44.29-1.29.73-2.47,1.29-3.51.24-.44.5-.85.8-1.24.54-.71,1.12-1.23,1.7-1.54.42-.18.87-.27,1.32-.27.15,0,.31.01.46.03.09.01.18.02.28.05.26.06.52.15.81.29.13.06.22.12.31.18l.08.11h.05c-.21.3-.35.63-.43.98-.29,1.29.36,2.6,1.55,3.16-.09.21-.21.41-.35.61-.81,1.11-2.19,1.63-3.52,1.34-.46-.1-.9-.3-1.29-.6.22-.73.48-1.42.79-2.04ZM25.5,23.36c.22-.98,1.1-1.68,2.1-1.68.12,0,.25.01.42.04l.19.04c.5.15.92.47,1.2.91.31.49.41,1.07.29,1.63-.26,1.16-1.41,1.89-2.58,1.63-.6-.14-1.11-.52-1.4-1.04-.06-.11-.12-.23-.16-.35-.13-.38-.16-.78-.07-1.17ZM24.86,23.2c-.1.47-.08.95.05,1.4-.03.01-.06.02-.1.03-.07.01-.15.03-.21.04-.35.05-.69.05-1.06-.01-.03,0-.06-.01-.09-.02-.03,0-.05,0-.08-.01-.95-.22-1.77-.83-2.24-1.68-.15-.31-.27-.68-.39-1.11-.02-.14-.04-.29-.04-.44.63-.26,1.28-.46,1.93-.61.01.21.03.43.06.66,0,.04,0,.08.01.11v.04c.09.36.31.69.61.89.14.1.3.17.48.21.77.17,1.54-.32,1.71-1.08.17-.77-.32-1.54-1.08-1.71-.25-.06-.5-.04-.71.03-.2.03-.4.06-.59.09l-.4.08c-.77.16-1.5.38-2.17.65-.05.02-.1.04-.15.06l-.08.04c-.06.03-.13.05-.17.08-.02,0-.04.02-.06.03-.01,0-.03.01-.06.02-.32.15-.63.3-.92.47-.52-.53-1.05-1.01-1.58-1.42.51-.38,1.33-.88,2.49-1.31.12-.05.25-.09.41-.14.44-.14.94-.27,1.47-.38.32-.06.66-.13,1.03-.17.12-.02.24-.03.36-.04h.04s.09-.02.09-.02c.16-.03.34-.06.53-.06h.01c.31-.02.62,0,.91.07,1.35.3,2.38,1.38,2.62,2.73.02.1.03.21.04.32-1.28.04-2.38.95-2.66,2.2ZM23.35,21.13c.06-.26.24-.46.46-.55.13-.02.25-.03.38-.04h.04s.02,0,.04,0c.2.05.37.17.48.34.11.17.15.38.1.58-.09.41-.51.68-.92.59-.41-.09-.68-.51-.59-.92ZM14.79,28.27c.05-.1.12-.19.21-.32.19-.24.43-.43.7-.56.31-.16.64-.23.97-.23.65,0,1.29.3,1.72.84.07.08.13.18.2.3v.03s.02.02.02.02c.52,1.05.1,2.34-.96,2.88-1.06.53-2.36.11-2.9-.95-.33-.64-.31-1.39.04-2.02ZM18.85,27.52c-.55-.67-1.35-1.03-2.17-1.03-.43,0-.87.1-1.28.31-.32.16-.6.38-.83.65v-.03l-.08-.03s-.03-.01-.05-.02c0,0-.01,0-.02,0-.09-.08-.17-.17-.25-.25-.2-.23-.36-.46-.49-.71-.04-.09-.08-.18-.12-.26-.23-.56-.3-1.18-.21-1.78.15-.64.53-1.34,1.06-2.02.06-.05.13-.11.2-.17.62.38,1.22.81,1.77,1.29-.1.02-.2.06-.29.11-.02.01-.05.03-.08.04-.01,0-.03.02-.06.04-.21.14-.38.33-.49.54-.13.26-.18.56-.14.86.02.16.07.31.14.45.36.7,1.23.98,1.92.63.7-.35.99-1.22.63-1.93-.02-.03-.04-.06-.06-.09l-.06-.08c-.05-.06-.11-.12-.16-.17-.03-.04-.07-.07-.1-.11-.78-.81-1.65-1.51-2.57-2.08-.06-.03-.11-.06-.16-.1l-.23-.14c-.35-.2-.89-.48-1.49-.7.07-.67.08-1.37.03-2.08.53.1,1.83.45,3.37,1.51.11.08.22.15.35.24.35.25.68.52.99.81.2.18.42.39.64.61l.08.08c.07.07.13.13.21.21.02.02.05.05.08.09l.04.04s.03.04.05.06c.16.15.28.27.39.4l.1.13c.1.14.2.29.29.46.62,1.22.45,2.69-.42,3.74-.14.18-.31.34-.51.49ZM16.04,24.49l.06-.06c.07-.08.14-.16.2-.22l.04-.03s.03-.02.05-.03c.24-.12.52-.11.76.04h0c.09.09.18.18.25.27l.03.04c.09.18.11.39.05.59-.06.2-.2.36-.38.45-.18.09-.39.11-.59.05-.2-.06-.36-.2-.45-.38-.11-.22-.11-.48,0-.7ZM8.18,23.41c-.28-1.26-1.39-2.16-2.66-2.2,0-.09.02-.2.04-.32.25-1.37,1.27-2.44,2.62-2.73.47-.11.96-.11,1.43,0,.12.74.17,1.48.17,2.2-.33-.25-.76-.35-1.17-.26-.37.08-.69.31-.9.63-.21.32-.27.71-.19,1.08.08.37.31.69.63.9.32.2.7.27,1.08.18.18-.04.34-.11.48-.21.3-.2.52-.52.6-.92,0-.01,0-.03,0-.05,0-.02,0-.03.01-.05.14-1.07.12-2.28-.06-3.51-.02-.15-.05-.31-.07-.46-.04-.21-.08-.42-.12-.64-.03-.15-.07-.31-.11-.46l-.02-.09c.68-.42,1.31-.89,1.88-1.38.17.5.3.97.41,1.44.26,1.16.37,2.34.34,3.43h0s-.02.26-.02.26c-.04.66-.13,1.25-.26,1.76-.1.4-.23.78-.39,1.11-.47.86-1.29,1.47-2.24,1.69-.03,0-.05.01-.08.01-.03,0-.06.01-.09.02-.39.06-.73.06-1.06.01h-.07s-.08-.02-.13-.04c-.04,0-.07-.02-.1-.03.14-.46.15-.95.05-1.4ZM9.16,16.22c-.24.13-.88.47-1.29.56-1.34.3-2.72-.23-3.52-1.34-.15-.21-.27-.42-.35-.62,1.2-.56,1.85-1.87,1.56-3.16-.07-.33-.21-.65-.41-.95h0s.11-.14.11-.14c.1-.06.2-.12.31-.18.26-.14.52-.23.82-.29.09-.02.18-.04.27-.05.61-.09,1.22,0,1.77.23.59.31,1.16.83,1.7,1.53.02.04.05.09.07.14-.45.48-.96.94-1.52,1.37-.07-.12-.14-.24-.2-.34-.08-.24-.22-.45-.4-.62-.21-.19-.5-.32-.8-.35-.17-.02-.32,0-.46.02-.37.08-.69.31-.9.63s-.27.71-.19,1.08c.08.37.31.69.63.9.32.2.7.27,1.08.18.04,0,.07-.02.11-.04.02,0,.03-.01.05-.02.14-.05.26-.13.35-.19.15-.08.44-.25.62-.37l.33-.23c.62-.45,1.19-.95,1.7-1.48.04-.04.08-.08.11-.12l.2-.22s.05-.06.07-.08c.46-.52.75-.94.89-1.16.61.22,1.28.41,2,.54-.23.49-.78,1.5-1.92,2.64-.06.06-.12.11-.18.17l-.14.13c-.36.33-.78.67-1.24,1.01-.3.21-.55.38-.79.53-.05.03-.1.06-.15.09-.07.04-.13.08-.2.12l-.1.06h0ZM7.77,13.86c-.11.17-.28.29-.48.34h0c-.2.04-.4,0-.57-.1-.18-.11-.3-.29-.35-.49-.05-.2,0-.41.1-.58.11-.17.28-.29.48-.34.05-.01.11-.02.16-.02.19,0,.37.07.52.19l.06.08c.06.08.11.17.16.24.01.03.02.06.03.09.05.2,0,.41-.1.58ZM12.38,3.19c-.19,1.02-1.08,1.76-2.12,1.76-.31,0-.61-.06-.87-.19-.13-.06-.24-.12-.34-.19-.59-.4-.95-1.07-.95-1.78,0-1.19.97-2.15,2.15-2.15s2.15.97,2.15,2.17c0,.13-.01.26-.04.38ZM9.04,5.89c.03-.12.07-.24.12-.35.02-.02.03-.03.04-.05l.03-.08v-.02c.33.13.68.2,1.04.2,1.33,0,2.46-.92,2.74-2.21.23.04.46.12.68.21,1.26.54,2.07,1.77,2.07,3.14,0,.47-.1.94-.3,1.39-.75-.05-1.48-.16-2.17-.33.3-.27.48-.66.48-1.06,0-.79-.64-1.43-1.43-1.43s-1.43.64-1.43,1.43c0,.14.03.29.08.46.1.29.28.53.52.7.2.15.44.23.66.25.96.33,2.01.54,3.14.63h.06c.13.02.27.03.4.03.42.02.85.03,1.27,0,.19.54.49,1.31.95,2.14-.5.05-.98.08-1.47.08-1.29,0-2.57-.17-3.7-.49-.46-.13-.92-.3-1.38-.51l-.06-.03h-.01c-.78-.36-1.41-.81-1.82-1.29-.36-.5-.57-1.09-.62-1.71,0-.09-.01-.18-.01-.27,0-.27.04-.55.11-.85ZM13.11,6.74c0,.43-.35.77-.77.77h-.06s0,0,0,0c-.09-.03-.18-.07-.27-.1l-.1-.04c-.2-.14-.33-.38-.33-.63,0-.43.35-.77.77-.77s.77.35.77.77ZM23.74,4.39c-.11.09-.21.17-.31.23-.35.21-.74.32-1.13.32-1.02,0-1.91-.72-2.11-1.72-.02-.11-.04-.23-.04-.38v-.05c0-1.19.97-2.15,2.15-2.15s2.15.97,2.15,2.15c0,.62-.25,1.18-.71,1.6ZM23.71,5.35c.03.06.06.12.08.18.06.16.11.32.14.47.04.19.07.38.07.57,0,.03,0,.06,0,.09,0,.03,0,.06,0,.09,0,.98-.42,1.91-1.15,2.55-.28.22-.62.43-1,.62-.19.08-.39.13-.6.18-.41-.54-.75-1.13-1.01-1.75.29-.08.56-.16.81-.26.04-.02.08-.03.12-.05.34-.15.6-.43.74-.78.07-.17.1-.34.1-.52,0-.79-.64-1.43-1.43-1.43s-1.43.64-1.43,1.43c0,.06,0,.12.01.16,0,.02.04.49.24,1.12.04.12.09.25.14.39.27.68.63,1.34,1.07,1.95.05.07.09.13.15.19.05.06.1.13.16.2l.1.12c.31.36.62.68.93.97-.35.53-.68,1.14-.97,1.81-.74-.57-1.43-1.35-2.05-2.33-.08-.12-.15-.25-.22-.37-.25-.45-.48-.89-.67-1.33-.14-.32-.27-.65-.39-.98l-.05-.14c-.02-.06-.04-.12-.07-.19l-.04-.07c-.11-.23-.2-.49-.26-.75-.05-.25-.08-.49-.08-.72,0-1.38.82-2.62,2.1-3.15h.03s.01-.03.01-.03c.09-.04.18-.07.27-.09.32,1.24,1.44,2.12,2.73,2.12.47,0,.94-.12,1.36-.35.02.03.03.06.05.1ZM21.36,6.75c0,.43-.35.77-.77.77s-.77-.35-.77-.77.35-.77.77-.77.77.35.77.77ZM9.08,22.25h0c-.41.09-.82-.17-.92-.59-.05-.2,0-.41.1-.58.11-.17.28-.29.48-.34.06-.01.11-.02.17-.02.15,0,.29.04.41.12.18.11.3.28.34.49.09.41-.17.83-.59.92ZM14.55,11.57c1.24.17,2.48.18,3.79.02.69,1.13,1.5,2.03,2.41,2.69-.24.63-.43,1.29-.58,1.96-.13.58-.22,1.17-.29,1.81-1.4.49-2.35,1.11-2.93,1.56-1.85-1.27-3.36-1.58-3.83-1.65-.06-.54-.15-1.04-.26-1.53l-.05-.22h0c-.12-.5-.28-1.02-.47-1.56,1.31-1.28,1.93-2.45,2.2-3.08ZM3.65,14.24c-.13.05-.25.09-.37.12l-.13.03c-1.11.18-2.2-.54-2.45-1.66-.26-1.16.48-2.31,1.64-2.58.16-.03.31-.05.47-.05.55,0,1.07.21,1.48.59.09.09.18.18.25.29.18.24.31.52.37.81.23,1.01-.3,2.04-1.26,2.45ZM7.49,24.68l-.02.03c-.04.12-.1.24-.16.35-.3.53-.81.91-1.4,1.04-1.17.26-2.31-.48-2.58-1.63-.26-1.16.48-2.31,1.61-2.57.02,0,.05,0,.08,0,.13-.02.27-.04.42-.04,1,0,1.88.7,2.1,1.69.08.37.06.76-.06,1.14Z"/>
  </g>
</svg>