<?xml version="1.0" encoding="UTF-8"?>
<svg id="Layer_2" xmlns="http://www.w3.org/2000/svg" version="1.1" viewBox="0 0 175.6 32.1">
  <!-- Generator: Adobe Illustrator 30.0.0, SVG Export Plug-In . SVG Version: 2.1.1 Build 123)  -->
  <defs>
    <style>
      .st0 {
        fill: #44bb8d;
      }
    </style>
  </defs>
  <path class="st0" d="M31.6,10.9c-.4-.6-1-1.1-1.8-1.2h0c-.8-.2-1.6,0-2.3.5,0,0,0,0,0,0-.4-.3-.8-.4-1.3-.5h0s0,0,0,0c0,0,0,0,0,0-.7-.1-1.3,0-2,.2,0,0-.1,0-.2,0,.5-.7.7-1.5.7-2.3s0-.2,0-.2c0-.3,0-.7-.2-1,0-.1,0-.3-.2-.4.5-.5.8-1.2.8-1.9,0-1.6-1.3-2.8-2.8-2.8s-2.7,1.2-2.8,2.7c0,0-.1,0-.2,0-.2,0-.4.2-.6.3-.8.5-1.4,1.3-1.7,2.1-.3-.9-.9-1.6-1.7-2.1-.2-.1-.4-.2-.6-.3-.2,0-.4-.1-.5-.2-.1-1.4-1.4-2.6-2.8-2.6s-2.8,1.3-2.8,2.8.4,1.6,1,2.2c0,0,0,0,0,0-.2.4-.2.9-.2,1.4s0,.2,0,.3c0,.7.3,1.3.6,1.9,0,.1.2.2.3.4-.1,0-.2,0-.3-.1-.6-.2-1.3-.3-2-.2,0,0-.2,0-.3,0-.4,0-.9.3-1.3.5,0,0,0,0,0,0-.7-.5-1.5-.7-2.3-.5-.7.2-1.4.6-1.8,1.2-.4.6-.5,1.4-.4,2.1.2.7.6,1.4,1.2,1.8.6.4,1.2.5,1.9.4,0,.2.2.3.3.5.2.2.3.4.4.5.7.7,1.5,1.1,2.4,1.2-.8.5-1.4,1.2-1.7,2.2,0,.3-.1.5-.2.7,0,0,0,.1,0,.2-.7.2-1.2.6-1.6,1.2-.4.6-.5,1.4-.4,2.1.3,1.5,1.9,2.5,3.4,2.1.7-.2,1.3-.6,1.7-1.2.1,0,.3,0,.4,0,.3,0,.7,0,1,0h0s0,0,0,0c0,0,0,0,.1,0,1-.2,1.8-.8,2.4-1.6,0,.1,0,.2,0,.3,0,.6,0,1.3.3,2v.3c.3.4.6.8,1,1.1,0,0,0,0,0,0-.3.8-.3,1.6,0,2.4.5,1,1.4,1.5,2.5,1.5s.9-.1,1.3-.3c1.3-.7,1.9-2.2,1.3-3.6.1-.1.3-.3.4-.4.1-.2.3-.3.4-.6.5-.8.7-1.6.6-2.5.5.5,1.2.9,1.9,1h.2s0,0,0,0c.3,0,.7,0,1.1,0,.2,0,.3,0,.4,0,.4.6,1,1,1.7,1.2,1.5.3,3-.6,3.4-2.1.3-1.5-.6-2.9-2-3.3,0,0,0-.1,0-.2,0-.2,0-.4-.2-.7-.3-.9-.9-1.7-1.7-2.2.9,0,1.8-.5,2.5-1.2.2-.2.3-.4.4-.5.1-.2.2-.3.3-.5,1.4.2,2.8-.8,3.1-2.2.2-.7,0-1.4-.3-2,0,0,0,0,0,0ZM13.9,21.4c-.1.1-.2.3-.3.4,0,0,0-.2,0-.3,0,0,0-.2,0-.2,0,0,.1,0,.2.1ZM8.2,23.9s0,0,0,0c0,0,0,.2-.1.3-.2.4-.6.7-1.1.8-.9.2-1.8-.4-2.1-1.3-.2-.9.4-1.8,1.2-2h.1c.1,0,.2,0,.3,0,.8,0,1.5.6,1.7,1.3,0,.3,0,.6,0,.9ZM24,23.7h0c-.3,0-.6,0-.9,0,0,0,0,0-.1,0-.8-.2-1.5-.7-1.9-1.4-.1-.2-.2-.5-.3-.9,0,0,0-.1,0-.2.4-.2.8-.3,1.3-.4,0,0,0,.2,0,.3,0,0,0,0,0,.1,0,0,0,0,0,0,0,.4.3.7.7,1,.2.1.3.2.5.2.3,0,.6,0,.9,0,0,0,0,0,0,.1,0,0,0,0,0,0,0,.4,0,.8,0,1.1ZM9.3,22.7s0,0,0,0c0,0,0,0,0-.1.3,0,.6,0,.8,0,.2,0,.4-.1.5-.2.3-.2.6-.6.7-1s0,0,0,0c0,0,0,0,0,0,.1-1,.1-2.1,0-3.3l-.2-1c0-.1,0-.2,0-.3.4-.3.9-.6,1.3-.9,0,.3.2.6.3.9.2,1,.3,2.1.3,3.1v.2c0,.6-.1,1.1-.2,1.6,0,.4-.2.7-.3,1-.4.7-1.1,1.2-1.8,1.4,0,0,0,0,0,0,0,0-.1,0-.1,0-.3,0-.6,0-.9,0,0-.4,0-.8,0-1.2ZM12.6,4.2s0,0,0,.1c-.2.8-.9,1.3-1.7,1.3s-.5,0-.7-.2c-.1,0-.2,0-.3-.2-.5-.3-.8-.9-.8-1.4,0-.9.8-1.7,1.7-1.7s1.7.8,1.7,1.7,0,.2,0,.3ZM10,6.9s0,0,0,0c0,0,0-.1,0-.2.5.1,1,.2,1.4,0-.2.2-.3.5-.3.9s0,.3,0,.5c.1.3.3.6.6.8.2.2.5.3.7.3.9.3,1.9.5,3,.6.1,0,.3,0,.4,0,.3,0,.6,0,1,0,.2.5.4,1,.6,1.5-.3,0-.6,0-.9,0-1.2,0-2.3-.2-3.3-.4-.4-.1-.8-.3-1.3-.5,0,0,0,0,0,0-.7-.3-1.2-.7-1.5-1.1-.3-.4-.5-.9-.5-1.4,0,0,0,0,0-.1h0c0-.3,0-.5,0-.7ZM21.7,6.8c.5,0,.9,0,1.4-.2,0,.1,0,.3.1.4,0,.1,0,.3,0,.5v.2c0,.8-.4,1.6-1,2.1-.2.2-.5.4-.9.5-.1,0-.2,0-.3.1-.3-.4-.5-.8-.7-1.2.2,0,.3-.1.5-.2,0,0,0,0,0,0,.4-.2.7-.5.8-.8,0-.2.1-.4.1-.6s0-.6-.2-.8ZM26.4,11.8c0,.2,0,.4,0,.6-.2-.2-.5-.4-.8-.4-.2,0-.3,0-.5,0-.3,0-.6.2-.9.4-.2.2-.4.4-.4.6-.5.8-.9,1.7-1.2,2.7,0,.1,0,.3-.1.4,0,.2-.1.5-.2.7,0,0,0,.2,0,.3-.5,0-1.1.2-1.6.3,0-.3.1-.6.2-.9.3-1.1.6-2.2,1.2-3.1.2-.4.5-.8.7-1.1.5-.6,1-1.1,1.5-1.3.4-.2.7-.2,1.1-.2s.3,0,.4,0c0,0,.1,0,.2,0,.2,0,.4.1.7.2,0,0,.1,0,.2,0-.1.2-.2.5-.3.8ZM16.7,24.5c-.1,0-.2-.1-.3-.2,0-.1,0-.3,0-.4,0,0,0,0,0,0,0,0,.1-.1.2-.2.1,0,.3,0,.4,0,0,0,.1.1.2.2,0,.1,0,.2,0,.4,0,.1-.1.2-.2.3-.1,0-.2,0-.4,0ZM14.9,22c.4.3.8.5,1.1.8,0,0,0,0,0,0-.2.1-.4.4-.5.6-.1.3-.2.6-.2.9,0,.2,0,.3.2.5.1.3.3.5.6.6-.2,0-.4.1-.5.2-.3.1-.5.3-.7.5,0,0,0,0,0,0h0c-.2-.3-.3-.5-.4-.7,0,0,0-.2-.1-.2-.2-.5-.3-1-.2-1.5.1-.5.4-1.1.9-1.7h0ZM8.5,13.9s0,0,0,0c0,.1-.2.2-.3.2-.1,0-.2,0-.3,0-.1,0-.2-.2-.2-.3,0-.1,0-.2,0-.3,0-.1.2-.2.3-.2,0,0,0,0,0,0,.1,0,.2,0,.3.1h0c0,0,0,.1,0,.2,0,0,0,0,0,.1,0,0,0,.2,0,.3ZM20.4,8c-.2,0-.5-.2-.5-.5s.2-.5.5-.5.5.2.5.5-.2.5-.5.5ZM9.3,20.8c0-.1.2-.2.3-.2,0,0,0,0,0,0,0,0,.2,0,.2,0,.1,0,.2.2.2.3,0,.1,0,.2,0,.3,0,.1-.2.2-.3.2,0,0,0,0,0,0-.2,0-.5-.1-.5-.4,0-.1,0-.2,0-.3ZM15,12.2c1.1.1,2.1.1,3.2,0,.6.9,1.3,1.7,2,2.3-.2.5-.3,1.1-.5,1.6-.1.5-.2,1-.3,1.5-.9.3-1.7.8-2.5,1.3-1.5-1-2.7-1.3-3.3-1.4,0-.4-.1-.8-.2-1.2v-.2c-.1-.4-.3-.8-.4-1.3,1-1,1.6-1.9,1.9-2.6ZM24.8,13.4h0c0-.1,0-.2,0-.2,0,0,.2-.1.3-.1,0,0,0,0,0,0,.1,0,.2,0,.3.2s0,.2,0,.3c0,.3-.3.4-.5.4-.2,0-.4-.3-.4-.5h0c0,0,0,0,0,0ZM24.8,13.4h0s0,0,0,0c0,0,0,0,0,0ZM23.1,5.2c0,0-.2.1-.2.2-.3.2-.6.3-.9.3-.8,0-1.5-.6-1.7-1.4,0,0,0-.2,0-.3,0-.9.8-1.7,1.7-1.7s1.7.8,1.7,1.7-.2.9-.6,1.3ZM18.8,7.5c0,0,0,.1,0,.1,0,0,0,.5.2,1.1,0,0,0,.2,0,.2h0c.3.8.6,1.4,1,2,0,0,0,.1.1.2h0c0,.1,0,.1,0,.2h0c.2.4.5.6.7.9-.2.4-.5.8-.7,1.2-.6-.5-1.1-1.1-1.6-1.9,0,0,0-.2-.1-.2h0c-.3-.6-.5-.9-.6-1.3-.1-.3-.2-.6-.4-.9h0c0-.2,0-.2,0-.3h0c0-.2-.2-.5-.2-.7,0-.2,0-.4,0-.6,0-1.1.7-2.2,1.7-2.6,0,0,0,0,0,0,.2.4.4.8.7,1.1-.7.2-1.2.8-1.2,1.5ZM12.4,7.5c0-.2.2-.5.5-.5s.4.2.5.4c0,0,0,0,0,0,0,.2-.2.4-.5.5h0s0,0-.1,0h0c-.1,0-.2-.2-.2-.4ZM15.5,8.5c-.5,0-.9-.1-1.4-.2.2-.2.2-.5.2-.8,0-.8-.7-1.5-1.5-1.6.3-.3.6-.7.7-1.2.1,0,.2,0,.3.1,1.1.5,1.7,1.5,1.7,2.6s0,.7-.2,1ZM9.6,13.2h0c0-.3-.2-.5-.4-.7-.2-.2-.6-.4-.9-.4,0,0-.1,0-.2,0-.1,0-.2,0-.3,0-.3,0-.6.2-.8.4,0-.2,0-.4,0-.6,0-.3-.2-.5-.3-.8,0,0,.1,0,.2-.1.2-.1.4-.2.7-.2,0,0,.1,0,.2,0,.5,0,1,0,1.5.2.5.3,1,.7,1.4,1.3-.3.3-.6.6-1,.9ZM6.6,14c0,.4.3.7.7.9.4.2.8.3,1.1.2,0,0,.1,0,.2,0,0,0,0,0,0,0,.2,0,.3-.1.4-.2.1,0,.4-.2.6-.4l.3-.2c.6-.4,1.1-.9,1.6-1.4,0,0,0,0,.1-.1l.2-.3c.3-.4.6-.7.7-.9.4.2.9.3,1.4.4-.3.5-.8,1.3-1.6,2.1l-.3.3c-.3.3-.7.6-1.1.9-.3.2-.5.3-.8.5l-.4.2s0,0,0,0c-.6.3-.9.4-1,.4-1.1.3-2.3-.2-3-1.1,0-.1-.1-.2-.2-.3.4-.2.8-.6,1-1ZM10.1,18.2c0,.4.1.9.1,1.4-.3,0-.6-.1-.9,0-.4,0-.7.3-1,.7-.2.2-.2.5-.2.8-.4-.3-.8-.4-1.3-.5,0,0,0,0,0,0,.2-1.2,1.1-2.1,2.2-2.3.3,0,.7,0,1,0ZM15.3,27.4s0,0,0,0c0,0,0-.1.1-.2h0c.1-.3.3-.4.6-.5.7-.3,1.6-.2,2.2.5,0,0,0,.1.1.2,0,0,0,0,0,0,.4.8,0,1.9-.8,2.3-.8.4-1.9,0-2.3-.8-.3-.5-.2-1.1,0-1.6ZM17.6,25.5c.3-.2.6-.5.7-.9.1-.4,0-.8,0-1.2,0,0,0-.1,0-.1h0c0-.1-.1-.2-.1-.2,0,0,0,0-.1-.1-.7-.7-1.5-1.4-2.4-2,0,0,0,0-.1,0h-.2c-.2-.3-.7-.5-1.2-.7,0-.5,0-.9,0-1.4.5.1,1.5.5,2.7,1.3,0,0,.1,0,.2.1h.1c.3.3.6.6.9.8.2.2.4.4.6.5l.3.3s0,0,0,0c0,0,0,0,0,0,.1.1.2.2.3.3h0c0,.2.2.4.2.5.5,1,.4,2.3-.4,3.2,0,0-.2.2-.2.3-.3-.3-.8-.6-1.2-.7ZM23.1,20.8s0,0,0,0c0-.1.1-.3.2-.3.1,0,.2,0,.3,0,.1,0,.2.1.3.2,0,.1,0,.2,0,.3,0,.1,0,.2-.2.3-.1,0-.2,0-.3,0-.2,0-.4-.3-.4-.5ZM25.1,20.9c0-.7-.5-1.4-1.2-1.6-.1,0-.2,0-.3,0s-.3,0-.4,0l-.9.2c-.7.1-1.4.4-2,.6h-.3c0,.1,0,.2-.1.2,0,0,0,0,0,0,0,0,0,0,0,0-.2.1-.5.2-.7.3-.4-.4-.7-.7-1.1-1,.4-.3,1.1-.7,2-1,.1,0,.2,0,.4-.1.4-.1.8-.2,1.3-.3h.1c.2,0,.5-.1.8-.2,0,0,.2,0,.3,0,0,0,0,0,0,0h0c.1,0,.3,0,.5,0,.3,0,.5,0,.8,0,1.1.3,2,1.2,2.2,2.3h0c-.5,0-.9.3-1.3.5ZM24.6,16.3c-.3,0-.7-.2-.9-.4.1-.5.3-.9.5-1.3.2.2.5.4.8.4.4,0,.8,0,1.2-.2.3-.2.6-.5.7-.9.2.4.6.7,1,1,0,0-.1.2-.2.3-.7.9-1.8,1.4-3,1.1ZM4.8,14.2c-.1,0-.2,0-.3,0h-.1c-.9.2-1.8-.4-2-1.3-.2-.9.4-1.8,1.3-2.1.1,0,.3,0,.4,0,.4,0,.9.2,1.2.5,0,0,.1.1.2.2.1.2.2.4.3.6.2.8-.2,1.6-1,2ZM26.8,21.4c0,0,.2,0,.3,0h.2c.4.2.7.4,1,.8.2.4.3.9.2,1.3-.2.9-1.1,1.5-2.1,1.3-.5-.1-.9-.4-1.1-.8,0,0,0-.2-.1-.3-.1-.3-.1-.6,0-.9,0,0,0,0,0,0,.2-.8.9-1.3,1.7-1.3ZM30.8,12.8s0,0,0,.1h0c-.3.9-1.2,1.4-2,1.2-.1,0-.2,0-.3,0-.8-.3-1.2-1.2-1-2,0-.2.1-.4.3-.6,0,0,.1-.2.2-.2.3-.3.7-.5,1.2-.5s.3,0,.4,0c.9.2,1.5,1.1,1.3,2.1ZM21.9,11.3s0,0,0,0c0,0,0,0,.1,0,0,0,0,0,0,.1ZM11.4,11.3s0,0-.1.1c0,0-.1-.2-.2-.3.1,0,.2,0,.3.1Z"/>
  <path class="st0" d="M44.5,19.8c0,0-.1,0-.2,0,0,0-.1,0-.2,0-.4.5-.9.8-1.5,1.1-.5.2-1.1.3-1.7.3s-1.2-.1-1.8-.4c-.6-.2-1-.6-1.5-1-.4-.5-.8-1-1-1.5-.2-.6-.3-1.3-.3-2s.1-1.4.3-2c.2-.6.6-1.1,1-1.5.4-.4.9-.8,1.5-1,1-.5,2.4-.5,3.5,0,.5.2,1,.6,1.5,1.1,0,0,.1,0,.2,0,0,0,.1,0,.2,0l.8-.8c0,0,0-.2,0-.3-.5-.6-1.2-1.1-1.9-1.4-.8-.3-1.6-.5-2.4-.5s-1.7.2-2.5.5c-.8.3-1.4.8-2,1.4-.6.6-1,1.3-1.3,2.1-.3.8-.5,1.7-.5,2.6s.2,1.8.5,2.6c.3.8.7,1.5,1.3,2.1.6.6,1.2,1.1,2,1.4.8.3,1.6.5,2.5.5s0,0,.1,0c.8,0,1.6-.2,2.3-.5.8-.3,1.4-.8,1.9-1.4,0,0,0-.2,0-.3l-.8-.8Z"/>
  <path class="st0" d="M53.6,13.4c-.6-.3-1.2-.5-2-.5s-1.6.2-2.3.6c-.3.2-.5.4-.7.6v-4.7c0-.1-.1-.2-.2-.2h-1.2c-.1,0-.2.1-.2.2v13.2c0,0,0,.2.1.2,0,0,0,0,.1,0h1.2c.1,0,.2-.1.2-.2v-4.9c0-.7.1-1.2.3-1.7.2-.5.5-.8.9-1,.4-.2.9-.4,1.5-.4s1.3.2,1.7.7c.4.4.6,1.1.6,2.1v5.3c0,.1.1.2.2.2h1.2c.1,0,.2-.1.2-.2v-5.4c0-.9-.2-1.7-.5-2.3-.3-.6-.8-1.1-1.3-1.4Z"/>
  <path class="st0" d="M61.3,12.9c-.7,0-1.4.1-2,.3-.6.2-1.2.6-1.7,1,0,0-.1.2,0,.3l.5.9c0,0,.1.1.2.1,0,0,.2,0,.2,0,.3-.3.7-.6,1.2-.7.5-.2,1-.3,1.5-.3s1.3.2,1.6.6c.4.4.5.9.5,1.6v.3h-2.5c-.8,0-1.5.1-2.1.4-.5.3-.9.6-1.1,1.1-.2.4-.3.9-.3,1.4s.1,1.1.4,1.5c.3.4.7.8,1.2,1.1.5.2,1.1.4,1.8.4s0,0,.1,0c.8,0,1.5-.2,2.1-.6.2-.1.4-.3.5-.5v.7c0,.1.1.2.2.2h1.1c.1,0,.2-.1.2-.2v-5.8c0-1.3-.3-2.3-1-2.9-.7-.6-1.6-1-2.7-1ZM62.4,21c-.4.3-.9.4-1.5.4s-1.1-.1-1.4-.4c-.3-.3-.5-.6-.5-1.1s.1-.7.4-1c.3-.3.8-.4,1.6-.4h2.5v1.2c-.2.6-.5,1-.9,1.3Z"/>
  <path class="st0" d="M80.6,13.4c-.5-.3-1.2-.5-1.9-.5s-1.8.3-2.4.8c-.4.3-.7.6-.9.9-.2-.4-.5-.7-.8-.9-.6-.5-1.4-.7-2.3-.7s-1.6.2-2.2.6c-.3.2-.5.4-.7.6v-.9c0-.1-.1-.2-.2-.2h-1.1c-.1,0-.2.1-.2.2v9.2c0,0,0,.1,0,.2,0,0,.1.2.2.2h1.2c.1,0,.2-.1.2-.2v-4.9c0-.7.1-1.3.3-1.7.2-.5.5-.8.9-1,.4-.2.9-.4,1.4-.4s1.2.2,1.6.7c.4.4.6,1.1.6,2.1v5.3c0,.1.1.2.2.2h1.2c.1,0,.2-.1.2-.2v-4.9c0-.7.1-1.3.3-1.7.2-.5.5-.8.9-1,.4-.2.9-.4,1.4-.4s1.2.2,1.6.7c.4.4.6,1.1.6,2.1v5.3c0,.1.1.2.2.2h1.2c.1,0,.2-.1.2-.2v-5.4c0-1-.1-1.7-.5-2.3-.3-.6-.7-1.1-1.3-1.4Z"/>
  <path class="st0" d="M88.3,12.9c-.7,0-1.4.1-2,.3-.6.2-1.2.6-1.7,1,0,0-.1.2,0,.3l.5.9c0,0,.1.1.2.1,0,0,.2,0,.2,0,.3-.3.7-.6,1.2-.7.5-.2,1-.3,1.5-.3s1.3.2,1.6.6c.4.4.5.9.5,1.6v.3h-2.5c-.8,0-1.5.1-2.1.4-.5.3-.9.6-1.1,1.1-.2.4-.3.9-.3,1.4s.1,1.1.4,1.5c.3.4.7.8,1.2,1.1.5.2,1.1.4,1.8.4s0,0,.1,0c.8,0,1.5-.2,2.1-.6.2-.1.4-.3.5-.5v.7c0,.1.1.2.2.2h1.1c.1,0,.2-.1.2-.2v-5.8c0-1.3-.3-2.3-1-2.9-.7-.6-1.6-1-2.7-1ZM89.4,21c-.4.3-.9.4-1.5.4s-1.1-.1-1.4-.4c-.3-.3-.5-.6-.5-1.1s.1-.7.4-1c.3-.3.8-.4,1.6-.4h2.5v1.2c-.2.6-.5,1-.9,1.3Z"/>
  <path class="st0" d="M96.9,12.9c.4-.4.9-.8,1.5-1,1-.5,2.4-.5,3.5,0,.5.2,1,.6,1.5,1.1,0,0,0,0,.2,0,0,0,.1,0,.2,0l.8-.8c0,0,0-.2,0-.3-.5-.6-1.2-1.1-1.9-1.4-.8-.3-1.6-.5-2.4-.5s-1.7.2-2.5.5c-.8.3-1.4.8-2,1.4-.6.6-1,1.3-1.3,2.1-.3.8-.5,1.7-.5,2.6s.2,1.8.5,2.6c.3.8.7,1.5,1.3,2.1.6.6,1.2,1.1,2,1.4.8.3,1.6.5,2.5.5s0,0,.1,0c.8,0,1.6-.2,2.3-.5.8-.3,1.4-.8,1.9-1.4,0,0,0-.2,0-.3l-.8-.8c0,0-.1,0-.2,0,0,0-.1,0-.2,0-.4.5-.9.8-1.5,1.1-.5.2-1.1.3-1.7.3s-1.2-.1-1.8-.4c-.6-.2-1-.6-1.5-1-.4-.5-.8-1-1-1.5-.2-.6-.3-1.3-.3-2s.1-1.4.3-2c.2-.6.6-1.1,1-1.5Z"/>
  <path class="st0" d="M111.9,13.6c-.7-.4-1.5-.6-2.4-.6s-1.7.2-2.4.6c-.7.4-1.2,1-1.6,1.8-.4.7-.6,1.6-.6,2.6s.2,1.8.6,2.6c.4.7,1,1.3,1.7,1.8.7.4,1.5.6,2.4.6s1.7-.2,2.4-.7c.7-.4,1.3-1,1.6-1.8.4-.8.6-1.6.6-2.6s-.2-1.9-.6-2.6c-.4-.8-1-1.3-1.6-1.8ZM112.5,17.9c0,.7-.1,1.3-.4,1.8s-.6.9-1,1.2c-.4.3-.9.4-1.5.4h0c-.5,0-1-.1-1.5-.4-.4-.3-.8-.7-1.1-1.2-.3-.5-.4-1.1-.4-1.8s.1-1.3.4-1.8c.3-.5.6-.9,1.1-1.2.5-.3.9-.4,1.5-.4s1.1.1,1.5.4c.4.3.8.7,1,1.2.3.5.4,1.1.4,1.8Z"/>
  <path class="st0" d="M122.6,13.4c-.6-.3-1.2-.5-2-.5s-1.6.2-2.3.6c-.3.2-.5.4-.7.6v-.9c0-.1-.1-.2-.2-.2h-1.1c-.1,0-.2.1-.2.2v9.3c0,0,0,.2.2.2,0,0,0,0,.1,0h1.2c.1,0,.2-.1.2-.2v-4.9c0-.7.1-1.2.3-1.7.2-.5.5-.8.9-1,.4-.2.9-.4,1.5-.4s1.3.2,1.7.7c.4.4.6,1.1.6,2.1v5.3c0,.1.1.2.2.2h1.2c.1,0,.2-.1.2-.2v-5.4c0-.9-.2-1.7-.5-2.3-.3-.6-.8-1.1-1.3-1.4Z"/>
  <path class="st0" d="M133.7,13.4c-.6-.3-1.2-.5-2-.5s-1.6.2-2.3.6c-.3.2-.5.4-.7.6v-.9c0-.1-.1-.2-.2-.2h-1.1c-.1,0-.2.1-.2.2v9.3c0,0,0,.2.2.2,0,0,0,0,.1,0h1.2c.1,0,.2-.1.2-.2v-4.9c0-.7.1-1.2.3-1.7.2-.5.5-.8.9-1,.4-.2.9-.4,1.5-.4s1.3.2,1.7.7c.4.4.6,1.1.6,2.1v5.3c0,.1.1.2.2.2h1.2c.1,0,.2-.1.2-.2v-5.4c0-.9-.2-1.7-.5-2.3-.3-.6-.8-1.1-1.3-1.4Z"/>
  <path class="st0" d="M144,13.6c-.7-.4-1.4-.6-2.3-.6s-1.6.2-2.3.7c-.7.4-1.2,1-1.6,1.8-.4.7-.6,1.6-.6,2.6s.2,1.8.6,2.6c.4.7,1,1.3,1.7,1.8.7.4,1.5.6,2.4.6,0,0,0,0,0,0,.7,0,1.4-.1,2-.4.6-.3,1.1-.7,1.5-1.2,0,0,0-.2,0-.3l-.7-.8c0,0-.1,0-.2,0,0,0-.1,0-.2,0-.3.4-.7.7-1.1.8-.4.2-.9.3-1.4.3s-1.2-.1-1.6-.4c-.5-.3-.8-.7-1.1-1.2-.2-.3-.3-.7-.4-1.2h6.9c.1,0,.2-.1.2-.2v-.4c0-1-.2-1.8-.6-2.6-.4-.8-.9-1.3-1.6-1.8ZM139.2,16.1c.2-.5.6-.9,1-1.1.4-.3.9-.4,1.4-.4s1,.1,1.4.4c.4.3.8.7,1,1.1.2.3.3.7.3,1.1h-5.5c0-.4.2-.7.3-1.1Z"/>
  <path class="st0" d="M154.4,20c0,0-.1,0-.2,0,0,0-.1,0-.2.1-.3.4-.6.7-1,.9-.8.4-2,.4-2.8-.1-.4-.3-.8-.7-1.1-1.2-.3-.5-.4-1.1-.4-1.8s.1-1.3.4-1.8c.3-.5.6-.9,1.1-1.2.8-.5,1.9-.6,2.8-.1.4.2.7.5,1,.9,0,0,0,.1.2.1,0,0,.1,0,.2,0l.9-.6c.1,0,.1-.2,0-.3-.4-.6-.9-1.1-1.5-1.5-.6-.3-1.3-.5-2.1-.5s-1.7.2-2.4.6c-.7.4-1.3,1-1.7,1.8-.4.7-.6,1.6-.6,2.6s.2,1.8.6,2.6c.4.7,1,1.3,1.7,1.8.7.4,1.5.6,2.3.6,0,0,0,0,0,0,.8,0,1.4-.2,2.1-.5.6-.3,1.1-.8,1.5-1.5,0-.1,0-.2,0-.3l-.9-.6Z"/>
  <path class="st0" d="M162.3,21.9l-.4-.9c0,0-.1-.1-.2-.1,0,0-.2,0-.2,0-.3.3-.6.4-1.1.4s-.7-.1-.9-.4c-.2-.3-.3-.6-.3-1.1v-5.3h2.4c.1,0,.2-.1.2-.2v-1c0-.1-.1-.2-.2-.2h-2.4v-1.8c0-.1-.1-.2-.2-.2h-1.2c-.1,0-.2.1-.2.2v1.8h-1.3c-.1,0-.2.1-.2.2v1c0,.1.1.2.2.2h1.3v5.4c0,.9.2,1.7.7,2.2.5.5,1.1.8,2,.8,0,0,0,0,0,0,.4,0,.7,0,1.1-.2.3-.1.7-.3.9-.6,0,0,0-.2,0-.3Z"/>
</svg>