<?xml version="1.0" encoding="UTF-8"?>
<svg id="Layer_2" data-name="Layer 2" xmlns="http://www.w3.org/2000/svg" viewBox="0 0 682.33 202.8">
  <defs>
    <style>
      .cls-1 {
        fill: #3f3e37;
      }

      .cls-2 {
        fill: #ffcf4a;
      }

      .cls-3 {
        fill: #413f37;
      }
    </style>
  </defs>
  <g id="Layer_1-2" data-name="Layer 1">
    <g>
      <g>
        <path class="cls-3" d="M207.99,132.71c-1.71,0-3.17-.59-4.41-1.77-1.18-1.24-1.76-2.71-1.76-4.42v-31.66l-15.42,19.54c-1.18,1.53-2.79,2.3-4.85,2.3s-3.67-.77-4.85-2.3l-15.42-19.54v31.66c0,1.71-.59,3.18-1.76,4.42-1.23,1.18-2.7,1.77-4.41,1.77s-3.17-.59-4.41-1.77c-1.18-1.24-1.76-2.71-1.76-4.42v-49.52c0-2.95,1.38-4.89,4.14-5.84,2.76-1,5.05-.32,6.87,2.03l21.59,27.41,21.59-27.41c1.82-2.3,4.11-2.98,6.88-2.03,2.76.94,4.14,2.89,4.14,5.84v49.52c0,1.71-.59,3.18-1.76,4.42-1.23,1.18-2.7,1.77-4.41,1.77Z"/>
        <path class="cls-3" d="M226.5,77c0-1.71.62-3.18,1.85-4.42,1.18-1.18,2.61-1.77,4.32-1.77h24.68c6.11,0,11.31,2.15,15.6,6.46,4.29,4.3,6.43,9.52,6.43,15.65s-2.15,11.35-6.43,15.65c-4.29,4.3-9.49,6.46-15.6,6.46h-18.51v11.5c0,1.71-.59,3.15-1.76,4.33-1.23,1.24-2.7,1.86-4.41,1.86s-3.14-.62-4.32-1.86c-1.23-1.18-1.85-2.62-1.85-4.33v-49.52ZM238.84,102.65h18.51c2.58,0,4.88-.94,6.87-2.83,1.88-2,2.82-4.3,2.82-6.9s-.94-5.01-2.82-6.9c-2-1.89-4.29-2.83-6.87-2.83h-18.51v19.45Z"/>
        <path class="cls-3" d="M287.31,77c0-1.71.59-3.18,1.76-4.42,1.23-1.18,2.7-1.77,4.41-1.77s3.17.59,4.41,1.77c1.18,1.24,1.76,2.71,1.76,4.42v28.3c0,4.13,1.47,7.66,4.41,10.61,2.94,2.95,6.46,4.42,10.58,4.42s7.64-1.47,10.58-4.42c2.94-2.95,4.41-6.48,4.41-10.61v-28.3c0-1.71.59-3.18,1.76-4.42,1.23-1.18,2.7-1.77,4.41-1.77s3.17.59,4.41,1.77c1.17,1.24,1.76,2.71,1.76,4.42v28.3c0,7.55-2.67,14-8.02,19.37-5.35,5.37-11.78,8.05-19.3,8.05s-13.96-2.68-19.3-8.05c-5.35-5.36-8.02-11.82-8.02-19.37v-28.3Z"/>
        <path class="cls-3" d="M354.29,83.19c-1.71,0-3.17-.59-4.41-1.77-1.18-1.24-1.76-2.71-1.76-4.42s.59-3.18,1.76-4.42c1.23-1.18,2.7-1.77,4.41-1.77h42.3c1.7,0,3.17.59,4.41,1.77,1.17,1.24,1.76,2.71,1.76,4.42s-.59,3.18-1.76,4.42c-1.23,1.18-2.7,1.77-4.41,1.77h-14.98v43.33c0,1.71-.59,3.15-1.76,4.33-1.23,1.24-2.7,1.86-4.41,1.86s-3.14-.62-4.32-1.86c-1.23-1.18-1.85-2.62-1.85-4.33v-43.33h-14.98Z"/>
        <path class="cls-3" d="M415.99,132.71c-1.71,0-3.17-.59-4.41-1.77-1.18-1.24-1.76-2.71-1.76-4.42v-49.52c0-1.71.59-3.18,1.76-4.42,1.23-1.18,2.7-1.77,4.41-1.77h42.3c1.7,0,3.17.59,4.41,1.77,1.18,1.24,1.76,2.71,1.76,4.42s-.59,3.18-1.76,4.42c-1.23,1.18-2.7,1.77-4.41,1.77h-36.14v12.38h32.61c1.7,0,3.14.59,4.32,1.77,1.23,1.24,1.85,2.71,1.85,4.42s-.62,3.18-1.85,4.42c-1.18,1.18-2.61,1.77-4.32,1.77h-32.61v12.38h36.14c1.7,0,3.17.59,4.41,1.77,1.18,1.24,1.76,2.71,1.76,4.42s-.59,3.18-1.76,4.42c-1.23,1.18-2.7,1.77-4.41,1.77h-42.3Z"/>
        <path class="cls-3" d="M473.27,77c0-1.71.59-3.18,1.76-4.42,1.23-1.18,2.7-1.77,4.41-1.77h26.44c6.05,0,11.25,2.15,15.6,6.46,4.29,4.36,6.43,9.58,6.43,15.65,0,4.01-1,7.72-3,11.14-2,3.3-4.64,5.92-7.93,7.87l9.34,10.43c1.12,1.3,1.64,2.8,1.59,4.51-.12,1.71-.79,3.13-2.03,4.24-1.18,1.06-2.56,1.59-4.14,1.59-1.82,0-3.35-.68-4.58-2.03l-14.01-15.65h-17.54v11.5c0,1.71-.59,3.15-1.76,4.33-1.23,1.24-2.7,1.86-4.41,1.86s-3.17-.62-4.41-1.86c-1.18-1.18-1.76-2.62-1.76-4.33v-49.52ZM485.61,102.65h20.27c2.64,0,4.94-.94,6.87-2.83,1.88-1.94,2.82-4.24,2.82-6.9s-.94-5.01-2.82-6.9c-1.94-1.89-4.23-2.83-6.87-2.83h-20.27v19.45Z"/>
        <path class="cls-2" d="M593.05,123.69c.76,1.53.88,3.13.35,4.77-.53,1.59-1.56,2.77-3.08,3.54-.88.47-1.79.71-2.73.71-2.59,0-4.44-1.15-5.55-3.45l-4.5-8.93h-29.35l-4.49,8.93c-.76,1.53-1.94,2.56-3.53,3.1-1.65.53-3.23.41-4.76-.35-1.53-.77-2.56-1.95-3.08-3.54-.53-1.65-.41-3.24.35-4.77l24.68-49.52c1.06-2.06,2.91-3.1,5.55-3.1s4.41,1.03,5.46,3.1l24.68,49.52ZM571.37,107.95l-8.46-17.15-8.55,17.15h17.01Z"/>
        <path class="cls-2" d="M607.41,132.71c-1.71,0-3.17-.59-4.41-1.77-1.18-1.24-1.76-2.71-1.76-4.42v-49.52c0-1.71.59-3.18,1.76-4.42,1.23-1.18,2.7-1.77,4.41-1.77s3.17.59,4.41,1.77c1.18,1.24,1.76,2.71,1.76,4.42v49.52c0,1.71-.59,3.18-1.76,4.42-1.23,1.18-2.7,1.77-4.41,1.77Z"/>
        <path class="cls-2" d="M625.92,77c0-1.71.59-3.18,1.76-4.42,1.23-1.18,2.7-1.77,4.41-1.77h19.39c8.52,0,15.78,3.04,21.77,9.11,6.05,6.01,9.08,13.29,9.08,21.84s-3.03,15.83-9.08,21.84c-5.99,6.07-13.25,9.11-21.77,9.11h-19.39c-1.71,0-3.17-.62-4.41-1.86-1.18-1.18-1.76-2.62-1.76-4.33v-49.52ZM638.26,120.33h13.22c5.11,0,9.46-1.83,13.04-5.48,3.64-3.59,5.46-7.96,5.46-13.09s-1.82-9.49-5.46-13.09c-3.58-3.65-7.93-5.48-13.04-5.48h-13.22v37.14Z"/>
      </g>
      <path class="cls-1" d="M101.4,185.47c-46.43,0-84.08-37.64-84.08-84.08S54.96,17.32,101.4,17.32c17.42,0,33.61,5.3,47.03,14.38V11.57C134.37,4.2,118.38,0,101.4,0,45.4,0,0,45.4,0,101.4s45.4,101.4,101.4,101.4c16.98,0,32.97-4.2,47.03-11.57v-20.13c-13.42,9.08-29.61,14.38-47.03,14.38Z"/>
      <rect class="cls-2" x="90.32" y="57.63" width="13.02" height="41.65" rx="4.21" ry="4.21"/>
      <path class="cls-2" d="M96.82,135.05c-19.92,0-36.12-16.2-36.12-36.12,0-9.61,3.73-18.66,10.51-25.47,2.41-2.42,6.33-2.43,8.75-.02,2.42,2.41,2.43,6.33.02,8.75-4.46,4.48-6.91,10.43-6.91,16.75,0,13.1,10.65,23.75,23.75,23.75s23.75-10.65,23.75-23.75c0-6.34-2.47-12.31-6.96-16.79-2.42-2.42-2.42-6.33,0-8.75,2.42-2.42,6.33-2.42,8.75,0,6.82,6.82,10.58,15.89,10.58,25.54,0,19.92-16.2,36.12-36.12,36.12Z"/>
    </g>
  </g>
</svg>