<?xml version="1.0" encoding="UTF-8"?>
<svg id="Layer_2" data-name="Layer 2" xmlns="http://www.w3.org/2000/svg" viewBox="0 0 314.46 72.89">
  <defs>
    <style>
      .cls-1 {
        fill: none;
      }

      .cls-2 {
        fill: #ef4429;
      }

      .cls-3 {
        fill: #53aadd;
      }

      .cls-4 {
        fill: #85c442;
      }

      .cls-5 {
        fill: #9f258b;
      }

      .cls-6 {
        fill: #e7118b;
      }
    </style>
  </defs>
  <g id="Layer_1-2" data-name="Layer 1">
    <g>
      <g>
        <g>
          <path class="cls-2" d="M21.08,0s7.13,11.64,11.64,11.64,13.89-8.82,13.89-8.82c0,0-9.01,11.26-10.7,13.7,0,0,.19,5.26,3.19,14.45,0,0-6.38-9.95-10.32-14.08s-3.57-8.63-7.7-16.89Z"/>
          <circle class="cls-2" cx="40.79" cy="19.52" r="3.49"/>
        </g>
        <g>
          <path class="cls-6" d="M66.88,7.14s-9.16,10.12-7.89,14.44c1.27,4.32,12.38,10.84,12.38,10.84,0,0-13.34-5.47-16.16-6.41,0,0-4.99,1.66-12.97,7.13,0,0,7.75-8.93,10.6-13.87s7.28-5.85,14.04-12.14Z"/>
          <circle class="cls-6" cx="53.7" cy="31.55" r="3.49"/>
        </g>
        <g>
          <path class="cls-3" d="M31.84,72.89s1.35-13.58-2.24-16.31-16.4-1.37-16.4-1.37c0,0,13.98-3.53,16.81-4.45,0,0,3.03-4.3,6.19-13.44,0,0-.93,11.78-.28,17.46s-2.38,9.03-4.08,18.11Z"/>
          <circle class="cls-3" cx="27.93" cy="45.43" r="3.49"/>
        </g>
        <g>
          <path class="cls-4" d="M0,40.27s13.34-2.9,14.82-7.15c1.48-4.25-3.75-16.02-3.75-16.02,0,0,7.66,12.22,9.41,14.62,0,0,5.02,1.55,14.7,1.75,0,0-11.5,2.75-16.69,5.11s-9.33.52-18.49,1.7Z"/>
          <circle class="cls-4" cx="24.93" cy="28.09" r="3.49"/>
        </g>
        <g>
          <path class="cls-5" d="M73.05,52.48s-12.49-5.51-16.19-2.94-6.4,15.16-6.4,15.16c0,0,.99-14.39.99-17.36,0,0-3.15-4.21-10.85-10.06,0,0,10.91,4.54,16.5,5.69,5.59,1.15,7.85,5.07,15.95,9.51Z"/>
          <circle class="cls-5" cx="45.73" cy="47.66" r="3.49"/>
        </g>
      </g>
      <g>
        <path class="cls-1" d="M244.17,29.99c-1.02,0-1.58,1.43-1.69,4.3h3.18c0-1.69-.12-2.83-.35-3.42-.23-.59-.61-.88-1.14-.88Z"/>
        <path class="cls-1" d="M156.14,29.99c-1.02,0-1.58,1.43-1.69,4.3h3.18c0-1.69-.12-2.83-.35-3.42-.23-.59-.61-.88-1.14-.88Z"/>
        <path class="cls-1" d="M194.21,30.74c-.22-.27-.55-.41-.99-.41s-.77.14-.99.43c-.22.29-.4.88-.54,1.78-.14.9-.21,2.23-.21,3.98s.08,3.05.23,3.98c.15.93.34,1.53.58,1.81.23.27.54.41.93.41.44,0,.77-.14.99-.41.22-.27.4-.87.54-1.78.14-.92.21-2.25.21-4s-.07-3.08-.21-4c-.14-.92-.32-1.51-.54-1.78Z"/>
        <path class="cls-1" d="M226.15,23.58h-.87v17.72h.79c1.16,0,1.98-.68,2.48-2.04.5-1.36.74-3.69.74-6.99s-.24-5.57-.72-6.82c-.48-1.25-1.29-1.87-2.42-1.87Z"/>
        <path class="cls-1" d="M118.04,30.74c-.22-.27-.55-.41-.99-.41s-.77.14-.99.43c-.22.29-.4.88-.54,1.78-.14.9-.21,2.23-.21,3.98s.08,3.05.23,3.98c.15.93.34,1.53.58,1.81.23.27.54.41.93.41.44,0,.77-.14.99-.41.22-.27.4-.87.54-1.78.14-.92.21-2.25.21-4s-.07-3.08-.21-4c-.14-.92-.32-1.51-.54-1.78Z"/>
        <polygon class="cls-3" points="103.54 17.39 101.68 37.99 99.9 17.39 92.96 17.39 91.1 37.81 89.32 17.39 82.63 17.39 86.26 47.49 94.57 47.49 96.3 29.17 97.96 47.49 106.22 47.49 109.98 17.39 103.54 17.39"/>
        <path class="cls-3" d="M117.05,25.13c-2.48,0-4.35.88-5.6,2.62-1.25,1.75-1.88,4.67-1.88,8.77s.63,7.02,1.88,8.77c1.25,1.75,3.12,2.62,5.6,2.62s4.46-.88,5.68-2.64c1.23-1.76,1.84-4.68,1.84-8.75s-.62-7.02-1.86-8.77c-1.24-1.75-3.13-2.62-5.66-2.62ZM118.58,40.52c-.14.92-.32,1.51-.54,1.78-.22.27-.55.41-.99.41-.39,0-.7-.14-.93-.41-.23-.27-.43-.87-.58-1.81-.15-.93-.23-2.26-.23-3.98s.07-3.07.21-3.98c.14-.9.32-1.5.54-1.78.22-.29.55-.43.99-.43s.77.14.99.41c.22.27.4.87.54,1.78.14.92.21,2.25.21,4s-.07,3.08-.21,4Z"/>
        <path class="cls-3" d="M143.71,25.22c-1.13,0-2.06.27-2.79.8-.73.53-1.25,1.5-1.55,2.9-.17-1.38-.54-2.34-1.14-2.88-.59-.54-1.44-.82-2.54-.82-2.09,0-3.44,1-4.05,3.01h-.08v-2.67h-5.5v21.93h5.66v-13.76c0-1.2.08-2.02.23-2.45s.46-.65.93-.65c.44,0,.74.21.91.62.17.42.25,1.24.25,2.47v13.76h5.58v-13.72c0-2.09.41-3.14,1.24-3.14.41,0,.7.22.87.67s.25,1.25.25,2.43v13.76h5.66v-16.77c0-1.98-.33-3.39-.99-4.24-.66-.84-1.64-1.27-2.93-1.27Z"/>
        <path class="cls-3" d="M156.19,25.13c-2.23,0-3.99.89-5.27,2.67-1.28,1.78-1.92,4.59-1.92,8.43,0,4.1.67,7.07,2,8.92,1.34,1.85,3.34,2.77,6.01,2.77,2.34,0,4.04-.54,5.08-1.63v-4.69c-1.05.8-2.42,1.2-4.13,1.2-1.21,0-2.09-.39-2.65-1.16-.55-.77-.84-2.01-.87-3.7h8.35v-2.97c0-3.41-.52-5.91-1.55-7.48-1.03-1.58-2.72-2.37-5.06-2.37ZM154.45,34.29c.11-2.87.67-4.3,1.69-4.3.52,0,.9.29,1.14.88.23.59.35,1.73.35,3.42h-3.18Z"/>
        <path class="cls-3" d="M174.33,25.22c-2.23,0-3.62.99-4.17,2.97h-.08v-2.62h-5.66v21.93h5.66v-13.97c0-1.92.48-2.88,1.45-2.88.52,0,.87.2,1.05.6s.27,1.2.27,2.41v13.85h5.7v-16.64c0-1.95-.34-3.38-1.03-4.28-.69-.9-1.75-1.35-3.18-1.35Z"/>
        <path class="cls-3" d="M193.21,25.13c-2.48,0-4.35.88-5.6,2.62-1.25,1.75-1.88,4.67-1.88,8.77s.63,7.02,1.88,8.77c1.25,1.75,3.12,2.62,5.6,2.62s4.46-.88,5.68-2.64c1.23-1.76,1.84-4.68,1.84-8.75s-.62-7.02-1.86-8.77c-1.24-1.75-3.13-2.62-5.66-2.62ZM194.74,40.52c-.14.92-.32,1.51-.54,1.78-.22.27-.55.41-.99.41-.39,0-.7-.14-.93-.41-.23-.27-.43-.87-.58-1.81-.15-.93-.23-2.26-.23-3.98s.07-3.07.21-3.98c.14-.9.32-1.5.54-1.78.22-.29.55-.43.99-.43s.77.14.99.41c.22.27.4.87.54,1.78.14.92.21,2.25.21,4s-.07,3.08-.21,4Z"/>
        <path class="cls-3" d="M204.68,16.53c-.92,1.06-1.38,2.88-1.38,5.46v3.57h-1.94v5.42h1.94v16.51h5.7v-16.51h2.73v-5.42h-2.73v-2.02c0-1.23.12-2.07.35-2.52.23-.44.7-.67,1.38-.67.63,0,1.05.07,1.24.21v-5.25c-.99-.26-2.01-.39-3.06-.39-1.9,0-3.31.53-4.24,1.59Z"/>
        <path class="cls-3" d="M226.03,17.39h-7.11v30.1h6.86c3.5,0,6.04-1.25,7.62-3.76,1.58-2.51,2.38-6.37,2.38-11.59s-.72-8.84-2.17-11.2c-1.45-2.37-3.97-3.55-7.58-3.55ZM228.55,39.26c-.5,1.36-1.32,2.04-2.48,2.04h-.79v-17.72h.87c1.13,0,1.94.62,2.42,1.87.48,1.25.72,3.52.72,6.82s-.25,5.63-.74,6.99Z"/>
        <path class="cls-3" d="M244.21,25.13c-2.23,0-3.99.89-5.27,2.67-1.28,1.78-1.92,4.59-1.92,8.43,0,4.1.67,7.07,2,8.92,1.34,1.85,3.34,2.77,6.01,2.77,2.34,0,4.04-.54,5.08-1.63v-4.69c-1.05.8-2.42,1.2-4.13,1.2-1.21,0-2.09-.39-2.65-1.16-.55-.77-.84-2.01-.87-3.7h8.35v-2.97c0-3.41-.52-5.91-1.55-7.48-1.03-1.58-2.72-2.37-5.06-2.37ZM242.48,34.29c.11-2.87.67-4.3,1.69-4.3.52,0,.9.29,1.14.88.23.59.35,1.73.35,3.42h-3.18Z"/>
        <path class="cls-3" d="M261.77,35.34c-.63-.53-1.27-1-1.9-1.42-.63-.42-1.17-.83-1.61-1.25-.44-.42-.66-.88-.66-1.4,0-.86.54-1.29,1.61-1.29,1.41,0,2.7.29,3.88.86v-4.99c-1.41-.49-2.89-.73-4.46-.73-4.35,0-6.53,2.09-6.53,6.28,0,1.32.22,2.47.66,3.46.44.99.98,1.74,1.61,2.26.63.52,1.27.98,1.9,1.4.63.42,1.17.86,1.61,1.33.44.47.66,1.01.66,1.61,0,1.03-.55,1.55-1.65,1.55-1.98,0-3.44-.42-4.38-1.25v5.16c1.32.66,2.96.99,4.92.99,4.41,0,6.61-2.26,6.61-6.79,0-1.32-.22-2.48-.66-3.48-.44-1-.98-1.77-1.61-2.3Z"/>
        <path class="cls-3" d="M272.07,18.77l-5.7,2.15v4.64h-1.94v5.42h1.94v10.75c0,2.24.41,3.83,1.24,4.77.83.95,2.2,1.42,4.13,1.42,1.74,0,3-.24,3.8-.73v-5.38c-.41.32-.98.47-1.69.47-.66,0-1.12-.21-1.38-.64-.26-.43-.39-1.19-.39-2.28v-8.38h3.47v-5.42h-3.47v-6.79Z"/>
        <path class="cls-3" d="M279.88,15.54c-2.15,0-3.22,1.09-3.22,3.27s1.09,3.35,3.26,3.35,3.26-1.12,3.26-3.35-1.1-3.27-3.31-3.27Z"/>
        <rect class="cls-3" x="277.07" y="25.56" width="5.7" height="21.93"/>
        <path class="cls-3" d="M298.84,47.49v-16.64c0-1.95-.34-3.38-1.03-4.28-.69-.9-1.75-1.35-3.18-1.35-2.23,0-3.62.99-4.17,2.97h-.08v-2.62h-5.66v21.93h5.66v-13.97c0-1.92.48-2.88,1.45-2.88.52,0,.87.2,1.05.6s.27,1.2.27,2.41v13.85h5.7Z"/>
        <path class="cls-3" d="M314.46,25.56h-5.58l-1.41,12.25-1.69-12.25h-6.16l5.17,22.27-.08.65c-.12.86-.58,4.11-.94,6.03h5.77l4.92-28.95Z"/>
      </g>
    </g>
  </g>
</svg>